<svg xmlns="http://www.w3.org/2000/svg" width="45" height="44" fill="none"><path stroke="#2C355A" stroke-width="1.33" d="M12.5 24c0-5.523 4.477-10 10-10s10 4.477 10 10-4.477 10-10 10-10-4.477-10-10Z" clip-rule="evenodd"/><path fill="#E8EBFA" fill-rule="evenodd" d="M16.5 24a6 6 0 1 1 12 0 6 6 0 0 1-12 0Z" clip-rule="evenodd"/><path stroke="#2C355A" stroke-width="1.33" d="m28.5 12 5.089 5.089M15.59 12l-5.09 5.089"/><path fill="#3F5BD9" fill-rule="evenodd" d="M23.596 22.5c0-.276.22-.5.494-.5h1.916c.273 0 .494.224.494.5v1.97c0 .277-.221.5-.494.5a.497.497 0 0 1-.494-.5v-.763l-2.169 2.147a.492.492 0 0 1-.698 0l-1.627-1.647-1.675 1.647a.49.49 0 0 1-.698 0 .504.504 0 0 1 0-.708l2.023-2a.49.49 0 0 1 .699 0l1.627 1.647L24.813 23h-.723a.497.497 0 0 1-.494-.5Z" clip-rule="evenodd"/></svg>