<svg width="45" height="44" fill="none" xmlns="http://www.w3.org/2000/svg"><path d="M17.087 17.594c1.498-2.542 4.018-3.326 5.187-3.39 3.164-.177 5.107 2.67 5.18 2.867-4.367-2.747-7.392.586-8.172 3.24-.127.43-.541.735-.99.741-4.283.062-4.968 6.407-1.424 7.143l-1.782-.058a1.362 1.362 0 0 1-.436-.082c-1.609-.606-3.046-2.13-2.94-5.17.09-2.648 2.363-3.87 4.047-4.3a2.169 2.169 0 0 0 1.33-.991Z" fill="#3F5BD9"/><path fill-rule="evenodd" clip-rule="evenodd" d="M29.16 27.84H29.172C31.325 27.814 33 26.087 33 24.037c0-2.064-1.698-3.802-3.872-3.802-.045 0-.09 0-.134.002l-.706.024-.171-.709c-.669-2.77-3.004-4.78-5.742-4.78-2.343 0-4.387 1.468-5.351 3.629l-.236.528-.603-.002c-2.294 0-4.185 1.97-4.185 4.441 0 2.45 1.945 4.438 4.213 4.47H29.16Zm-12.973-9.817h.042c1.096-2.457 3.436-4.154 6.146-4.154 3.169 0 5.832 2.322 6.59 5.465l.163-.003c2.622 0 4.747 2.107 4.747 4.707 0 2.581-2.096 4.677-4.693 4.706h-13.02c-2.763-.04-5.037-2.447-5.037-5.375 0-2.952 2.266-5.346 5.062-5.346Z" fill="#2C355A"/><path fill-rule="evenodd" clip-rule="evenodd" d="M27.027 21.635c.212.067.417.153.615.256a.26.26 0 0 0 .251 0l.694-.379a.266.266 0 0 1 .319.046l.72.72a.265.265 0 0 1 .046.319l-.378.694a.258.258 0 0 0 0 .251c.1.196.184.4.25.61a.262.262 0 0 0 .179.176l.758.223a.266.266 0 0 1 .192.256v1.02a.266.266 0 0 1-.192.257l-.758.223a.262.262 0 0 0-.18.178 3.798 3.798 0 0 1-.255.615.26.26 0 0 0 0 .25l.379.695a.265.265 0 0 1-.046.318l-.72.721a.265.265 0 0 1-.319.046l-.694-.378a.259.259 0 0 0-.252 0c-.195.1-.4.184-.61.25a.261.261 0 0 0-.175.179l-.223.758a.265.265 0 0 1-.256.192H25.35a.265.265 0 0 1-.257-.192l-.223-.758a.262.262 0 0 0-.177-.18 3.802 3.802 0 0 1-.615-.255.26.26 0 0 0-.251 0l-.694.379a.265.265 0 0 1-.319-.046l-.72-.72a.265.265 0 0 1-.046-.319l.378-.694a.26.26 0 0 0 0-.252c-.1-.196-.184-.4-.25-.61a.262.262 0 0 0-.179-.175l-.758-.223a.265.265 0 0 1-.192-.257v-1.02a.265.265 0 0 1 .192-.257l.758-.223a.261.261 0 0 0 .18-.177c.066-.212.152-.418.255-.615a.261.261 0 0 0 0-.251l-.379-.695a.264.264 0 0 1 .046-.318l.72-.72a.266.266 0 0 1 .319-.046l.694.378a.259.259 0 0 0 .252 0c.195-.1.4-.184.61-.25a.262.262 0 0 0 .175-.18l.223-.757a.265.265 0 0 1 .256-.192h1.02a.265.265 0 0 1 .257.192l.223.758a.262.262 0 0 0 .178.179Zm-1.167 1.676a2.007 2.007 0 1 0 0 4.015 2.007 2.007 0 0 0 0-4.015Z" fill="#E8EBFA"/><path clip-rule="evenodd" d="M27.027 21.635c.212.067.417.153.615.256a.26.26 0 0 0 .251 0l.694-.379a.266.266 0 0 1 .319.046l.72.72a.265.265 0 0 1 .046.319l-.378.694a.258.258 0 0 0 0 .251c.1.196.184.4.25.61a.262.262 0 0 0 .179.176l.758.223a.266.266 0 0 1 .192.256v1.02a.266.266 0 0 1-.192.257l-.758.223a.262.262 0 0 0-.18.178 3.798 3.798 0 0 1-.255.615.26.26 0 0 0 0 .25l.379.695a.265.265 0 0 1-.046.318l-.72.721a.265.265 0 0 1-.319.046l-.694-.378a.259.259 0 0 0-.252 0c-.195.1-.4.184-.61.25a.261.261 0 0 0-.175.179l-.223.758a.265.265 0 0 1-.256.192H25.35a.266.266 0 0 1-.257-.192l-.223-.758a.262.262 0 0 0-.177-.18 3.802 3.802 0 0 1-.615-.255.26.26 0 0 0-.251 0l-.694.379a.265.265 0 0 1-.319-.046l-.72-.72a.265.265 0 0 1-.046-.319l.378-.694a.26.26 0 0 0 0-.252c-.1-.196-.184-.4-.25-.61a.262.262 0 0 0-.179-.175l-.758-.223a.265.265 0 0 1-.192-.257v-1.02a.265.265 0 0 1 .192-.257l.758-.223a.261.261 0 0 0 .18-.177c.066-.212.152-.418.255-.615a.261.261 0 0 0 0-.251l-.379-.695a.264.264 0 0 1 .046-.318l.72-.72a.266.266 0 0 1 .319-.046l.694.378a.259.259 0 0 0 .252 0c.195-.1.4-.184.61-.25a.262.262 0 0 0 .175-.18l.223-.757a.265.265 0 0 1 .256-.192h1.02a.265.265 0 0 1 .257.192l.223.758a.262.262 0 0 0 .178.179Zm-1.167 1.676a2.007 2.007 0 1 0 0 4.015 2.007 2.007 0 0 0 0-4.015Z" stroke="#2C355A" stroke-width=".875"/></svg>