<svg width="44" height="44" fill="none" xmlns="http://www.w3.org/2000/svg"><path d="M20.548 29.943c0 .942-.749 1.706-1.672 1.706-.924 0-1.673-.764-1.673-1.706 0-.943.749-1.707 1.673-1.707.923 0 1.672.764 1.672 1.707ZM27.566 29.943c0 .942-.75 1.706-1.673 1.706-.924 0-1.672-.764-1.672-1.706 0-.943.748-1.707 1.672-1.707.924 0 1.673.764 1.673 1.707ZM29.947 15.571l-16.742.03.796 2.393 15.957-.135a1.126 1.126 0 0 0 1.083-.887c.162-.718-.373-1.402-1.095-1.4Z" fill="#3F5BD9"/><path fill-rule="evenodd" clip-rule="evenodd" d="M18.871 28.713c-.685 0-1.24.549-1.24 1.225 0 .677.555 1.226 1.24 1.226.685 0 1.241-.549 1.241-1.226 0-.676-.556-1.225-1.24-1.225Zm-2.16 1.225c0-1.177.967-2.132 2.16-2.132s2.16.955 2.16 2.132c0 1.178-.967 2.133-2.16 2.133s-2.16-.955-2.16-2.133ZM26.006 28.713c-.686 0-1.241.549-1.241 1.226 0 .676.555 1.225 1.24 1.225.686 0 1.242-.549 1.242-1.226 0-.676-.556-1.224-1.241-1.224Zm-2.16 1.226c0-1.178.967-2.133 2.16-2.133 1.192 0 2.16.955 2.16 2.133 0 1.177-.968 2.132-2.16 2.132-1.193 0-2.16-.955-2.16-2.132ZM18.222 20.17a.51.51 0 0 1 .577.35l1.046 3.61a.41.41 0 0 1-.325.523.51.51 0 0 1-.577-.35l-1.046-3.61a.41.41 0 0 1 .325-.523ZM26.654 20.17a.51.51 0 0 0-.577.35l-1.045 3.61a.41.41 0 0 0 .325.523.51.51 0 0 0 .577-.35l1.045-3.61a.41.41 0 0 0-.325-.523ZM22.438 20.153c.254 0 .46.203.46.453v3.61c0 .25-.206.453-.46.453a.457.457 0 0 1-.46-.453v-3.61c0-.25.206-.453.46-.453ZM9.398 13.767c0-.25.205-.454.46-.454h2.78l1.46 4.076a.452.452 0 0 1-.28.579.461.461 0 0 1-.586-.277l-1.243-3.47H9.857a.457.457 0 0 1-.46-.454Z" fill="#2C355A"/><path fill-rule="evenodd" clip-rule="evenodd" d="M30.02 17.652c1.362 0 1.618-1.059 1.667-.37l-2.869 8.561a1.986 1.986 0 0 1-1.88 1.329H17.95c-.85 0-1.605-.533-1.88-1.326l-2.849-8.194H30.02Zm-15.51.907 2.43 6.992c.148.427.554.713 1.01.713h8.987c.457 0 .864-.287 1.012-.714l1.936-5.595c.169-.534.457-1.247.554-1.512 0 0-.138.041-.297.064l-15.633.052Z" fill="#2C355A"/><path fill-rule="evenodd" clip-rule="evenodd" d="M30.791 17.079a.674.674 0 0 0-.664-.822l-16.38.028.497 1.445 15.89-.13a.678.678 0 0 0 .657-.521Zm-.665-1.73c1.029-.001 1.792.944 1.56 1.934-.165.711-1.186 1.224-1.544 1.224l-16.555.136-1.122-3.264 17.66-.03Z" fill="#2C355A"/><path d="M28.276 21.17a4.375 4.375 0 1 0 0-8.75 4.375 4.375 0 0 0 0 8.75Z" fill="#E8EBFA"/><path fill-rule="evenodd" clip-rule="evenodd" d="M28.72 20.54a3.561 3.561 0 1 0 0-7.122 3.561 3.561 0 0 0 0 7.122Zm4.466-3.561a4.466 4.466 0 1 1-8.933 0 4.466 4.466 0 0 1 8.933 0Z" fill="#2C355A"/><path fill-rule="evenodd" clip-rule="evenodd" d="M30.51 15.278c.2.149.242.432.093.633l-1.897 2.557a.575.575 0 0 1-.883.047l-.893-.966a.453.453 0 0 1 .665-.614l.622.673 1.66-2.236a.453.453 0 0 1 .633-.094Z" fill="#2C355A"/></svg>