<svg width="305" height="142" viewBox="0 0 305 142" fill="none" xmlns="http://www.w3.org/2000/svg">
<rect width="305" height="142" fill="url(#paint0_linear_1371_20665)" fill-opacity="0.74"/>
<path d="M164.005 119.51C160.062 117.644 158.49 113.206 157.934 109.073C157.84 108.386 157.644 107.673 157.868 107.014C158.092 106.355 158.783 105.817 159.446 106.003C159.998 106.156 160.32 106.71 160.688 107.146C161.178 107.736 161.826 108.174 162.555 108.409C163.031 108.562 163.596 108.61 163.987 108.299C164.522 107.872 164.444 107.044 164.335 106.362C164.11 105.098 163.891 103.834 163.676 102.569C163.521 101.895 163.475 101.2 163.541 100.511C163.641 99.8244 164.01 99.1381 164.627 98.8545C165.245 98.5709 166.112 98.8019 166.361 99.4469C166.435 99.7243 166.49 100.006 166.526 100.291C166.592 100.572 166.778 100.863 167.059 100.897C167.34 100.931 167.585 100.691 167.757 100.456C168.342 99.6482 168.672 98.6806 168.969 97.7222C169.266 96.7638 169.545 95.787 170.058 94.9269C170.57 94.0669 171.352 93.3257 172.32 93.097C173.288 92.8682 174.431 93.3029 174.836 94.2201C175.241 95.1374 174.85 96.2102 174.379 97.0932C173.663 98.4006 172.762 99.5978 171.705 100.648C171.494 100.816 171.342 101.047 171.27 101.307C171.199 101.787 171.707 102.167 172.185 102.24C172.72 102.322 173.265 102.176 173.807 102.148C174.349 102.121 174.964 102.258 175.253 102.727C175.648 103.377 175.188 104.207 174.697 104.786C173.709 105.939 172.531 106.914 171.213 107.668C170.742 107.936 170.241 108.187 169.895 108.608C169.55 109.029 169.41 109.683 169.735 110.122C170.06 110.562 170.717 110.61 171.224 110.422C171.732 110.235 172.155 109.871 172.624 109.599C173.503 109.086 174.724 108.944 175.463 109.654C175.693 109.901 175.863 110.2 175.959 110.524C176.054 110.849 176.073 111.191 176.014 111.525C175.893 112.189 175.638 112.821 175.266 113.384C174.082 115.421 172.378 117.107 170.33 118.27C168.283 119.391 166.302 119.938 164.007 119.512" fill="#F5F5F5"/>
<path d="M164.629 116.752C164.932 114.397 165.371 112.063 165.942 109.759L166.381 107.945C166.525 107.348 166.669 106.758 166.839 106.19C167.181 105.102 167.582 104.033 168.042 102.988C168.474 101.986 168.92 101.048 169.343 100.177C169.767 99.3052 170.181 98.5001 170.588 97.7841C171.223 96.6485 171.948 95.5654 172.756 94.5451C173.042 94.1836 173.273 93.9114 173.431 93.7284C173.506 93.6415 173.568 93.5729 173.612 93.5203C173.655 93.4677 173.676 93.4517 173.678 93.4539C173.661 93.4803 173.643 93.5055 173.623 93.5294L173.449 93.7445C173.298 93.932 173.074 94.2019 172.795 94.5748C172.005 95.6051 171.293 96.6932 170.665 97.8298C170.265 98.5481 169.858 99.3533 169.437 100.225C169.016 101.096 168.577 102.034 168.149 103.036C167.694 104.081 167.297 105.15 166.96 106.238C166.784 106.803 166.642 107.382 166.502 107.986L166.063 109.802C165.493 112.101 165.053 114.431 164.743 116.779" fill="#E0E0E0"/>
<path d="M166.878 106.181C166.829 106.092 166.789 105.998 166.762 105.9C166.693 105.719 166.604 105.442 166.498 105.12C166.288 104.457 166.027 103.53 165.744 102.51C165.46 101.49 165.188 100.568 164.966 99.9114C164.856 99.582 164.765 99.3144 164.701 99.1337C164.662 99.0397 164.632 98.9425 164.611 98.8431C164.667 98.9284 164.712 99.0198 164.746 99.1153C164.826 99.2915 164.929 99.5545 165.051 99.8794C165.295 100.534 165.581 101.451 165.867 102.476C166.153 103.5 166.393 104.397 166.585 105.092C166.675 105.408 166.748 105.673 166.814 105.886C166.844 105.982 166.866 106.081 166.878 106.181Z" fill="#E0E0E0"/>
<path d="M175.376 103.057C175.266 103.103 175.151 103.137 175.033 103.159C174.805 103.217 174.491 103.299 174.098 103.413C173.309 103.642 172.231 103.981 171.058 104.415C169.884 104.85 168.839 105.291 168.084 105.63C167.709 105.797 167.409 105.941 167.201 106.039C167.097 106.096 166.987 106.144 166.874 106.181C166.969 106.108 167.071 106.045 167.178 105.994C167.38 105.882 167.675 105.726 168.045 105.536C168.784 105.175 169.827 104.719 171.003 104.283C172.006 103.907 173.029 103.584 174.066 103.315C174.464 103.21 174.789 103.141 175.015 103.098C175.134 103.073 175.255 103.059 175.376 103.057Z" fill="#E0E0E0"/>
<path d="M164.709 116.575C164.68 116.545 164.654 116.512 164.631 116.477L164.428 116.187C164.252 115.93 164.007 115.558 163.712 115.091C163.117 114.158 162.339 112.842 161.5 111.378C160.66 109.914 159.899 108.595 159.32 107.652L158.634 106.534L158.451 106.229C158.427 106.196 158.407 106.159 158.394 106.12C158.394 106.12 158.423 106.149 158.471 106.216C158.519 106.282 158.595 106.389 158.675 106.508C158.851 106.762 159.096 107.135 159.393 107.604C159.986 108.537 160.766 109.85 161.605 111.314C162.445 112.778 163.206 114.098 163.783 115.043L164.469 116.159C164.542 116.28 164.604 116.388 164.652 116.463C164.677 116.498 164.696 116.535 164.709 116.575Z" fill="#E0E0E0"/>
<path d="M175.731 110.845C175.699 110.873 175.663 110.897 175.624 110.914L175.306 111.083L174.125 111.699C173.128 112.22 171.76 112.954 170.251 113.757C168.741 114.56 167.366 115.294 166.362 115.793C165.859 116.042 165.447 116.251 165.163 116.372L164.82 116.523C164.782 116.543 164.743 116.558 164.701 116.569C164.734 116.541 164.77 116.518 164.809 116.5L165.129 116.331L166.309 115.713C167.304 115.194 168.672 114.46 170.182 113.654C171.692 112.849 173.069 112.119 174.071 111.621C174.574 111.371 174.986 111.163 175.269 111.042L175.599 110.891C175.64 110.869 175.685 110.854 175.731 110.845Z" fill="#E0E0E0"/>
<path d="M135.402 70.4102C135.402 70.4102 132.685 70.7876 134.21 76.7396C135.736 82.6915 137.031 85.7613 137.031 85.7613C137.031 85.7613 137.234 87.1086 136.148 87.0674C135.061 87.0262 132.845 86.1524 132.092 87.3167C131.315 88.5337 131.996 89.9976 133.693 91.5325C135.391 93.0674 139.01 96.5649 139.334 96.8828C139.659 97.2008 139.897 97.855 139.151 97.9442C138.406 98.0334 133.117 97.4135 132.975 99.9412C132.833 102.469 138.284 105.964 138.872 106.357C139.46 106.751 139.558 107.057 139.421 107.401C139.284 107.744 137.532 107.366 136.02 107.25C134.508 107.133 132.733 107.268 132.772 108.732C132.811 110.196 135.674 113.901 144.024 116.656L147.979 117.678L150.9 114.8C156.778 108.261 157.421 103.624 156.728 102.334C156.035 101.044 154.441 101.81 153.173 102.661C151.906 103.512 150.579 104.72 150.296 104.491C150.012 104.262 149.939 103.946 150.255 103.313C150.57 102.679 153.565 96.9377 152.183 94.815C150.801 92.6922 146.519 95.8535 145.833 96.144C145.147 96.4345 145.023 95.7437 145.147 95.3136C145.27 94.8836 146.666 90.0525 147.384 87.868C148.102 85.6835 147.965 84.0777 146.684 83.4098C145.449 82.767 143.964 84.6335 143.04 85.21C142.116 85.7864 141.626 84.5238 141.626 84.5238C141.626 84.5238 141.224 81.2184 139.591 75.2939C137.957 69.3694 135.352 70.4308 135.352 70.4308" fill="#EBEBEB"/>
<path d="M147.976 118.662C146.794 114.315 144.82 106.538 143.093 99.8611C141.366 93.184 139.796 87.1634 138.634 82.8036C138.053 80.6259 137.582 78.8646 137.262 77.6408C137.102 77.0346 136.976 76.5611 136.889 76.2363L136.793 75.8703C136.772 75.788 136.766 75.7445 136.766 75.7445C136.766 75.7445 136.782 75.7834 136.807 75.8657C136.832 75.9481 136.866 76.0739 136.912 76.2294C137.006 76.5543 137.141 77.0232 137.31 77.6271C137.653 78.8417 138.138 80.6008 138.728 82.7784C139.911 87.1246 141.496 93.1657 143.223 99.829C144.95 106.492 146.908 114.277 148.07 118.636" fill="#E0E0E0"/>
<path d="M135.145 88.6755C135.236 88.7132 135.323 88.76 135.405 88.8151C135.568 88.9111 135.801 89.0575 136.092 89.2405C136.661 89.6088 137.437 90.1372 138.281 90.7342L140.435 92.2714L141.092 92.7289C141.175 92.7804 141.251 92.841 141.321 92.9096C141.228 92.8723 141.14 92.8256 141.058 92.7701C140.895 92.674 140.662 92.5276 140.371 92.3423C139.806 91.9695 139.038 91.4273 138.194 90.8326L136.027 89.3114L135.369 88.854C135.288 88.8026 135.213 88.7428 135.145 88.6755Z" fill="#E0E0E0"/>
<path d="M141.652 92.7196C141.622 92.7013 142.64 91.0566 143.923 89.0459C145.207 87.0353 146.275 85.4203 146.305 85.4386C146.334 85.4569 145.316 87.1039 144.031 89.1146C142.745 91.1252 141.682 92.7333 141.652 92.7196Z" fill="#E0E0E0"/>
<path d="M143.844 103.077C143.907 102.998 143.98 102.928 144.061 102.867L144.676 102.327C145.196 101.869 145.912 101.238 146.676 100.511C147.44 99.7833 148.112 99.1039 148.592 98.6076C148.821 98.3788 149.009 98.1752 149.162 98.0197C149.231 97.943 149.308 97.8733 149.391 97.8115C149.34 97.899 149.279 97.9797 149.208 98.0517C149.084 98.2004 148.899 98.4108 148.666 98.667C148.208 99.1817 147.54 99.8748 146.772 100.602C146.003 101.33 145.28 101.956 144.745 102.396C144.475 102.624 144.255 102.789 144.1 102.906C144.021 102.972 143.935 103.03 143.844 103.077Z" fill="#E0E0E0"/>
<path d="M137.152 100.714C137.245 100.725 137.335 100.748 137.422 100.781L138.147 101.009C138.756 101.204 139.595 101.481 140.519 101.792C141.444 102.103 142.279 102.396 142.88 102.613L143.592 102.874C143.68 102.901 143.765 102.939 143.845 102.986C143.753 102.976 143.662 102.955 143.576 102.922L142.85 102.693C142.242 102.499 141.402 102.222 140.478 101.908C139.554 101.595 138.719 101.305 138.118 101.089L137.406 100.826C137.317 100.801 137.232 100.763 137.152 100.714Z" fill="#E0E0E0"/>
<path d="M137.926 110.104C138.043 110.122 138.159 110.151 138.271 110.191L139.2 110.475C139.982 110.72 141.06 111.065 142.249 111.456C143.439 111.847 144.511 112.204 145.287 112.472L146.202 112.792C146.316 112.828 146.427 112.874 146.533 112.927C146.415 112.91 146.298 112.88 146.186 112.84L145.257 112.556C144.475 112.312 143.397 111.966 142.208 111.575C141.018 111.184 139.946 110.825 139.172 110.559L138.257 110.237C138.143 110.203 138.032 110.158 137.926 110.104Z" fill="#E0E0E0"/>
<path d="M146.346 112.801C146.426 112.702 146.516 112.611 146.613 112.529L147.37 111.818C148.009 111.216 148.887 110.381 149.832 109.432C150.776 108.483 151.611 107.602 152.211 106.961L152.92 106.202C153.003 106.105 153.094 106.015 153.192 105.932C153.125 106.04 153.049 106.141 152.963 106.234C152.808 106.424 152.574 106.691 152.277 107.021C151.694 107.68 150.87 108.572 149.921 109.521C148.972 110.47 148.091 111.298 147.432 111.884C147.103 112.174 146.835 112.41 146.645 112.57C146.552 112.655 146.452 112.733 146.346 112.801Z" fill="#E0E0E0"/>
<path d="M123.599 34.9159L121.367 34.2296C121.367 34.2296 120.781 36.1053 118.823 35.5312C118.444 35.4268 118.107 35.2072 117.858 34.9027C117.609 34.5982 117.461 34.2239 117.435 33.8316C117.405 33.5008 117.456 33.1678 117.581 32.8602C117.706 32.5527 117.903 32.2795 118.155 32.0634C118.729 31.5556 119.736 31.2468 121.156 31.9811L122.728 26.9487L120.52 26.2625L119.606 29.211C119.606 29.211 116.257 29.044 115.193 32.4546C114.175 35.7188 116.865 37.3909 118.119 37.782C119.07 38.0794 122.412 38.8663 123.599 34.9159Z" fill="#F5F5F5"/>
<path d="M120.819 25.2151L123.06 25.9142L123.712 23.8223L121.472 23.1232L120.819 25.2151Z" fill="#F5F5F5"/>
<path d="M129.76 29.2338L130.654 29.0051C130.627 28.9035 130.62 28.7975 130.635 28.6933C130.649 28.5891 130.685 28.4889 130.739 28.3987C130.792 28.3084 130.864 28.2299 130.949 28.1679C131.034 28.1058 131.13 28.0615 131.233 28.0375C131.382 27.9925 131.541 27.995 131.689 28.0446C131.836 28.0942 131.965 28.1884 132.056 28.3143C132.134 28.4188 132.186 28.5402 132.208 28.6686C132.23 28.797 132.221 28.9288 132.182 29.0531C132.098 29.3436 131.825 29.6593 131.194 29.7119L131.727 31.7271L132.61 31.4984L132.299 30.3181C132.634 30.1161 132.893 29.8096 133.036 29.4459C133.18 29.0821 133.199 28.6813 133.093 28.3051C132.749 26.9967 131.491 27.0036 130.995 27.1339C130.611 27.2232 129.327 27.6601 129.76 29.2338Z" fill="#EBEBEB"/>
<path d="M132.921 31.7924L132.021 32.0338L132.246 32.8747L133.147 32.6333L132.921 31.7924Z" fill="#EBEBEB"/>
<path d="M203.601 52.3851L204.47 52.6985C204.506 52.6001 204.562 52.5099 204.634 52.4334C204.706 52.3569 204.792 52.2955 204.888 52.2528C204.984 52.2102 205.087 52.1872 205.192 52.1852C205.297 52.1831 205.402 52.2021 205.499 52.241C205.646 52.2881 205.774 52.3793 205.866 52.5022C205.959 52.625 206.011 52.7735 206.016 52.9272C206.022 53.0584 205.996 53.189 205.941 53.3083C205.886 53.4276 205.804 53.5322 205.7 53.6135C205.472 53.8033 205.062 53.9063 204.513 53.5906L203.802 55.5509L204.662 55.862L205.078 54.7183C205.469 54.7425 205.856 54.6379 206.181 54.4205C206.507 54.2032 206.752 53.8851 206.878 53.5151C207.336 52.2433 206.304 51.5365 205.817 51.3603C205.444 51.2139 204.14 50.8457 203.601 52.3851Z" fill="#EBEBEB"/>
<path d="M204.534 56.2594L203.661 55.9431L203.366 56.7582L204.239 57.0745L204.534 56.2594Z" fill="#EBEBEB"/>
<path d="M111.352 62.34L113.182 61.6309C113.182 61.6309 112.588 60.0868 114.182 59.4395C114.487 59.3104 114.825 59.2791 115.148 59.35C115.472 59.4209 115.766 59.5904 115.989 59.8352C116.179 60.0388 116.318 60.2843 116.395 60.5518C116.472 60.8193 116.485 61.1012 116.433 61.3747C116.318 62.0106 115.815 62.7471 114.491 63.001L116.092 67.1482L117.922 66.4482L116.984 64.0189C116.984 64.0189 119.272 62.3766 118.199 59.563C117.158 56.873 114.495 57.1795 113.473 57.5752C112.684 57.8794 110.067 59.1078 111.352 62.34Z" fill="#F5F5F5"/>
<path d="M118.269 67.2924L116.423 68.0038L117.087 69.7285L118.934 69.0171L118.269 67.2924Z" fill="#F5F5F5"/>
<path d="M204.317 69.3191L203.013 69.82C203.013 69.82 203.434 70.9157 202.304 71.3732C202.088 71.4636 201.849 71.4853 201.62 71.4354C201.391 71.3855 201.182 71.2663 201.023 71.0941C200.889 70.9498 200.79 70.7758 200.736 70.5862C200.681 70.3965 200.672 70.1967 200.71 70.003C200.792 69.5455 201.149 69.0331 202.082 68.8593L200.961 65.9108L199.671 66.4071L200.335 68.1296C199.865 68.4888 199.527 68.9923 199.371 69.5626C199.216 70.133 199.252 70.7386 199.475 71.2863C200.209 73.1917 202.089 72.9767 202.821 72.6953C203.375 72.478 205.227 71.6088 204.317 69.3191Z" fill="#F5F5F5"/>
<path d="M199.415 65.8096L200.724 65.3055L200.253 64.0846L198.945 64.5887L199.415 65.8096Z" fill="#F5F5F5"/>
<path d="M208 119.901C208 119.936 185.389 119.961 157.502 119.961C129.616 119.961 107 119.936 107 119.901C107 119.867 129.607 119.842 157.502 119.842C185.398 119.842 208 119.869 208 119.901Z" fill="#263238"/>
<path d="M121.505 113.961C121.734 113.119 121.169 112.275 120.551 111.673C119.933 111.072 119.195 110.518 118.872 109.711C118.35 108.402 119.05 106.71 118.163 105.619C117.639 104.978 116.701 104.763 116.237 104.077C116.022 103.699 115.88 103.284 115.818 102.853C115.325 100.68 114.256 98.6794 112.723 97.0613C112.62 98.997 113.04 100.925 113.938 102.643C114.297 103.329 114.741 103.997 114.853 104.763C115.047 106.005 114.352 107.279 114.659 108.505C115.009 109.901 116.575 110.836 116.649 112.273C116.713 113.487 115.654 114.56 115.734 115.768C115.798 116.285 115.985 116.779 116.28 117.209C117.218 118.771 118.6 119.847 120.691 119.812L123.252 119.901L121.505 113.961Z" fill="#4D40D6"/>
<g opacity="0.3">
<path d="M121.505 113.961C121.734 113.119 121.169 112.275 120.551 111.673C119.933 111.072 119.195 110.518 118.872 109.711C118.35 108.402 119.05 106.71 118.163 105.619C117.639 104.978 116.701 104.763 116.237 104.077C116.022 103.699 115.88 103.284 115.818 102.853C115.325 100.68 114.256 98.6794 112.723 97.0613C112.62 98.997 113.04 100.925 113.938 102.643C114.297 103.329 114.741 103.997 114.853 104.763C115.047 106.005 114.352 107.279 114.659 108.505C115.009 109.901 116.575 110.836 116.649 112.273C116.713 113.487 115.654 114.56 115.734 115.768C115.798 116.285 115.985 116.779 116.28 117.209C117.218 118.771 118.6 119.847 120.691 119.812L123.252 119.901L121.505 113.961Z" fill="black"/>
</g>
<path d="M123.77 119.954C124.005 119.99 124.244 119.986 124.477 119.94C124.76 119.897 125.038 119.827 125.307 119.73C125.679 119.601 126.027 119.41 126.337 119.167C126.523 119.017 126.669 118.823 126.76 118.602C126.836 118.355 126.876 118.097 126.879 117.838C126.884 117.561 126.905 117.285 126.941 117.01C126.989 116.718 127.095 116.438 127.252 116.187C127.554 115.656 128.057 115.153 128.217 114.432C128.377 113.712 128.267 112.957 128.148 112.188C128.029 111.42 127.92 110.587 128.208 109.782C128.496 108.977 129.045 108.256 129.326 107.355C129.608 106.454 129.475 105.461 129.535 104.493C129.552 104.002 129.666 103.518 129.869 103.07C130.074 102.613 130.363 102.19 130.587 101.714C131.044 100.749 131.122 99.6552 131.246 98.5824C131.307 98.0426 131.367 97.4959 131.429 96.9469C131.468 96.3919 131.563 95.8423 131.715 95.3068C131.888 94.767 132.093 94.2377 132.328 93.7216C132.448 93.4547 132.548 93.1786 132.625 92.8958C132.668 92.6032 132.695 92.3085 132.707 92.0129C132.735 91.4211 132.712 90.828 132.639 90.2401C132.57 89.65 132.462 89.0644 132.398 88.4719C132.398 88.4353 132.398 88.401 132.398 88.369L132.385 88.2523L132.282 88.3026C131.741 88.5802 131.271 88.9786 130.909 89.467C130.554 89.9452 130.269 90.4711 130.061 91.0293C129.633 92.1295 129.48 93.2824 129.265 94.3827C129.05 95.4829 128.775 96.5649 128.212 97.4799C127.931 97.9374 127.59 98.3537 127.297 98.7975C126.979 99.2305 126.762 99.7291 126.662 100.257C126.508 101.341 127.105 102.293 126.982 103.253C126.926 103.724 126.77 104.177 126.524 104.582C126.296 104.992 126.019 105.372 125.758 105.751C125.494 106.124 125.264 106.52 125.072 106.934C124.891 107.339 124.784 107.774 124.756 108.217C124.694 109.082 124.816 109.901 124.756 110.674C124.685 111.411 124.469 112.127 124.122 112.781C123.814 113.41 123.468 113.979 123.18 114.533C123.036 114.807 122.901 115.077 122.791 115.349C122.687 115.611 122.611 115.882 122.562 116.159C122.486 116.643 122.48 117.135 122.544 117.621C122.611 118.298 122.865 118.943 123.276 119.485C123.339 119.567 123.409 119.644 123.484 119.714C123.535 119.767 123.591 119.814 123.651 119.856C123.747 119.927 123.798 119.959 123.798 119.959C123.615 119.814 123.448 119.65 123.301 119.469C122.909 118.925 122.671 118.285 122.615 117.616C122.557 117.137 122.568 116.652 122.647 116.175C122.695 115.905 122.772 115.64 122.876 115.386C122.992 115.111 123.122 114.842 123.267 114.581C123.557 114.032 123.905 113.465 124.221 112.831C124.578 112.167 124.8 111.438 124.875 110.688C124.944 109.898 124.825 109.075 124.889 108.233C124.918 107.804 125.023 107.384 125.198 106.991C125.391 106.585 125.621 106.198 125.884 105.834C126.145 105.454 126.421 105.074 126.659 104.656C126.92 104.235 127.087 103.763 127.149 103.272C127.272 102.249 126.68 101.293 126.833 100.284C126.933 99.7797 127.143 99.3033 127.448 98.889C127.739 98.4521 128.082 98.0357 128.363 97.5668C128.947 96.6267 129.228 95.5241 129.441 94.4193C129.654 93.3144 129.811 92.1707 130.232 91.091C130.435 90.5484 130.713 90.0371 131.058 89.5722C131.406 89.1035 131.858 88.7215 132.378 88.4559L132.261 88.3896C132.261 88.4239 132.261 88.4582 132.273 88.4948C132.337 89.0941 132.444 89.6797 132.501 90.2653C132.574 90.8441 132.596 91.428 132.568 92.0106C132.556 92.2969 132.53 92.5824 132.49 92.8661C132.416 93.1397 132.32 93.4067 132.202 93.6644C131.966 94.186 131.759 94.7206 131.584 95.2656C131.432 95.8095 131.335 96.3675 131.296 96.9309C131.236 97.4822 131.175 98.0289 131.115 98.5687C130.992 99.6461 130.912 100.721 130.475 101.652C130.246 102.11 129.971 102.547 129.759 103.013C129.549 103.478 129.433 103.979 129.416 104.489C129.358 105.477 129.487 106.444 129.219 107.318C128.951 108.192 128.395 108.919 128.114 109.745C127.833 110.571 127.936 111.445 128.059 112.211C128.183 112.977 128.306 113.732 128.142 114.412C127.977 115.091 127.506 115.599 127.199 116.143C127.037 116.405 126.929 116.697 126.881 117.001C126.847 117.279 126.828 117.558 126.826 117.838C126.827 118.091 126.79 118.342 126.716 118.584C126.632 118.793 126.496 118.978 126.321 119.121C126.019 119.364 125.68 119.556 125.317 119.689C125.051 119.791 124.776 119.868 124.495 119.917C124.324 119.949 124.15 119.965 123.976 119.968C123.832 119.954 123.77 119.954 123.77 119.954Z" fill="#263238"/>
<path d="M131.863 89.7826C131.851 89.8071 131.842 89.8333 131.838 89.8604L131.783 90.0891C131.732 90.2927 131.671 90.5969 131.575 90.9766C131.478 91.3564 131.243 91.7864 131.044 92.3148C130.811 92.9096 130.608 93.5158 130.435 94.131C130.239 94.8173 130.067 95.5721 129.884 96.3865C129.729 97.2538 129.453 98.0953 129.065 98.8866C128.855 99.3029 128.608 99.7238 128.432 100.186C128.247 100.658 128.123 101.151 128.063 101.654C127.933 102.697 127.748 103.731 127.51 104.754C126.997 106.852 126.508 108.851 126.062 110.672C125.616 112.492 125.195 114.121 124.847 115.498C124.499 116.875 124.236 117.973 124.044 118.758C123.955 119.133 123.884 119.428 123.834 119.645C123.813 119.739 123.795 119.814 123.781 119.874C123.779 119.901 123.779 119.927 123.781 119.954C123.794 119.93 123.804 119.905 123.811 119.879C123.827 119.817 123.85 119.744 123.877 119.65C123.934 119.437 124.015 119.142 124.117 118.769C124.323 117.991 124.614 116.887 124.973 115.526C125.332 114.165 125.751 112.518 126.22 110.708C126.689 108.899 127.164 106.886 127.681 104.786C127.918 103.761 128.099 102.723 128.221 101.677C128.28 101.186 128.399 100.704 128.578 100.243C128.759 99.7856 128.99 99.3762 129.2 98.9553C129.658 98.1203 129.838 97.2237 130.019 96.4162C130.2 95.6087 130.36 94.8447 130.547 94.1631C130.735 93.4814 130.932 92.8729 131.128 92.3468C131.325 91.8207 131.543 91.3861 131.636 90.9927C131.73 90.5992 131.774 90.3064 131.815 90.096C131.83 90.0014 131.844 89.9252 131.856 89.8672C131.863 89.81 131.867 89.7826 131.863 89.7826Z" fill="#263238"/>
<path d="M124.222 119.965C125.894 118.97 126.375 115.951 125.677 114.135C124.979 112.318 123.758 110.658 123.57 108.72C123.424 107.231 123.914 105.703 123.57 104.248C123.101 102.283 121.185 100.762 121.207 98.7425C121.219 97.6102 121.864 96.5443 121.811 95.412C121.75 94.0258 120.684 92.9232 120.025 91.7017C119.014 89.8283 118.947 87.6163 118.602 85.5256C118.257 83.4349 117.458 81.1795 115.596 80.1478C115.322 81.9297 114.853 83.1512 114.999 85.5645C115.054 86.4314 116.061 88.0807 116.198 89.9907C116.28 91.1344 116.335 92.2644 116.406 93.399C116.477 94.5336 116.546 95.6316 116.941 96.6655C117.246 97.4592 117.733 98.1798 117.959 98.9987C118.382 100.538 117.824 102.201 118.167 103.766C118.458 105.088 119.373 106.225 119.561 107.565C119.821 109.448 118.604 111.406 119.227 113.201C119.538 114.094 120.27 114.803 120.478 115.729C120.64 116.443 120.464 117.2 120.61 117.916C120.839 119.073 123.049 119.975 124.227 119.899" fill="#4D40D6"/>
<path d="M116.054 81.9069C116.051 81.9403 116.051 81.974 116.054 82.0075C116.054 82.083 116.077 82.1791 116.091 82.3003C116.13 82.5588 116.173 82.9362 116.26 83.4257C116.347 83.9152 116.608 84.4688 116.809 85.1367C117.01 85.8047 117.234 86.5687 117.422 87.4242C117.61 88.2797 117.774 89.2336 117.941 90.256C118.108 91.2785 118.291 92.3925 118.799 93.4585C119.028 93.9915 119.298 94.5267 119.485 95.0986C119.677 95.6839 119.796 96.291 119.838 96.9057C119.931 98.2098 120.095 99.5079 120.329 100.794C120.842 103.434 121.329 105.948 121.773 108.238C122.216 110.527 122.663 112.57 123.019 114.299C123.376 116.029 123.669 117.41 123.873 118.385L124.101 119.494C124.129 119.613 124.149 119.707 124.168 119.78C124.174 119.814 124.183 119.847 124.195 119.879C124.199 119.845 124.199 119.811 124.195 119.778C124.181 119.702 124.165 119.609 124.145 119.487C124.094 119.222 124.024 118.847 123.934 118.371C123.742 117.394 123.477 115.999 123.131 114.277C122.786 112.554 122.377 110.489 121.921 108.208C121.466 105.927 121.006 103.404 120.492 100.767C120.257 99.4804 120.093 98.1823 119.998 96.8782C119.954 96.2508 119.832 95.6314 119.634 95.0345C119.43 94.4535 119.163 93.916 118.927 93.3853C118.424 92.3353 118.241 91.2396 118.067 90.2217C117.893 89.2038 117.726 88.2477 117.527 87.3876C117.328 86.5275 117.111 85.7589 116.887 85.1001C116.663 84.4414 116.413 83.8832 116.313 83.4051C116.212 82.9271 116.164 82.5428 116.116 82.2889C116.093 82.1699 116.075 82.0738 116.061 81.9984C116.06 81.9677 116.058 81.9372 116.054 81.9069Z" fill="#263238"/>
<path d="M196.722 34.1222H195.807C195.808 34.2259 195.788 34.3288 195.748 34.4246C195.708 34.5204 195.649 34.6073 195.575 34.68C195.501 34.7528 195.414 34.8099 195.317 34.8481C195.221 34.8862 195.117 34.9046 195.014 34.9022C194.86 34.9077 194.709 34.8652 194.581 34.7808C194.453 34.6963 194.355 34.574 194.3 34.431C194.252 34.3118 194.232 34.183 194.244 34.055C194.255 33.927 194.296 33.8034 194.364 33.6944C194.52 33.4382 194.858 33.2072 195.471 33.3147V31.256H194.572V32.4592C194.203 32.5678 193.88 32.7944 193.653 33.1043C193.425 33.4142 193.305 33.7903 193.312 34.1748C193.312 35.5061 194.506 35.8149 195.018 35.8149C195.409 35.824 196.741 35.7302 196.722 34.1222Z" fill="#4D40D6"/>
<path d="M194.565 30.8396H195.478V29.9864H194.565V30.8396Z" fill="#4D40D6"/>
<path d="M201.711 32.9052C201.714 32.8664 201.714 32.8274 201.711 32.7886C201.711 32.7062 201.711 32.5942 201.711 32.45C201.711 32.3768 201.711 32.2922 201.7 32.2007C201.688 32.1092 201.674 32.0086 201.658 31.9033C201.642 31.7981 201.626 31.6746 201.608 31.5534L201.512 31.1645C201.342 30.4948 201.064 29.8574 200.688 29.2774C200.143 28.4184 199.409 27.6958 198.54 27.1652C197.672 26.6347 196.694 26.3102 195.681 26.2167C195.377 26.1899 195.071 26.1838 194.766 26.1985C194.613 26.1985 194.455 26.1985 194.309 26.2282L193.838 26.2991C193.191 26.4193 192.565 26.6327 191.98 26.9327C191.369 27.256 190.808 27.665 190.313 28.1474C189.806 28.6611 189.382 29.2507 189.057 29.895C188.707 30.5592 188.478 31.2802 188.38 32.0246C188.351 32.2132 188.335 32.4034 188.332 32.5942C188.316 32.7851 188.313 32.9769 188.32 33.1683C188.37 34.3954 188.754 35.5857 189.43 36.6109V36.54C189.112 37.3337 188.798 38.1138 188.492 38.8732L188.437 39.0127L188.581 38.9716L191.074 38.2853L191.015 38.2716C191.855 38.9073 192.833 39.3353 193.87 39.5206C194.351 39.6102 194.841 39.6402 195.329 39.6098C195.564 39.6062 195.799 39.5841 196.031 39.5434L196.372 39.4908C196.484 39.4702 196.601 39.4359 196.701 39.4108C198.238 39.0214 199.586 38.0978 200.503 36.8053C200.845 36.3292 201.12 35.8081 201.32 35.2567C201.363 35.1355 201.404 35.028 201.443 34.9091C201.482 34.7901 201.503 34.6803 201.528 34.5774C201.553 34.4744 201.581 34.3692 201.603 34.2731C201.626 34.1771 201.633 34.0833 201.647 33.9941C201.667 33.8179 201.7 33.6624 201.706 33.5366C201.713 33.4108 201.706 33.2895 201.706 33.1935C201.706 33.0974 201.706 33.0379 201.706 32.9853C201.706 32.9327 201.706 32.9144 201.706 32.9144C201.703 32.9379 201.703 32.9618 201.706 32.9853C201.706 33.0379 201.706 33.1065 201.69 33.1935C201.674 33.2804 201.677 33.4016 201.667 33.5343C201.658 33.667 201.624 33.8225 201.597 33.9918C201.378 35.2578 200.797 36.4332 199.924 37.3753C199.05 38.3174 197.922 38.9855 196.676 39.2987C196.569 39.3238 196.461 39.3559 196.351 39.3764L196.015 39.4268C195.788 39.4646 195.559 39.4853 195.329 39.4885C194.85 39.5138 194.369 39.4823 193.897 39.3947C192.884 39.2084 191.93 38.7877 191.109 38.1664L191.081 38.1435H191.047L188.551 38.8297L188.638 38.9281L189.578 36.5972L189.592 36.5606L189.571 36.5263C189.121 35.8448 188.801 35.0854 188.629 34.2869C188.55 33.9164 188.503 33.5399 188.487 33.1614C188.48 32.9746 188.483 32.7874 188.499 32.601C188.5 32.4149 188.515 32.2291 188.544 32.0452C188.632 31.3183 188.848 30.6127 189.183 29.9613C189.501 29.3317 189.913 28.7546 190.406 28.2503C190.891 27.7768 191.441 27.3754 192.04 27.0585C192.612 26.7609 193.224 26.549 193.858 26.4295L194.316 26.3586C194.469 26.3357 194.622 26.338 194.773 26.3265C195.071 26.3124 195.37 26.3177 195.668 26.3426C196.664 26.4298 197.627 26.7429 198.485 27.2582C199.342 27.7734 200.071 28.4773 200.615 29.3162C200.993 29.8861 201.275 30.5134 201.452 31.1737L201.555 31.5579C201.576 31.6792 201.594 31.7867 201.613 31.9011C201.631 32.0154 201.645 32.1069 201.661 32.1984C201.677 32.2899 201.672 32.3723 201.679 32.4455C201.679 32.5873 201.697 32.6994 201.704 32.7817C201.7 32.823 201.702 32.8647 201.711 32.9052Z" fill="#263238"/>
<path d="M133.498 59.8811H146.708C146.708 59.8811 146.708 48.7892 158.234 48.5925C164.221 48.4873 167.325 52.4103 168.587 55.4137C170.051 58.9021 169.608 62.8776 167.645 66.1144C165.406 69.8086 160.579 73.5211 151.676 71.9519L151.592 101.385H164.655V83.9359C164.655 83.9359 182.976 79.2009 182.976 59.0027C182.976 39.6852 167.355 35.5129 158.957 35.243C154.286 35.0943 152.594 34.893 146.816 35.7142C139.452 36.7664 133.342 45.3169 133.498 59.8811Z" fill="#4D40D6"/>
<path d="M164.813 107.519H151.555V119.901H164.813V107.519Z" fill="#4D40D6"/>
<path opacity="0.1" d="M164.813 107.519H151.555V119.901H164.813V107.519Z" fill="black"/>
<path opacity="0.1" d="M133.498 59.8811H146.708C146.708 59.8811 146.708 48.7892 158.234 48.5925C164.221 48.4873 167.325 52.4103 168.587 55.4137C170.051 58.9021 169.608 62.8776 167.645 66.1144C165.406 69.8086 160.579 73.5211 151.676 71.9519L151.592 101.385H164.655V83.9359C164.655 83.9359 182.976 79.2009 182.976 59.0027C182.976 39.6852 167.355 35.5129 158.957 35.243C154.286 35.0943 152.594 34.893 146.816 35.7142C139.452 36.7664 133.342 45.3169 133.498 59.8811Z" fill="black"/>
<path d="M128.024 59.8812H141.236C141.236 59.8812 141.236 48.7893 152.763 48.5926C158.749 48.4874 161.853 52.4103 163.113 55.4138C164.58 58.9021 164.136 62.8777 162.173 66.1144C159.934 69.8087 155.023 73.1667 146.12 71.6043V101.385H159.183V83.936C159.183 83.936 177.504 79.2009 177.504 59.0028C177.504 39.6853 160.179 35.1996 152.765 35.1996C147.094 35.2064 127.775 36.5766 128.024 59.8812Z" fill="#4D40D6"/>
<path opacity="0.3" d="M128.024 59.8812H141.236C141.236 59.8812 141.236 48.7893 152.763 48.5926C158.749 48.4874 161.853 52.4103 163.113 55.4138C164.58 58.9021 164.136 62.8777 162.173 66.1144C159.934 69.8087 155.023 73.1667 146.12 71.6043V101.385H159.183V83.936C159.183 83.936 177.504 79.2009 177.504 59.0028C177.504 39.6853 160.179 35.1996 152.765 35.1996C147.094 35.2064 127.775 36.5766 128.024 59.8812Z" fill="black"/>
<path d="M159.342 107.519H146.084V119.901H159.342V107.519Z" fill="#4D40D6"/>
<path opacity="0.3" d="M159.342 107.519H146.084V119.901H159.342V107.519Z" fill="black"/>
<path d="M154.254 48.6521C154.188 48.6577 154.122 48.6577 154.057 48.6521C153.927 48.6521 153.739 48.6086 153.494 48.6063C152.802 48.5723 152.109 48.6014 151.422 48.6933C150.403 48.8222 149.401 49.0575 148.432 49.3955C147.861 49.5952 147.304 49.8352 146.767 50.1138C146.186 50.404 145.639 50.7577 145.136 51.1683C144.636 51.5826 144.189 52.0557 143.802 52.5773C143.436 53.0596 143.102 53.5655 142.803 54.0916C142.302 54.9877 141.906 55.9378 141.62 56.9235C141.426 57.5887 141.293 58.2701 141.222 58.9593C141.195 59.2018 141.188 59.3939 141.181 59.522C141.181 59.588 141.175 59.6539 141.163 59.7188C141.157 59.6533 141.157 59.5875 141.163 59.522C141.163 59.3917 141.163 59.1995 141.183 58.9547C141.236 58.2581 141.358 57.5685 141.547 56.896C141.822 55.8989 142.214 54.9377 142.714 54.0322C143.014 53.5002 143.349 52.989 143.718 52.5019C144.107 51.9717 144.56 51.4915 145.067 51.0722C145.576 50.656 146.13 50.2977 146.719 50.004C147.26 49.7203 147.82 49.4757 148.396 49.272C149.374 48.9353 150.385 48.7052 151.413 48.5857C152.104 48.5008 152.802 48.4847 153.497 48.5377C153.685 48.5498 153.873 48.5727 154.059 48.6063C154.125 48.617 154.19 48.6323 154.254 48.6521Z" fill="#263238"/>
<path d="M174.159 46.2981C174.159 46.2981 174.143 46.2821 174.115 46.2478C174.088 46.2135 174.047 46.154 174.001 46.0877L173.564 45.4701C173.47 45.3374 173.37 45.1841 173.251 45.0263L172.839 44.5254L172.368 43.9466C172.196 43.7453 171.995 43.5509 171.794 43.3382C171.592 43.1254 171.386 42.899 171.153 42.6817C170.92 42.4644 170.67 42.2425 170.414 42.0137C170.286 41.8994 170.16 41.785 170.023 41.6638L169.598 41.3275C169.307 41.0988 169.019 40.87 168.706 40.6413C167.34 39.664 165.891 38.8083 164.375 38.0839L163.17 37.5395L161.974 37.082C161.582 36.9196 161.184 36.8052 160.8 36.6771C160.416 36.549 160.041 36.4186 159.656 36.3294L158.563 36.0435C158.208 35.9497 157.856 35.8925 157.52 35.8148C157.184 35.737 156.859 35.6684 156.541 35.6295L155.626 35.4968C155.047 35.3984 154.516 35.3779 154.054 35.3321C153.826 35.3138 153.597 35.2886 153.407 35.2795L152.863 35.2658L152.108 35.2406H151.911H151.845C151.867 35.2372 151.889 35.2372 151.911 35.2406H152.108H152.863H153.409C153.608 35.2406 153.826 35.2681 154.059 35.2841C154.516 35.323 155.056 35.339 155.635 35.4328L156.55 35.5563C156.868 35.5929 157.193 35.6752 157.531 35.737C157.87 35.7987 158.218 35.8628 158.581 35.9657L159.679 36.2494C160.059 36.3363 160.434 36.4781 160.823 36.5948C161.212 36.7114 161.608 36.8235 161.999 36.9974L163.202 37.4549L164.414 38.0016C165.938 38.7276 167.392 39.5896 168.76 40.5772C169.076 40.806 169.364 41.0507 169.655 41.2772L170.08 41.586C170.218 41.7004 170.343 41.8147 170.471 41.9383L171.208 42.6245C171.437 42.8532 171.643 43.082 171.846 43.2901C172.05 43.4983 172.244 43.7019 172.416 43.9055L172.873 44.4888L173.28 44.9966C173.397 45.1567 173.495 45.3122 173.587 45.4541C173.765 45.7217 173.905 45.9321 174.003 46.0831L174.111 46.2501C174.129 46.264 174.145 46.2801 174.159 46.2981Z" fill="#263238"/>
<path d="M172.782 74.6625C172.755 74.712 172.722 74.7581 172.684 74.7997L172.368 75.1726C172.238 75.3396 172.073 75.5386 171.87 75.7604C171.666 75.9823 171.449 76.2431 171.183 76.513C170.918 76.7829 170.634 77.0849 170.312 77.3891C169.989 77.6933 169.639 78.0136 169.266 78.3476C167.631 79.7749 165.838 81.0113 163.923 82.0326C163.479 82.2614 163.061 82.4901 162.656 82.6663C162.251 82.8424 161.873 83.0231 161.526 83.1695C161.178 83.3159 160.858 83.4371 160.579 83.5446C160.3 83.6521 160.055 83.7391 159.854 83.8031L159.396 83.9518C159.343 83.9729 159.288 83.9882 159.231 83.9976C159.281 83.9693 159.333 83.9463 159.387 83.9289L159.844 83.7597C160.043 83.6887 160.284 83.5972 160.56 83.4829C160.837 83.3685 161.157 83.2541 161.501 83.0917C161.844 82.9293 162.223 82.7761 162.619 82.577C163.015 82.378 163.438 82.1676 163.88 81.9366C164.751 81.4562 165.691 80.8935 166.64 80.2438C167.59 79.5942 168.443 78.9103 169.202 78.2652C169.575 77.9358 169.932 77.627 170.25 77.3159C170.568 77.0048 170.865 76.7235 171.128 76.4535C171.392 76.1836 171.623 75.9343 171.828 75.7147C172.034 75.4951 172.204 75.303 172.341 75.1428L172.661 74.7791C172.698 74.737 172.739 74.698 172.782 74.6625Z" fill="#263238"/>
<path d="M158.952 100.346C158.918 100.346 158.891 96.6724 158.891 92.141C158.891 87.6095 158.918 83.9336 158.952 83.9336C158.987 83.9336 159.012 87.6072 159.012 92.141C159.012 96.6747 158.984 100.346 158.952 100.346Z" fill="#263238"/>
<path d="M159.455 119.062C159.421 119.062 159.396 116.484 159.396 113.304C159.396 110.125 159.421 107.545 159.455 107.545C159.489 107.545 159.514 110.123 159.514 113.304C159.514 116.486 159.487 119.062 159.455 119.062Z" fill="#263238"/>
<path d="M172.46 58.1266C172.231 58.5841 173.085 58.9593 173.576 59.108C174.078 59.2311 174.597 59.2667 175.111 59.2132C175.797 59.1766 176.5 59.1125 177.092 58.774C177.611 58.4526 178.026 57.9878 178.286 57.4358C178.543 56.8856 178.746 56.3118 178.892 55.7225C178.892 55.7225 173.487 56.0748 172.46 58.1266Z" fill="#4D40D6"/>
<g opacity="0.4">
<path d="M172.459 58.1266C172.23 58.5841 173.084 58.9593 173.575 59.108C174.077 59.2311 174.596 59.2667 175.11 59.2132C175.796 59.1766 176.499 59.1125 177.091 58.774C177.61 58.4526 178.025 57.9878 178.285 57.4358C178.542 56.8856 178.745 56.3118 178.891 55.7225C178.891 55.7225 173.486 56.0748 172.459 58.1266Z" fill="black"/>
</g>
<path d="M187.726 56.6626C188.617 57.2946 189.685 57.6293 190.778 57.6187C191.301 57.6479 191.818 57.4853 192.23 57.1612C192.406 56.9988 192.539 56.793 192.72 56.6374C192.843 56.5322 192.987 56.4521 193.104 56.3401C193.166 56.287 193.213 56.2196 193.242 56.1438C193.271 56.0679 193.281 55.986 193.271 55.9054C193.226 55.7068 193.115 55.5293 192.955 55.4022C192.335 55.0499 191.594 55.0637 190.881 55.0797C190.166 55.1106 189.461 55.2486 188.788 55.4891C188.234 55.6767 187.655 55.9466 187.374 56.4499" fill="#4D40D6"/>
<g opacity="0.4">
<path d="M193.272 55.9055C193.191 55.7126 193.049 55.5518 192.867 55.448C192.247 55.0958 191.595 55.0637 190.882 55.0798C190.167 55.1107 189.462 55.2487 188.789 55.4892C188.235 55.6768 187.656 55.9467 187.375 56.4499L187.727 56.6627C188.618 57.2947 189.686 57.6294 190.779 57.6188C191.302 57.648 191.819 57.4854 192.231 57.1613C192.407 56.9989 192.54 56.7931 192.721 56.6375C192.844 56.5323 192.988 56.4522 193.105 56.3401C193.167 56.2871 193.214 56.2197 193.243 56.1438C193.272 56.068 193.282 55.9861 193.272 55.9055Z" fill="black"/>
</g>
<path d="M177.172 64.8723L188.575 65.0233C188.598 65.0232 188.621 65.0178 188.641 65.0073C188.662 64.9968 188.68 64.9816 188.694 64.9629C188.708 64.9442 188.717 64.9226 188.721 64.8997C188.725 64.8768 188.723 64.8534 188.716 64.8312L187.378 60.6589C187.378 60.6589 187.575 58.5727 187.847 56.0657C188.261 52.2571 188.812 47.4694 188.819 47.4831C188.039 45.2963 183.437 44.9258 183.437 44.9258L178.192 45.2369L178.009 44.9281L176.499 45.6303C176.17 45.7835 175.853 45.9625 175.552 46.1656C174.555 46.8312 172.153 48.3615 171.714 50.0657C170.7 54.0115 172.416 58.4149 172.416 58.4149L173.519 57.5525C173.796 57.3385 174.088 57.1436 174.392 56.9692L176.602 62.8914C176.471 62.9743 176.359 63.0855 176.276 63.2169C176.193 63.3482 176.14 63.4965 176.122 63.6508C176.103 64.1312 176.35 64.7076 177.172 64.8723Z" fill="#4D40D6"/>
<g opacity="0.3">
<path d="M182.064 57.891C182.425 55.9467 182.235 53.9474 182.041 51.9802C181.409 53.5814 181.432 55.4114 180.762 56.9989C180.68 57.1665 180.62 57.3442 180.584 57.5273C180.566 57.6193 180.571 57.7141 180.597 57.8039C180.623 57.8938 180.67 57.9761 180.735 58.0443C180.918 58.2112 181.192 58.1197 181.435 58.0923C181.652 58.0509 181.863 57.9833 182.064 57.891Z" fill="black"/>
</g>
<g opacity="0.4">
<path d="M177.857 62.3928C178.772 62.7108 179.746 62.1183 180.714 62.0131C181.355 61.9445 181.995 62.0909 182.631 62.1938C183.917 62.4018 185.225 62.4341 186.52 62.2899C186.718 62.279 186.913 62.2284 187.091 62.1412C187.184 62.0782 187.259 61.9936 187.312 61.8947C187.364 61.7959 187.391 61.6857 187.391 61.5739C185.236 61.3452 183.084 61.2216 180.929 60.9998C180.393 60.9082 179.843 60.9261 179.314 61.0524C178.664 61.2537 178.17 61.7638 177.713 62.2693" fill="black"/>
</g>
<path d="M192.941 55.1551C192.01 53.0576 188.728 47.2566 188.728 47.2566L186.187 50.443L186.779 56.6992C186.779 56.6992 188.122 55.2009 191.875 55.1712C192.148 55.1821 192.415 55.2539 192.657 55.3813C192.898 55.5088 193.108 55.6886 193.271 55.9077L192.941 55.1551Z" fill="#4D40D6"/>
<path d="M177.683 54.0459C177.501 53.6011 177.357 53.1421 177.253 52.6734C177.11 52.2169 177.006 51.7494 176.941 51.2758C177.12 51.7212 177.263 52.1801 177.369 52.6482C177.511 53.1049 177.616 53.5723 177.683 54.0459Z" fill="#263238"/>
<path d="M185.994 50.0199C186.077 50.0784 186.153 50.145 186.223 50.2189C186.425 50.4141 186.614 50.6219 186.79 50.8411C187.381 51.5641 187.797 52.4144 188.005 53.3253C188.112 53.8288 188.136 54.3466 188.075 54.8578C188.018 55.3268 187.929 55.7385 187.87 56.0862C187.81 56.4339 187.774 56.7175 187.755 56.9143C187.755 57.0165 187.744 57.1184 187.723 57.2185C187.707 57.1164 187.702 57.0128 187.709 56.9097C187.72 56.6294 187.746 56.3499 187.787 56.0725C187.835 55.7225 187.915 55.3062 187.968 54.8464C188.021 54.3467 187.994 53.8417 187.888 53.3504C187.683 52.4566 187.286 51.6182 186.724 50.8937C186.305 50.331 185.976 50.0382 185.994 50.0199Z" fill="#263238"/>
<path d="M183.665 64.369C183.586 64.4045 183.502 64.4291 183.416 64.4422C183.318 64.468 183.219 64.4871 183.119 64.4994C183.002 64.5154 182.869 64.5406 182.721 64.5475C182.372 64.5794 182.021 64.5794 181.673 64.5475C181.246 64.5036 180.825 64.4194 180.415 64.2958C180.006 64.1646 179.611 63.9953 179.234 63.7903C178.929 63.6198 178.639 63.4231 178.368 63.2024C178.249 63.1109 178.152 63.0149 178.066 62.9348C177.991 62.8673 177.92 62.7955 177.853 62.7198C177.789 62.6609 177.735 62.5931 177.69 62.5185C177.706 62.5025 177.951 62.777 178.42 63.1361C178.694 63.3445 178.984 63.5312 179.287 63.6942C179.66 63.89 180.048 64.053 180.449 64.1815C180.853 64.303 181.266 64.3887 181.684 64.4377C182.026 64.4744 182.37 64.4851 182.714 64.4697C183.302 64.4377 183.661 64.3507 183.665 64.369Z" fill="#263238"/>
<path d="M187.186 63.0698C187.24 63.1733 187.271 63.2873 187.276 63.4038C187.312 63.6826 187.291 63.966 187.214 64.2364C187.135 64.513 186.976 64.7599 186.756 64.9455C186.589 65.0851 186.461 65.1285 186.454 65.1171C186.448 65.1057 186.555 65.0302 186.699 64.8883C186.884 64.6954 187.019 64.4596 187.09 64.2021C187.273 63.5982 187.143 63.0721 187.186 63.0698Z" fill="#263238"/>
<path d="M186.566 63.875C186.615 64.1103 186.596 64.3549 186.509 64.5791C186.422 64.8033 186.272 64.9973 186.076 65.1377C186.051 65.1125 186.264 64.8861 186.397 64.5361C186.529 64.1861 186.531 63.8773 186.566 63.875Z" fill="#263238"/>
<path d="M184.526 56.3492C184.405 56.5542 184.269 56.7499 184.119 56.9348C184.001 57.1414 183.867 57.3387 183.719 57.525C183.763 57.2836 183.867 57.0571 184.021 56.8662C184.143 56.6538 184.317 56.4759 184.526 56.3492Z" fill="#263238"/>
<path d="M176.698 50.809C176.524 50.7067 176.355 50.5952 176.193 50.475C175.379 49.9406 174.456 49.5958 173.491 49.4663C173.289 49.4516 173.088 49.4248 172.89 49.3862C173.092 49.3582 173.298 49.3582 173.5 49.3862C174.491 49.4708 175.441 49.8243 176.245 50.4087C176.414 50.5205 176.567 50.6552 176.698 50.809Z" fill="#263238"/>
<path d="M188.727 47.1813C188.318 47.511 187.936 47.8728 187.584 48.2632C187.26 48.68 186.97 49.1221 186.717 49.5854C186.744 49.4296 186.797 49.2795 186.875 49.1416C187.04 48.7986 187.248 48.4775 187.492 48.1855C187.738 47.8941 188.019 47.635 188.329 47.4146C188.448 47.3145 188.582 47.2355 188.727 47.1813Z" fill="#263238"/>
<path d="M184.02 45.2961C184.041 45.3291 184.058 45.3645 184.07 45.4014C184.115 45.505 184.151 45.6121 184.178 45.7216C184.274 46.1292 184.274 46.5538 184.178 46.9614C184.035 47.5699 183.71 48.1201 183.244 48.5375C182.657 49.0348 181.909 49.3015 181.14 49.2877C180.37 49.2904 179.62 49.0441 179.001 48.5855C178.508 48.2092 178.108 47.7248 177.832 47.1696C177.646 46.7978 177.515 46.401 177.443 45.9915C177.422 45.8812 177.409 45.7697 177.402 45.6576C177.396 45.6182 177.396 45.578 177.402 45.5386C177.402 45.5386 177.427 45.6987 177.492 45.9824C177.58 46.3803 177.721 46.7648 177.91 47.1261C178.189 47.6646 178.585 48.1336 179.07 48.4986C179.666 48.9399 180.387 49.1803 181.129 49.1848C181.87 49.1984 182.592 48.9451 183.162 48.4711C183.611 48.069 183.93 47.5416 184.077 46.9568C184.179 46.5621 184.193 46.1498 184.118 45.7491C184.075 45.4471 184.006 45.3007 184.02 45.2961Z" fill="#263238"/>
<g opacity="0.3">
<path d="M184.821 56.7542C184.821 56.6398 184.803 56.5049 184.702 56.4477C184.67 56.4316 184.635 56.4232 184.599 56.4232C184.564 56.4232 184.528 56.4316 184.496 56.4477C184.433 56.4823 184.376 56.5289 184.33 56.5849C184.061 56.8648 183.853 57.1974 183.719 57.5617L184.84 57.4633C184.833 57.2323 184.828 56.9898 184.821 56.7542Z" fill="black"/>
</g>
<g opacity="0.3">
<path d="M188.543 54.3959C188.43 53.7545 188.149 53.1546 187.729 52.6575C188.213 54.2404 188.051 55.1348 187.779 56.219L187.838 56.0681C188.152 55.4344 188.627 55.0364 188.543 54.3959Z" fill="black"/>
</g>
<path d="M186.303 107.57L185.619 117.829L181.158 117.776L180.456 107.11L186.303 107.57Z" fill="#FFBE9D"/>
<path d="M185.744 116.48V116.777C185.744 116.777 190.777 118.799 190.825 119.751L180.831 119.696L180.987 116.372C182.476 117.07 184.033 117.157 185.744 116.48Z" fill="#4D40D6"/>
<path d="M182.001 117.438C181.906 117.467 181.825 117.529 181.773 117.613C181.721 117.697 181.701 117.798 181.718 117.895C181.742 117.993 181.803 118.077 181.889 118.131C181.974 118.184 182.077 118.202 182.175 118.181C182.277 118.151 182.364 118.084 182.419 117.993C182.474 117.902 182.493 117.794 182.472 117.69C182.436 117.591 182.363 117.51 182.268 117.464C182.173 117.419 182.064 117.412 181.965 117.445" fill="white"/>
<path d="M180.831 119.696L180.868 118.897L190.438 119.245C190.438 119.245 190.882 119.442 190.829 119.753L180.831 119.696Z" fill="#263238"/>
<path d="M185.782 116.804C185.782 116.852 185.535 116.873 185.295 117.033C185.055 117.193 184.924 117.392 184.881 117.374C184.837 117.355 184.91 117.072 185.205 116.889C185.501 116.706 185.793 116.752 185.782 116.804Z" fill="#263238"/>
<path d="M186.826 117.243C186.838 117.291 186.625 117.371 186.458 117.577C186.291 117.783 186.243 118.001 186.193 117.998C186.142 117.996 186.115 117.719 186.328 117.47C186.54 117.221 186.824 117.209 186.826 117.243Z" fill="#263238"/>
<path d="M187.415 118.502C187.369 118.502 187.303 118.273 187.431 118.001C187.559 117.729 187.785 117.63 187.806 117.669C187.827 117.708 187.685 117.852 187.577 118.074C187.47 118.296 187.465 118.497 187.415 118.502Z" fill="#263238"/>
<path d="M185.489 32.5392C185.747 31.8987 185.434 31.1233 184.878 30.7092C184.292 30.3236 183.578 30.1847 182.89 30.3227C182.212 30.4649 181.555 30.6956 180.937 31.0089C180.649 30.7189 180.287 30.5146 179.89 30.4187C179.493 30.3228 179.077 30.3391 178.689 30.4658C178.301 30.5925 177.956 30.8246 177.692 31.1362C177.428 31.4478 177.256 31.8267 177.195 32.2304C176.947 32.1681 176.688 32.1744 176.444 32.2485C176.2 32.3226 175.98 32.4618 175.809 32.6511C175.638 32.8403 175.522 33.0726 175.473 33.3229C175.424 33.5732 175.445 33.8321 175.532 34.0718L178.624 35.1583L182.001 41.1057C182.499 41.5314 183.136 41.761 183.792 41.7517C184.448 41.7424 185.078 41.4949 185.565 41.0552C186.051 40.6155 186.362 40.0138 186.437 39.3623C186.513 38.7108 186.349 38.0539 185.976 37.5144C186.165 37.3462 186.326 37.1484 186.452 36.9288C186.722 36.7693 186.957 36.5577 187.144 36.3064C187.332 36.055 187.467 35.769 187.543 35.4649C187.843 34.1404 186.818 32.6948 185.489 32.5392Z" fill="#263238"/>
<path d="M183.442 44.9257C183.25 43.9581 183.117 43.2947 183.119 43.3016C183.122 43.3085 184.949 42.5925 184.817 40.0466C184.753 38.7793 184.27 36.7824 183.822 35.1629C183.419 33.7035 182.058 32.0954 180.619 32.5597L176.257 34.6871C175.82 34.8289 175.745 35.2406 175.848 35.6867V35.9154L177.543 42.9287L178.259 46.0626C178.411 46.706 178.799 47.2691 179.346 47.6408C179.893 48.0125 180.559 48.1659 181.214 48.0709C181.571 48.0207 181.915 47.8979 182.223 47.7101C182.531 47.5223 182.798 47.2736 183.007 46.979C183.215 46.6845 183.361 46.3504 183.436 45.9973C183.511 45.6442 183.513 45.2796 183.442 44.9257Z" fill="#FFBE9D"/>
<path d="M183.805 36.8556C183.823 36.9367 183.81 37.0219 183.767 37.0934C183.725 37.1649 183.656 37.2173 183.576 37.2399C183.536 37.2512 183.493 37.2541 183.452 37.2487C183.41 37.2432 183.37 37.2293 183.334 37.208C183.298 37.1866 183.267 37.1581 183.242 37.1243C183.217 37.0905 183.199 37.052 183.19 37.0111C183.171 36.9303 183.185 36.8454 183.227 36.7743C183.27 36.7032 183.338 36.6512 183.418 36.6291C183.459 36.6175 183.501 36.6141 183.542 36.6193C183.584 36.6245 183.624 36.6381 183.66 36.6593C183.696 36.6805 183.728 36.7088 183.753 36.7426C183.778 36.7763 183.795 36.8148 183.805 36.8556Z" fill="#263238"/>
<path d="M183.606 36.3684C183.574 36.4187 183.298 36.2929 182.959 36.3684C182.62 36.4439 182.405 36.6635 182.36 36.6292C182.314 36.5948 182.36 36.5308 182.453 36.4301C182.579 36.2972 182.743 36.2061 182.922 36.1694C183.099 36.1312 183.284 36.1513 183.449 36.2266C183.577 36.2792 183.62 36.3478 183.606 36.3684Z" fill="#263238"/>
<path d="M180.484 37.6059C180.502 37.6867 180.488 37.7716 180.446 37.8427C180.403 37.9138 180.335 37.9658 180.255 37.9879C180.215 37.9994 180.174 38.0029 180.133 37.9983C180.092 37.9937 180.053 37.9811 180.017 37.9611C179.981 37.9411 179.949 37.9141 179.924 37.8818C179.898 37.8495 179.879 37.8125 179.868 37.7729C179.85 37.6917 179.863 37.6066 179.906 37.5351C179.949 37.4636 180.017 37.4111 180.097 37.3886C180.137 37.3771 180.178 37.3737 180.219 37.3784C180.26 37.3832 180.3 37.396 180.336 37.4163C180.372 37.4365 180.403 37.4637 180.429 37.4962C180.454 37.5288 180.473 37.566 180.484 37.6059Z" fill="#263238"/>
<path d="M180.317 37.1758C180.288 37.2261 180.008 37.098 179.67 37.1758C179.331 37.2535 179.116 37.4686 179.071 37.4365C179.025 37.4045 179.071 37.3382 179.164 37.2352C179.291 37.1034 179.454 37.0133 179.633 36.9768C179.81 36.9392 179.994 36.9584 180.159 37.0317C180.281 37.0866 180.333 37.1483 180.317 37.1758Z" fill="#263238"/>
<path d="M182.039 39.326C182.207 39.2334 182.385 39.1613 182.57 39.1109C182.655 39.0835 182.735 39.0492 182.737 38.9874C182.725 38.8964 182.686 38.8112 182.625 38.7427L182.229 38.1342C181.676 37.2673 181.255 36.549 181.289 36.533C181.323 36.517 181.801 37.1964 182.355 38.0633L182.742 38.6763C182.818 38.7701 182.859 38.8873 182.858 39.008C182.851 39.0409 182.837 39.0719 182.817 39.0988C182.797 39.1257 182.771 39.1478 182.742 39.1636C182.697 39.1872 182.649 39.2049 182.6 39.2162C182.419 39.2781 182.23 39.3151 182.039 39.326Z" fill="#263238"/>
<path d="M183.119 43.3017C181.962 43.5632 180.755 43.4983 179.633 43.1141C179.633 43.1141 180.831 44.6787 183.249 43.9308L183.119 43.3017Z" fill="#EB996E"/>
<path d="M180.375 36.691C180.352 36.7894 180.002 36.7871 179.604 36.8855C179.206 36.9838 178.89 37.1325 178.826 37.0547C178.799 37.0181 178.844 36.9221 178.966 36.826C179.127 36.6903 179.318 36.5953 179.524 36.5492C179.728 36.5009 179.94 36.5009 180.144 36.5492C180.306 36.5789 180.391 36.6453 180.375 36.691Z" fill="#263238"/>
<path d="M183.476 35.2889C183.421 35.3804 183.129 35.3575 182.79 35.4238C182.451 35.4902 182.184 35.6046 182.104 35.5382C182.067 35.5039 182.104 35.417 182.202 35.3095C182.353 35.1824 182.536 35.0987 182.731 35.067C182.922 35.0284 183.121 35.0426 183.305 35.1082C183.444 35.1722 183.499 35.2431 183.476 35.2889Z" fill="#263238"/>
<path d="M177.334 33.0493C177.385 33.2971 177.49 33.5307 177.641 33.7335C177.792 33.9364 177.986 34.1034 178.209 34.2229C178.432 34.3423 178.678 34.4112 178.931 34.4246C179.183 34.438 179.436 34.3957 179.67 34.3005C180.031 34.1541 180.407 33.8797 180.773 34.0123C181.139 34.145 181.289 34.6665 181.639 34.861C182.154 35.1492 182.783 34.6505 183.357 34.7008C183.815 34.7397 184.16 35.0897 184.515 35.3871C184.869 35.6845 185.359 35.9086 185.759 35.6936C185.667 35.3116 185.532 34.9416 185.354 34.5911C185.175 34.2382 184.879 33.9584 184.517 33.7996C184.316 33.7195 184.098 33.6921 183.906 33.5937C183.492 33.3833 183.307 32.9075 183.007 32.5484C182.811 32.322 182.563 32.1459 182.284 32.0345C182.006 31.9231 181.705 31.8797 181.406 31.9079C180.912 31.9582 180.443 32.2075 179.944 32.1869C179.576 32.1709 179.224 32.0062 178.856 32.0131C178.14 32.0131 177.602 32.6536 177.204 33.2506" fill="#263238"/>
<path d="M179.745 33.5731C179.415 33.5479 178.743 33.4793 178.521 33.246C178.296 32.9939 178.008 32.8054 177.687 32.6994C177.366 32.5934 177.022 32.5737 176.691 32.6421C176.362 32.7401 176.074 32.941 175.868 33.2153C175.662 33.4895 175.55 33.8226 175.547 34.1656C175.147 34.2632 174.781 34.4672 174.487 34.7559C174.193 35.0445 173.982 35.4072 173.878 35.8057C173.771 36.2227 173.767 36.6594 173.867 37.0782C173.967 37.497 174.167 37.8853 174.449 38.2098C174.587 38.3816 174.712 38.5627 174.825 38.7519C174.669 38.9443 174.533 39.1511 174.417 39.3695C173.894 40.527 175.314 40.9707 175.314 40.9707C175.314 41.7485 176.035 41.7439 176.494 41.7416C176.954 41.7393 177.208 42.9677 177.567 42.9196L177.203 39.1293C177.257 39.15 177.313 39.1609 177.37 39.1613C178.237 39.1774 178.011 37.535 177.732 37.1026C177.99 36.7811 178.208 36.4293 178.382 36.055C178.539 35.4828 178.55 34.8804 178.414 34.3028C178.704 34.2662 179.887 33.5823 179.745 33.5731Z" fill="#263238"/>
<path d="M177.318 39.3307C177.288 39.2103 177.229 39.0993 177.145 39.0081C177.061 38.9169 176.955 38.8485 176.837 38.8092C176.72 38.7699 176.594 38.761 176.472 38.7834C176.35 38.8058 176.236 38.8588 176.14 38.9373C175.911 39.134 175.79 39.4634 175.927 40.0147C176.298 41.4878 177.7 40.813 177.691 40.7718C177.681 40.7306 177.478 39.9392 177.318 39.3307Z" fill="#FFBE9D"/>
<path d="M177.102 40.3257C177.102 40.3257 177.081 40.3509 177.042 40.3806C176.988 40.4221 176.92 40.4409 176.852 40.4332C176.683 40.4149 176.489 40.2045 176.415 39.9368C176.381 39.8118 176.373 39.6806 176.395 39.5526C176.397 39.5028 176.411 39.4544 176.437 39.4113C176.462 39.3683 176.497 39.332 176.539 39.3055C176.567 39.2905 176.599 39.2858 176.63 39.292C176.661 39.2983 176.688 39.3152 176.708 39.3398C176.738 39.3741 176.736 39.4062 176.745 39.4084C176.754 39.4107 176.77 39.3741 176.745 39.317C176.727 39.283 176.699 39.2557 176.665 39.2392C176.616 39.2196 176.562 39.2196 176.514 39.2392C176.456 39.2665 176.407 39.3078 176.37 39.3594C176.332 39.411 176.309 39.4711 176.301 39.5343C176.271 39.6783 176.277 39.8274 176.317 39.9689C176.343 40.1017 176.407 40.224 176.502 40.3205C176.596 40.4169 176.718 40.4832 176.85 40.511C176.893 40.5127 176.936 40.5048 176.976 40.4878C177.015 40.4708 177.05 40.4451 177.079 40.4126C177.109 40.3623 177.109 40.328 177.102 40.3257Z" fill="#EB996E"/>
<path d="M185.217 37.2742C185.217 37.2742 185.352 37.1712 185.54 36.9425C185.799 36.6129 185.958 36.2159 185.997 35.7988C186.028 35.514 186 35.226 185.915 34.9524C185.817 34.6386 185.636 34.3571 185.391 34.1381C185.108 33.8909 184.766 33.7221 184.397 33.6483C184.029 33.5744 183.648 33.5982 183.291 33.7172C183.223 33.7401 183.159 33.7744 183.095 33.8018C183.031 33.8293 182.973 33.8704 182.914 33.9047L182.822 33.9551V33.8544C182.821 33.6772 182.755 33.5067 182.637 33.3741C182.517 33.2454 182.369 33.1453 182.205 33.0813C181.894 32.9518 181.55 32.9261 181.224 33.0081C180.592 33.1522 180.057 33.4404 179.551 33.4999C179.155 33.5688 178.747 33.4872 178.408 33.2711C178.318 33.2095 178.241 33.132 178.179 33.0424C178.142 32.9806 178.124 32.9463 178.129 32.944C178.212 33.057 178.313 33.1552 178.428 33.2345C178.762 33.4273 179.155 33.4931 179.533 33.4198C179.797 33.3702 180.054 33.2936 180.302 33.1911C180.592 33.0749 180.89 32.9778 181.194 32.9006C181.363 32.8596 181.537 32.8419 181.711 32.8479C181.894 32.8576 182.075 32.8994 182.244 32.9715C182.419 33.0462 182.575 33.1587 182.701 33.3009C182.837 33.4557 182.913 33.6534 182.916 33.859L182.825 33.8087L183.015 33.6989C183.086 33.6714 183.152 33.6348 183.225 33.6097C183.601 33.481 184.004 33.4541 184.393 33.5317C184.782 33.6092 185.144 33.7885 185.442 34.0511C185.699 34.284 185.887 34.5831 185.986 34.9158C186.089 35.2684 186.102 35.6408 186.026 36.0001C185.95 36.3593 185.786 36.694 185.549 36.9745C185.474 37.0605 185.389 37.1373 185.295 37.2032C185.272 37.2299 185.246 37.2538 185.217 37.2742Z" fill="#455A64"/>
<path d="M184.92 32.1023C184.77 32.0261 184.61 31.9714 184.444 31.9399C184.255 31.9141 184.063 31.9321 183.882 31.9925C183.647 32.0643 183.443 32.2124 183.303 32.4134L183.246 32.4935L183.211 32.402C183.092 32.1208 182.9 31.8765 182.654 31.6944C182.409 31.5123 182.12 31.3988 181.816 31.3658C181.339 31.3478 180.869 31.4842 180.476 31.7546C180.14 31.9731 179.784 32.157 179.412 32.3036C179.155 32.4007 178.879 32.4337 178.607 32.3997C178.534 32.3863 178.463 32.3664 178.394 32.3402C178.348 32.3196 178.323 32.3082 178.325 32.3036C178.328 32.2991 178.428 32.3334 178.614 32.3517C178.877 32.3681 179.14 32.3251 179.384 32.2259C179.746 32.0681 180.093 31.8783 180.421 31.6586C180.623 31.5329 180.838 31.4279 181.061 31.3452C181.307 31.2556 181.569 31.222 181.83 31.2468C182.154 31.2822 182.463 31.405 182.723 31.6019C182.983 31.7989 183.185 32.0628 183.307 32.3654H183.218C183.375 32.1504 183.6 31.9942 183.856 31.9216C184.051 31.8652 184.256 31.855 184.456 31.8919C184.582 31.9159 184.703 31.9623 184.813 32.0291C184.852 32.0483 184.888 32.0729 184.92 32.1023Z" fill="#455A64"/>
<path d="M181.906 40.0031C181.853 39.9584 181.791 39.9256 181.724 39.9067C181.657 39.8877 181.586 39.8832 181.518 39.8933C181.437 39.9105 181.361 39.9445 181.294 39.9929C181.228 40.0414 181.172 40.1033 181.131 40.1747C181.131 40.1747 181.12 40.1861 181.117 40.193C181.086 40.2452 181.071 40.306 181.076 40.3668C181.086 40.4331 181.112 40.4959 181.152 40.5497C181.192 40.6036 181.244 40.6468 181.305 40.6756C181.401 40.7246 181.511 40.7426 181.618 40.727C181.726 40.7115 181.825 40.6632 181.904 40.5887C181.979 40.5097 182.021 40.4052 182.021 40.2964C182.022 40.1876 181.981 40.0827 181.906 40.0031Z" fill="#4D40D6"/>
<path d="M182.021 40.7146C182.003 40.7146 181.983 40.6459 181.921 40.5521C181.846 40.4264 181.735 40.3265 181.602 40.266C181.469 40.2055 181.321 40.1872 181.177 40.2136C181.065 40.2296 180.997 40.2616 180.99 40.2456C180.983 40.2296 181.036 40.1747 181.159 40.1313C181.321 40.0792 181.496 40.089 181.651 40.1587C181.807 40.2283 181.931 40.3552 181.996 40.5133C182.044 40.6322 182.038 40.7123 182.021 40.7146Z" fill="#263238"/>
<path d="M177.353 40.9982C177.353 40.9982 177.419 41.1126 177.332 41.2864C177.283 41.3905 177.197 41.4721 177.09 41.5152C177.023 41.539 176.952 41.5471 176.882 41.5388C176.812 41.5304 176.744 41.5059 176.685 41.4671C176.625 41.4305 176.574 41.3805 176.536 41.321C176.498 41.2615 176.475 41.1941 176.468 41.124C176.461 41.011 176.494 40.8992 176.561 40.8084C176.68 40.6574 176.813 40.6528 176.813 40.6665C176.813 40.6803 176.712 40.7192 176.632 40.8564C176.586 40.9333 176.567 41.0235 176.577 41.1126C176.586 41.1648 176.606 41.2145 176.635 41.2584C176.665 41.3022 176.704 41.3391 176.749 41.3665C176.794 41.3951 176.844 41.4139 176.896 41.4218C176.949 41.4297 177.002 41.4264 177.053 41.4122C177.138 41.382 177.211 41.326 177.261 41.2521C177.351 41.1103 177.335 40.9982 177.353 40.9982Z" fill="#4D40D6"/>
<path d="M176.582 40.909C176.593 40.909 176.582 40.9868 176.474 41.0371C176.421 41.0591 176.363 41.0655 176.307 41.0555C176.251 41.0455 176.198 41.0197 176.156 40.9809C176.114 40.9422 176.084 40.8922 176.07 40.8369C176.055 40.7816 176.056 40.7233 176.074 40.6689C176.096 40.607 176.139 40.5546 176.195 40.5202C176.289 40.463 176.36 40.4859 176.358 40.4996C176.355 40.5133 176.303 40.5293 176.245 40.5865C176.217 40.6217 176.2 40.6643 176.196 40.7092C176.192 40.754 176.202 40.7991 176.223 40.8386C176.245 40.8782 176.277 40.9106 176.317 40.9316C176.357 40.9527 176.402 40.9615 176.447 40.9571C176.525 40.9411 176.566 40.8999 176.582 40.909Z" fill="#4D40D6"/>
<path d="M179.096 61.2237C179.096 61.2237 184.76 61.5531 188.109 61.5829C190.7 61.608 191.858 60.9195 192.375 59.252C192.809 57.8543 191.876 55.1711 191.876 55.1711C190.122 55.1711 189.04 55.4228 187.912 55.9512L188.212 57.1772L179.08 57.9641L179.096 61.2237Z" fill="#FFBE9D"/>
<path d="M190.114 58.4858C189.868 58.1664 189.581 57.881 189.261 57.6371C188.917 57.4266 188.546 57.2635 188.158 57.1522C188.28 57.1346 188.405 57.1456 188.522 57.1842C188.81 57.2522 189.083 57.3724 189.327 57.5388C189.572 57.7056 189.784 57.9166 189.952 58.1609C190.08 58.3485 190.128 58.4789 190.114 58.4858Z" fill="#EB996E"/>
<path d="M177.023 55.942C177.023 55.942 175.271 56.3628 173.983 57.2229L175.356 60.9423C175.813 62.1638 177.211 62.7723 178.33 62.1318C180.052 61.1459 180.66 58.2729 180.66 58.2729L182.552 50.0655L179.416 48.1006L177.035 55.942" fill="#FFBE9D"/>
<path d="M179.405 48.1008L179.533 45.4016L178.831 42.6567C178.792 42.5057 178.774 42.3158 178.897 42.2243C178.958 42.1774 179.034 42.1531 179.111 42.1556C179.188 42.1581 179.262 42.1872 179.32 42.2381C179.51 42.4348 180.425 44.8343 180.425 44.8343C180.425 44.8343 181.814 44.0017 182.061 43.9605C182.308 43.9193 182.617 44.6673 182.637 44.7245C182.646 44.8921 182.646 45.0601 182.637 45.2278C182.637 45.2278 183.495 45.2529 183.573 45.3696C183.635 45.6079 183.668 45.8529 183.671 46.0993C183.671 46.0993 184.035 46.2159 184.092 46.4904C184.149 46.7649 184.268 47.2178 184.092 47.3185C183.916 47.4191 183.559 47.6159 183.559 47.6159C183.559 47.6159 183.415 49.0158 183.376 49.1439C183.337 49.272 182.534 50.0589 182.534 50.0589L179.405 48.1008Z" fill="#FFBE9D"/>
<path d="M176.485 62.1869C176.485 62.1869 176.57 62.2372 176.748 62.2944C177.009 62.3762 177.285 62.3981 177.556 62.3584C177.991 62.2964 178.398 62.1088 178.727 61.8186C179.162 61.4236 179.53 60.96 179.816 60.4461C179.984 60.1441 180.126 59.828 180.239 59.5014C180.358 59.142 180.457 58.7762 180.534 58.4057C180.713 57.6348 180.907 56.8045 181.113 55.9215C181.525 54.1579 181.987 52.1861 182.485 50.0611V50.0451H182.497C182.655 49.8895 182.812 49.7317 182.97 49.567C183.048 49.4847 183.126 49.4023 183.199 49.3177C183.236 49.2742 183.274 49.2308 183.304 49.1873C183.327 49.1443 183.341 49.0966 183.343 49.0478C183.405 48.5903 183.453 48.1168 183.503 47.6387V47.609L183.531 47.5952L183.968 47.3505C184 47.3299 184.05 47.307 184.071 47.2887C184.092 47.2689 184.107 47.2423 184.112 47.2132C184.122 47.1374 184.122 47.0604 184.112 46.9845C184.09 46.8167 184.055 46.6508 184.009 46.4881C183.931 46.3458 183.8 46.2398 183.645 46.193L183.606 46.1793V46.1404C183.606 46.0077 183.592 45.8705 183.576 45.7355C183.57 45.6679 183.56 45.6007 183.547 45.5342C183.541 45.5049 183.532 45.4765 183.519 45.4496C183.519 45.4336 183.519 45.4496 183.506 45.4359C183.493 45.4294 183.48 45.424 183.467 45.4199C183.192 45.3599 182.911 45.3285 182.629 45.3261H182.57V45.2666C182.57 45.1248 182.57 44.967 182.57 44.8091C182.561 44.7553 182.542 44.7035 182.515 44.6559C182.492 44.601 182.465 44.5484 182.437 44.4935C182.384 44.3875 182.321 44.2865 182.25 44.1915C182.217 44.1473 182.178 44.1086 182.133 44.0771C182.116 44.0631 182.096 44.0543 182.075 44.0519C182.053 44.0494 182.031 44.0535 182.012 44.0634C181.901 44.1058 181.793 44.1555 181.689 44.2121C181.264 44.4408 180.848 44.6696 180.44 44.9166L180.381 44.9532L180.356 44.8892C180.141 44.3471 179.926 43.8118 179.715 43.288C179.61 43.0249 179.507 42.7619 179.402 42.5034C179.386 42.4455 179.353 42.3933 179.309 42.3528C179.264 42.3124 179.209 42.2853 179.15 42.2746C179.096 42.2565 179.036 42.2575 178.982 42.2774C178.928 42.2974 178.883 42.3351 178.853 42.3844C178.824 42.4335 178.812 42.4904 178.819 42.5468C178.819 42.5972 178.851 42.6749 178.864 42.7367C178.901 42.8694 178.935 42.9998 178.97 43.1301C179.038 43.3932 179.104 43.6517 179.173 43.9079C179.307 44.4233 179.439 44.9265 179.569 45.4176V45.4336C179.523 46.373 179.48 47.2727 179.438 48.1328V48.1282L177.355 54.9082L176.767 56.7954C176.698 57.0081 176.645 57.1751 176.609 57.2917C176.572 57.4084 176.549 57.4587 176.549 57.4587C176.549 57.4587 176.561 57.3992 176.593 57.2872L176.737 56.7862C176.87 56.3447 177.06 55.7065 177.3 54.8922C177.794 53.2544 178.496 50.9166 179.345 48.0985V48.1099C179.384 47.2529 179.425 46.3531 179.466 45.4107V45.4267C179.336 44.9349 179.201 44.4317 179.066 43.9193L178.86 43.1416C178.825 43.0112 178.791 42.8785 178.755 42.7481C178.735 42.6796 178.719 42.6102 178.706 42.54C178.698 42.4606 178.715 42.3805 178.755 42.3112C178.797 42.2399 178.862 42.185 178.94 42.1557C179.017 42.1332 179.098 42.1307 179.176 42.1483C179.254 42.1659 179.326 42.2031 179.386 42.2563C179.443 42.3102 179.486 42.3779 179.509 42.4531L179.823 43.2376C180.035 43.7638 180.248 44.299 180.466 44.8389L180.381 44.8091C180.79 44.5667 181.202 44.3242 181.637 44.0977C181.747 44.0403 181.86 43.9891 181.975 43.9445C182.011 43.9294 182.051 43.9239 182.09 43.9285C182.129 43.9341 182.166 43.9482 182.199 43.9696C182.254 44.0092 182.303 44.057 182.344 44.1115C182.42 44.2115 182.487 44.3188 182.543 44.4317C182.572 44.4889 182.6 44.5438 182.625 44.601C182.657 44.6615 182.679 44.7273 182.689 44.7954C182.689 44.9578 182.689 45.1088 182.689 45.2529L182.632 45.1911C182.926 45.1931 183.219 45.2268 183.506 45.2918C183.525 45.2987 183.544 45.3071 183.563 45.3169C183.588 45.3306 183.609 45.3513 183.622 45.3764C183.64 45.4135 183.653 45.4527 183.661 45.4931C183.675 45.5663 183.684 45.6349 183.693 45.7058C183.707 45.8453 183.716 45.9826 183.723 46.1198L183.682 46.0649C183.775 46.0924 183.862 46.1386 183.937 46.2007C184.012 46.2628 184.074 46.3396 184.119 46.4263C184.169 46.6002 184.205 46.7776 184.228 46.957C184.244 47.0486 184.244 47.1422 184.228 47.2338C184.218 47.2893 184.189 47.3395 184.146 47.3756C184.108 47.4008 184.07 47.4237 184.029 47.4443L183.595 47.6707L183.624 47.6273C183.572 48.1053 183.524 48.5743 183.46 49.0386L183.446 49.1278C183.441 49.1639 183.426 49.1979 183.403 49.2262C183.369 49.2763 183.331 49.3237 183.291 49.368C183.213 49.4549 183.135 49.5396 183.062 49.6219C182.904 49.7866 182.746 49.9444 182.586 50.1L182.602 50.0725C182.099 52.1953 181.632 54.1671 181.214 55.9307C181.005 56.8114 180.806 57.6417 180.623 58.4103C180.545 58.7836 180.444 59.1518 180.321 59.5128C180.204 59.8425 180.058 60.1616 179.887 60.4667C179.595 60.9871 179.218 61.4555 178.773 61.8529C178.434 62.145 178.016 62.3311 177.572 62.3882C177.295 62.4253 177.014 62.3971 176.751 62.3058C176.684 62.2812 176.619 62.2514 176.556 62.2166L176.485 62.1869Z" fill="#EB996E"/>
<path d="M182.639 45.2346C182.639 45.2506 182.562 45.2597 182.44 45.2643C182.286 45.2672 182.133 45.2856 181.983 45.3192C181.838 45.3549 181.704 45.4264 181.594 45.5274C181.512 45.6051 181.475 45.6715 181.457 45.6646C181.438 45.6578 181.457 45.5754 181.532 45.4702C181.639 45.337 181.787 45.2435 181.953 45.2048C182.113 45.1654 182.28 45.1576 182.443 45.182C182.566 45.198 182.639 45.2186 182.639 45.2346Z" fill="#EB996E"/>
<path d="M181.975 45.2597C181.946 45.2483 181.943 45.1774 181.975 45.1019C182.007 45.0264 182.053 44.9738 182.083 44.9852C182.113 44.9966 182.117 45.0676 182.083 45.143C182.049 45.2185 181.998 45.2711 181.975 45.2597Z" fill="#EB996E"/>
<path d="M183.708 46.0902C183.486 46.1589 183.255 46.1906 183.022 46.184C182.949 46.1815 182.876 46.1967 182.81 46.2281C182.744 46.2595 182.687 46.3064 182.642 46.3647C182.583 46.4585 182.604 46.5362 182.585 46.5408C182.567 46.5454 182.512 46.4653 182.569 46.3281C182.601 46.2508 182.658 46.1869 182.732 46.1474C182.816 46.1009 182.91 46.0728 183.006 46.065C183.24 46.0293 183.478 46.0378 183.708 46.0902Z" fill="#EB996E"/>
<path d="M183.558 46.9136C183.591 46.9136 183.609 47.0829 183.6 47.291C183.591 47.4992 183.556 47.6639 183.524 47.6639C183.492 47.6639 183.472 47.4923 183.481 47.2842C183.49 47.076 183.524 46.9113 183.558 46.9136Z" fill="#EB996E"/>
<path d="M184.508 53.0738L184.711 52.3738C184.721 52.3418 184.738 52.3127 184.762 52.2895C184.786 52.2662 184.816 52.2497 184.848 52.2414C184.88 52.233 184.914 52.2333 184.946 52.2421C184.979 52.2509 185.008 52.2679 185.032 52.2915L185.299 52.5637L185.464 51.9026C185.474 51.8644 185.495 51.8301 185.525 51.8044C185.555 51.7786 185.592 51.7627 185.631 51.7587C185.67 51.7547 185.709 51.7628 185.744 51.782C185.778 51.8012 185.806 51.8305 185.823 51.866L186.196 52.6483L184.508 53.0738Z" fill="white"/>
<path d="M186.2 52.9479C185.944 53.0715 185.673 53.1593 185.393 53.2086C185.122 53.2971 184.84 53.3464 184.556 53.355C185.082 53.1435 185.636 53.0065 186.2 52.9479Z" fill="white"/>
<path d="M172.597 49.0432C172.597 49.0432 172.512 49.1301 172.393 49.3154C172.234 49.5793 172.129 49.8725 172.085 50.1778C172.019 50.6323 172.006 51.0927 172.043 51.5503C172.069 52.0695 172.11 52.6368 172.174 53.2315C172.282 54.2472 172.443 55.2566 172.656 56.2555C172.737 56.6398 172.81 56.9418 172.86 57.1705C172.883 57.2666 172.903 57.3467 172.92 57.4153C172.936 57.4839 172.938 57.5022 172.938 57.5022C172.938 57.5022 172.926 57.4747 172.91 57.4198C172.894 57.3649 172.869 57.2689 172.844 57.1751C172.787 56.9624 172.709 56.6558 172.615 56.2716C172.393 55.2729 172.227 54.2626 172.119 53.2453C172.055 52.6505 172.016 52.0809 171.993 51.5617C171.958 51.1038 171.975 50.6434 172.043 50.1892C172.093 49.88 172.205 49.5841 172.373 49.32C172.435 49.2181 172.51 49.125 172.597 49.0432Z" fill="white"/>
<path d="M177.412 45.9277L177.359 45.9551L177.208 46.0283C177.078 46.0901 176.888 46.1816 176.661 46.3074C176.071 46.6366 175.498 46.9955 174.944 47.3825C174.289 47.84 173.711 48.2563 173.287 48.5582L172.787 48.9128L172.647 49.0066C172.631 49.019 172.615 49.0298 172.597 49.0386C172.61 49.0232 172.625 49.0101 172.642 48.9997L172.775 48.8991L173.267 48.5308C173.686 48.222 174.262 47.7919 174.916 47.3436C175.471 46.9549 176.049 46.599 176.645 46.2777C176.874 46.1564 177.066 46.0695 177.201 46.0123L177.355 45.9483C177.4 45.9322 177.4 45.9254 177.412 45.9277Z" fill="white"/>
<path d="M188.321 47.4168C188.307 47.4089 188.294 47.3989 188.282 47.3871L188.18 47.2979C188.052 47.1903 187.918 47.0902 187.779 46.9982C187.315 46.7021 186.822 46.4531 186.308 46.2548C185.796 46.0519 185.273 45.8778 184.741 45.7333C184.536 45.6761 184.371 45.6349 184.254 45.6075L184.124 45.5731C184.108 45.5699 184.093 45.5645 184.078 45.5571H184.126L184.259 45.5823C184.375 45.6052 184.542 45.6418 184.748 45.6944C185.285 45.8299 185.812 46.0002 186.327 46.2045C186.843 46.4027 187.337 46.6574 187.798 46.9639C187.989 47.0938 188.165 47.2458 188.321 47.4168Z" fill="white"/>
<path d="M177.476 64.8769C177.445 64.8714 177.415 64.8614 177.387 64.8471C177.307 64.8122 177.231 64.7709 177.158 64.7236C177.035 64.6498 176.928 64.5524 176.842 64.437C176.756 64.3216 176.694 64.1905 176.66 64.0511C176.597 63.7698 176.628 63.4757 176.749 63.2139C176.784 63.1326 176.828 63.0558 176.881 62.9852C176.918 62.9371 176.943 62.9143 176.945 62.9165C176.883 63.0141 176.827 63.1157 176.778 63.2208C176.672 63.4778 176.647 63.7613 176.708 64.0328C176.773 64.3009 176.936 64.535 177.165 64.6893C177.355 64.8266 177.481 64.8677 177.476 64.8769Z" fill="white"/>
<path d="M176.749 62.3995C176.798 62.4903 176.834 62.5873 176.857 62.6878C176.892 62.784 176.914 62.8849 176.921 62.9874C176.869 62.8987 176.832 62.8022 176.811 62.7015C176.773 62.605 176.752 62.503 176.749 62.3995Z" fill="white"/>
<path d="M179.841 113.686L186.818 113.652L186.692 89.531L186.626 64.9935L177.172 64.8723L175.472 68.0747C174.777 69.3622 174.333 70.7705 174.166 72.2242C174.052 73.3359 174.884 76.95 175.172 77.865L177.773 86.1136L179.841 113.686Z" fill="#263238"/>
<path d="M188.673 65.0234L196.341 85.9238C196.795 87.2705 196.946 88.7009 196.783 90.1127C196.619 91.5245 196.146 92.8827 195.396 94.09L186.493 111.475L181.488 105.212L188.936 89.657L182.371 79.0089L183.476 65.0555L186.569 65.0051L188.673 65.0234Z" fill="#263238"/>
<path d="M185.99 72.0251C185.99 72.0251 185.99 72.0617 185.99 72.1327C185.99 72.2036 186.002 72.3134 186.011 72.4483C186.027 72.7297 186.047 73.1346 186.075 73.6584C186.127 74.7175 186.201 76.2386 186.304 78.1166C186.407 79.9946 186.493 82.234 186.608 84.7273C186.663 85.9717 186.722 87.2779 186.782 88.632C186.825 89.3183 186.807 90.0045 186.814 90.6907C186.821 91.377 186.814 92.0998 186.814 92.8181C186.814 98.5664 186.832 103.77 186.839 107.542C186.839 109.423 186.839 110.946 186.839 112.005C186.839 112.529 186.839 112.936 186.839 113.22C186.839 113.352 186.839 113.449 186.839 113.535C186.839 113.622 186.839 113.643 186.839 113.643C186.839 113.643 186.839 113.606 186.839 113.535V113.22C186.839 112.936 186.839 112.534 186.825 112.005C186.825 110.946 186.807 109.425 186.793 107.545C186.777 103.773 186.757 98.5687 186.734 92.8203C186.734 92.1021 186.734 91.393 186.734 90.693C186.734 89.993 186.747 89.3022 186.704 88.6343C186.647 87.2824 186.59 85.9763 186.537 84.7319C186.432 82.2432 186.336 80.0038 186.258 78.1189C186.18 76.234 186.123 74.7198 186.079 73.6607C186.061 73.1391 186.047 72.732 186.038 72.4483C186.038 72.3134 186.038 72.2196 186.038 72.1327C186.038 72.0457 185.99 72.0251 185.99 72.0251Z" fill="#455A64"/>
<path d="M185.813 65.4351C185.84 65.5087 185.856 65.5857 185.862 65.6638C185.887 65.8102 185.914 66.0229 185.946 66.2883C186.006 66.8167 186.07 67.5509 186.106 68.363C186.143 69.175 186.145 69.9116 186.134 70.4446C186.134 70.7099 186.118 70.9272 186.106 71.0759C186.109 71.1531 186.099 71.2302 186.079 71.3047C186.05 71.0189 186.04 70.7316 186.049 70.4446C186.049 69.9116 186.024 69.1796 185.987 68.3676C185.951 67.5555 185.9 66.8258 185.862 66.3089C185.829 66.0187 185.813 65.727 185.813 65.4351Z" fill="#455A64"/>
<path d="M184.277 65.9062C184.288 65.9222 184.158 65.9817 184.121 66.1669C184.111 66.2172 184.114 66.2693 184.13 66.3181C184.145 66.367 184.173 66.411 184.211 66.446C184.256 66.4881 184.312 66.5163 184.373 66.5273C184.434 66.5382 184.497 66.5314 184.554 66.5078C184.608 66.4795 184.654 66.4365 184.686 66.3835C184.717 66.3305 184.733 66.2698 184.732 66.2081C184.73 66.1569 184.715 66.1071 184.688 66.0635C184.661 66.0198 184.624 65.9838 184.579 65.9588C184.486 65.9137 184.382 65.8955 184.279 65.9062C184.279 65.9062 184.302 65.8764 184.362 65.8581C184.447 65.8372 184.538 65.8461 184.618 65.8833C184.682 65.9099 184.737 65.9537 184.777 66.0098C184.818 66.066 184.842 66.1323 184.846 66.2013C184.856 66.2864 184.838 66.3723 184.795 66.4468C184.753 66.5213 184.689 66.5806 184.611 66.6165C184.533 66.6523 184.446 66.6629 184.362 66.6467C184.278 66.6305 184.201 66.5883 184.142 66.5261C184.093 66.4777 184.059 66.417 184.042 66.3505C184.026 66.2839 184.028 66.2141 184.048 66.1486C184.071 66.0631 184.123 65.988 184.195 65.9359C184.24 65.9039 184.275 65.8993 184.277 65.9062Z" fill="#455A64"/>
<path d="M180.617 65.4923C180.651 65.5644 180.672 65.6418 180.679 65.7211C180.715 65.9264 180.722 66.1359 180.699 66.3432C180.666 66.6519 180.577 66.9519 180.436 67.2285C180.266 67.5725 180.014 67.8694 179.702 68.0931C179.39 68.3169 179.028 68.4606 178.647 68.5117C178.343 68.5572 178.033 68.5456 177.732 68.4774C177.529 68.4333 177.334 68.3601 177.151 68.2601C177.083 68.2275 177.019 68.1843 176.964 68.132C177.217 68.2458 177.48 68.3339 177.751 68.3951C178.076 68.4627 178.412 68.4622 178.737 68.3935C179.062 68.3248 179.37 68.1895 179.64 67.996C179.91 67.8026 180.137 67.5552 180.307 67.2696C180.477 66.9839 180.585 66.6662 180.626 66.3364C180.653 66.0555 180.65 65.7725 180.617 65.4923Z" fill="#455A64"/>
<path d="M189.592 67.4961C189.443 67.5133 189.292 67.4953 189.151 67.4435C188.805 67.3347 188.495 67.1357 188.252 66.8671C188.006 66.5996 187.838 66.2708 187.764 65.9155C187.728 65.7705 187.728 65.619 187.764 65.474C187.785 65.474 187.787 65.641 187.856 65.8972C187.949 66.2282 188.117 66.5331 188.348 66.7876C188.579 67.0421 188.867 67.2393 189.187 67.3634C189.425 67.4572 189.594 67.4732 189.592 67.4961Z" fill="#455A64"/>
<path d="M192.316 90.0273C192.202 90.1581 192.065 90.2673 191.912 90.3499C191.751 90.4517 191.576 90.5289 191.392 90.5786C191.161 90.6398 190.918 90.6335 190.69 90.5603C190.29 90.4096 189.948 90.1377 189.711 89.7826C189.602 89.6491 189.512 89.5013 189.443 89.3434C189.567 89.4612 189.679 89.5907 189.777 89.73C190.02 90.0521 190.348 90.3 190.724 90.4459C190.916 90.4972 191.117 90.5088 191.313 90.4801C191.51 90.4514 191.699 90.3829 191.868 90.2789C192.013 90.1866 192.162 90.1026 192.316 90.0273Z" fill="#455A64"/>
<path d="M190.57 91.3609C190.3 91.0809 190.058 90.7744 189.849 90.4459C189.609 90.1401 189.399 89.8114 189.223 89.4646C189.495 89.7436 189.737 90.0502 189.945 90.3796C190.188 90.6835 190.397 91.0125 190.57 91.3609Z" fill="#455A64"/>
<path d="M178.849 72.8326C178.817 72.844 178.737 72.7136 178.666 72.5375C178.595 72.3614 178.566 72.2127 178.595 72.199C178.625 72.1852 178.708 72.3179 178.776 72.4941C178.845 72.6702 178.879 72.8326 178.849 72.8326Z" fill="#FAFAFA"/>
<path d="M183.276 73.4685C183.242 73.4685 183.217 73.3565 183.217 73.2169C183.217 73.0774 183.242 72.963 183.276 72.963C183.311 72.963 183.336 73.0774 183.336 73.2169C183.336 73.3565 183.308 73.4685 183.276 73.4685Z" fill="#FAFAFA"/>
<path d="M181.456 75.8749C181.424 75.8749 181.388 75.7376 181.376 75.5615C181.365 75.3853 181.376 75.2435 181.413 75.2412C181.45 75.239 181.484 75.3785 181.495 75.5546C181.507 75.7308 181.488 75.8726 181.456 75.8749Z" fill="#FAFAFA"/>
<path d="M178.13 77.6363C178.102 77.6569 178.009 77.5722 177.885 77.4853C177.761 77.3984 177.656 77.3321 177.656 77.3C177.656 77.268 177.807 77.2863 177.947 77.387C178.086 77.4876 178.157 77.6363 178.13 77.6363Z" fill="#FAFAFA"/>
<path d="M183.993 79.8803C183.965 79.862 183.993 79.7636 184.071 79.6515C184.148 79.5394 184.219 79.4754 184.247 79.4937C184.274 79.512 184.247 79.6126 184.169 79.7224C184.091 79.8322 184.02 79.8986 183.993 79.8803Z" fill="#FAFAFA"/>
<path d="M180.374 80.5139C180.342 80.5139 180.314 80.324 180.314 80.093C180.314 79.8619 180.342 79.6698 180.374 79.6698C180.406 79.6698 180.433 79.8597 180.433 80.093C180.433 80.3263 180.399 80.5139 180.374 80.5139Z" fill="#FAFAFA"/>
<path d="M179.189 83.0804C179.171 83.1055 179.052 83.0529 178.924 82.9591C178.796 82.8653 178.695 82.7693 178.725 82.7418C178.755 82.7144 178.865 82.7693 178.993 82.8631C179.121 82.9568 179.21 83.0529 179.189 83.0804Z" fill="#FAFAFA"/>
<path d="M182.854 83.9725C182.868 84.0022 182.795 84.064 182.689 84.112C182.584 84.1601 182.488 84.1715 182.474 84.1418C182.461 84.112 182.536 84.0503 182.641 84.0022C182.746 83.9542 182.843 83.9428 182.854 83.9725Z" fill="#FAFAFA"/>
<path d="M180.374 88.1586C180.347 88.1723 180.228 87.9962 180.111 87.7629C179.994 87.5295 179.923 87.3283 179.953 87.3054C179.983 87.2825 180.102 87.4678 180.216 87.7011C180.33 87.9344 180.395 88.1334 180.374 88.1586Z" fill="#FAFAFA"/>
<path d="M184.417 87.7696C184.387 87.7536 184.439 87.6003 184.531 87.4242C184.622 87.2481 184.725 87.12 184.76 87.136C184.794 87.152 184.737 87.3053 184.643 87.4814C184.549 87.6575 184.444 87.7856 184.417 87.7696Z" fill="#FAFAFA"/>
<path d="M182.643 91.3128C182.609 91.3128 182.614 91.1275 182.577 90.9125C182.54 90.6974 182.485 90.5259 182.517 90.5099C182.549 90.4939 182.659 90.6563 182.696 90.8942C182.732 91.1321 182.675 91.3196 182.643 91.3128Z" fill="#FAFAFA"/>
<path d="M180.745 93.3373C180.722 93.3602 180.608 93.2732 180.491 93.1451C180.375 93.017 180.299 92.8958 180.324 92.8729C180.349 92.85 180.461 92.937 180.578 93.0651C180.695 93.1932 180.77 93.3144 180.745 93.3373Z" fill="#FAFAFA"/>
<path d="M185.351 94.106C185.329 94.0831 185.413 93.9596 185.541 93.8292C185.669 93.6988 185.788 93.6142 185.813 93.637C185.839 93.6599 185.752 93.7857 185.626 93.9138C185.5 94.0419 185.377 94.1288 185.351 94.106Z" fill="#FAFAFA"/>
<path d="M182.703 97.1368C182.671 97.1368 182.671 96.9561 182.703 96.7457C182.735 96.5352 182.785 96.3705 182.819 96.3751C182.854 96.3797 182.851 96.5535 182.819 96.764C182.787 96.9744 182.735 97.1414 182.703 97.1368Z" fill="#FAFAFA"/>
<path d="M180.921 98.6077C180.891 98.6237 180.791 98.5047 180.692 98.3423C180.594 98.1799 180.543 98.0358 180.571 98.0198C180.598 98.0038 180.699 98.1204 180.8 98.2828C180.9 98.4453 180.948 98.5894 180.921 98.6077Z" fill="#FAFAFA"/>
<path d="M185.215 100.463C185.235 100.49 185.118 100.607 184.954 100.724C184.789 100.84 184.645 100.913 184.624 100.886C184.604 100.859 184.723 100.742 184.885 100.625C185.048 100.509 185.196 100.438 185.215 100.463Z" fill="#FAFAFA"/>
<path d="M181.636 102.871C181.604 102.86 181.636 102.677 181.666 102.448C181.696 102.22 181.678 102.032 181.712 102.027C181.746 102.023 181.806 102.215 181.783 102.46C181.76 102.705 181.666 102.885 181.636 102.871Z" fill="#FAFAFA"/>
<path d="M183.066 106.33C183.039 106.351 182.943 106.273 182.849 106.156C182.755 106.04 182.703 105.927 182.728 105.907C182.753 105.886 182.849 105.964 182.943 106.081C183.037 106.197 183.092 106.309 183.066 106.33Z" fill="#FAFAFA"/>
<path d="M181.504 108.65C181.477 108.668 181.351 108.533 181.223 108.345C181.095 108.158 181.015 107.993 181.04 107.975C181.065 107.957 181.193 108.091 181.321 108.279C181.449 108.467 181.532 108.631 181.504 108.65Z" fill="#FAFAFA"/>
<path d="M185.808 105.738C185.778 105.726 185.78 105.641 185.808 105.55C185.835 105.458 185.897 105.39 185.929 105.401C185.961 105.413 185.956 105.497 185.929 105.591C185.901 105.685 185.84 105.751 185.808 105.738Z" fill="#FAFAFA"/>
<path d="M183.909 111.262C183.879 111.246 183.936 111.083 183.982 110.88C184.028 110.676 184.044 110.505 184.078 110.502C184.112 110.5 184.146 110.685 184.098 110.905C184.05 111.125 183.936 111.28 183.909 111.262Z" fill="#FAFAFA"/>
<path d="M185.144 75.9115C185.114 75.9253 185.041 75.8338 184.981 75.7057C184.922 75.5776 184.897 75.4632 184.927 75.4495C184.956 75.4358 185.03 75.5273 185.089 75.6554C185.148 75.7834 185.178 75.8978 185.144 75.9115Z" fill="#FAFAFA"/>
<path d="M181.975 68.7884C181.994 68.8158 181.834 68.9439 181.662 69.1269C181.49 69.3099 181.374 69.4792 181.344 69.4632C181.314 69.4471 181.392 69.2344 181.573 69.0468C181.754 68.8593 181.953 68.7586 181.975 68.7884Z" fill="#FAFAFA"/>
<path d="M184.795 68.7152C184.761 68.7152 184.708 68.5848 184.628 68.4292C184.548 68.2737 184.475 68.1456 184.5 68.1227C184.525 68.0999 184.649 68.2005 184.729 68.3743C184.809 68.5482 184.825 68.6969 184.795 68.7152Z" fill="#FAFAFA"/>
<path d="M175.989 71.0279C175.959 71.0142 175.989 70.8632 176.06 70.6894C176.131 70.5155 176.209 70.3805 176.241 70.3943C176.273 70.408 176.241 70.5567 176.17 70.7328C176.099 70.909 176.028 71.0393 175.989 71.0279Z" fill="#FAFAFA"/>
<path d="M176.275 74.482C176.252 74.5071 176.122 74.4339 175.982 74.3173C175.842 74.2006 175.753 74.0885 175.767 74.0611C175.781 74.0336 175.92 74.1091 176.06 74.2258C176.199 74.3424 176.295 74.4568 176.275 74.482Z" fill="#FAFAFA"/>
<path d="M182.053 66.0458C182.023 66.0458 181.959 65.9726 181.914 65.8559C181.868 65.7393 181.854 65.6272 181.884 65.6272C181.914 65.6272 181.978 65.7004 182.023 65.8171C182.069 65.9337 182.083 66.0344 182.053 66.0458Z" fill="#FAFAFA"/>
<path d="M187.587 67.7339C187.555 67.7339 187.557 67.5897 187.587 67.4273C187.616 67.2649 187.676 67.1368 187.708 67.1437C187.74 67.1506 187.738 67.2901 187.708 67.4525C187.678 67.6149 187.619 67.7407 187.587 67.7339Z" fill="#FAFAFA"/>
<path d="M188.887 70.3484C188.857 70.3347 188.898 70.1654 188.98 69.9664C189.063 69.7674 189.152 69.6187 189.182 69.6301C189.211 69.6416 189.182 69.8131 189.09 70.0121C188.999 70.2111 188.919 70.3598 188.887 70.3484Z" fill="#FAFAFA"/>
<path d="M187.959 72.4575C187.929 72.4713 187.819 72.3134 187.714 72.1053C187.609 71.8971 187.549 71.7118 187.579 71.6981C187.609 71.6844 187.716 71.8422 187.821 72.0504C187.927 72.2585 187.988 72.4415 187.959 72.4575Z" fill="#FAFAFA"/>
<path d="M189.941 74.5665C189.911 74.5551 189.941 74.4224 189.991 74.2714C190.041 74.1205 190.121 74.0061 190.153 74.0175C190.185 74.0289 190.153 74.1616 190.103 74.3126C190.053 74.4636 189.982 74.5779 189.941 74.5665Z" fill="#FAFAFA"/>
<path d="M188.17 76.6321C188.142 76.6504 188.071 76.5886 188.014 76.4971C187.957 76.4056 187.93 76.3141 187.959 76.2958C187.989 76.2775 188.055 76.3393 188.115 76.4331C188.174 76.5268 188.197 76.6161 188.17 76.6321Z" fill="#FAFAFA"/>
<path d="M188.548 80.8959C188.525 80.9165 188.381 80.8044 188.23 80.6397C188.079 80.475 187.976 80.3263 188.001 80.3034C188.026 80.2806 188.168 80.3949 188.319 80.5596C188.47 80.7243 188.573 80.873 188.548 80.8959Z" fill="#FAFAFA"/>
<path d="M190.868 78.4459C190.843 78.4665 190.717 78.3521 190.589 78.1874C190.461 78.0227 190.379 77.8763 190.404 77.8557C190.429 77.8352 190.555 77.9518 190.683 78.1142C190.811 78.2766 190.896 78.4276 190.868 78.4459Z" fill="#FAFAFA"/>
<path d="M192.143 81.8246C192.113 81.8109 192.166 81.6393 192.26 81.4426C192.354 81.2459 192.452 81.0949 192.488 81.1087C192.525 81.1224 192.468 81.2962 192.374 81.4929C192.28 81.6897 192.173 81.8406 192.143 81.8246Z" fill="#FAFAFA"/>
<path d="M189.435 84.6062C189.405 84.6222 189.3 84.4964 189.153 84.3614C189.007 84.2265 188.872 84.1327 188.886 84.0984C188.899 84.064 189.073 84.1258 189.233 84.2745C189.394 84.4232 189.462 84.5902 189.435 84.6062Z" fill="#FAFAFA"/>
<path d="M189.604 87.4723C189.604 87.5043 189.49 87.5318 189.35 87.5318C189.211 87.5318 189.099 87.5043 189.099 87.4723C189.099 87.4403 189.211 87.4128 189.35 87.4128C189.49 87.4128 189.604 87.4403 189.604 87.4723Z" fill="#FAFAFA"/>
<path d="M192.388 86.6718C192.358 86.6558 192.418 86.5116 192.461 86.3332C192.505 86.1548 192.523 85.9993 192.557 85.997C192.591 85.9947 192.628 86.1617 192.578 86.3607C192.527 86.5597 192.413 86.6901 192.388 86.6718Z" fill="#FAFAFA"/>
<path d="M195.154 87.6348C195.124 87.6462 195.04 87.4838 194.966 87.2756C194.893 87.0675 194.859 86.889 194.889 86.8799C194.918 86.8707 195.005 87.0286 195.078 87.2367C195.152 87.4449 195.186 87.6233 195.154 87.6348Z" fill="#FAFAFA"/>
<path d="M194.712 91.5692C194.685 91.5532 194.755 91.3611 194.87 91.1392C194.984 90.9173 195.099 90.7503 195.133 90.7663C195.167 90.7823 195.092 90.9745 194.975 91.1941C194.858 91.4137 194.742 91.5898 194.712 91.5692Z" fill="#FAFAFA"/>
<path d="M192.189 93.877C192.16 93.8885 192.066 93.7306 191.979 93.5225C191.892 93.3143 191.849 93.1359 191.881 93.1222C191.913 93.1084 192.004 93.2686 192.089 93.4767C192.173 93.6849 192.219 93.877 192.189 93.877Z" fill="#FAFAFA"/>
<path d="M189.393 94.7715C189.393 94.8035 189.297 94.831 189.18 94.831C189.064 94.831 188.97 94.8035 188.97 94.7715C188.97 94.7395 189.066 94.712 189.18 94.712C189.295 94.712 189.393 94.7395 189.393 94.7715Z" fill="#FAFAFA"/>
<path d="M190.994 98.452C190.965 98.452 190.901 98.3262 190.853 98.1524C190.805 97.9785 190.795 97.8276 190.827 97.8207C190.859 97.8138 190.921 97.9465 190.969 98.1203C191.017 98.2942 191.026 98.4337 190.994 98.452Z" fill="#FAFAFA"/>
<path d="M188.97 97.217C188.943 97.201 188.97 97.0935 189.046 96.9768C189.121 96.8601 189.197 96.7801 189.224 96.7961C189.252 96.8121 189.224 96.9219 189.149 97.0386C189.073 97.1552 189 97.2353 188.97 97.217Z" fill="#FAFAFA"/>
<path d="M188.93 101.268C188.898 101.268 188.852 101.115 188.829 100.916C188.806 100.717 188.813 100.554 188.845 100.55C188.877 100.545 188.923 100.703 188.946 100.902C188.968 101.101 188.962 101.263 188.93 101.268Z" fill="#FAFAFA"/>
<defs>
<linearGradient id="paint0_linear_1371_20665" x1="353.133" y1="165.273" x2="-25.5904" y2="76.3812" gradientUnits="userSpaceOnUse">
<stop stop-color="#463D94"/>
<stop offset="1" stop-color="#7265ED"/>
</linearGradient>
</defs>
</svg>
