<svg width="305" height="142" viewBox="0 0 305 142" fill="none" xmlns="http://www.w3.org/2000/svg">
<rect x="-0.00292969" width="305.003" height="142" fill="url(#paint0_linear_1371_20667)" fill-opacity="0.85"/>
<path d="M168.759 93.0513C169.708 93.4501 172.023 93.399 172.025 93.399C172.028 93.399 171.527 91.9367 171.482 91.8472C170.975 90.8247 169.361 89.1298 168.061 89.2908C167.845 89.3249 167.638 89.4024 167.455 89.5185C167.272 89.6345 167.116 89.7865 166.998 89.9644C166.88 90.1424 166.801 90.3424 166.769 90.5514C166.736 90.7604 166.749 90.9737 166.807 91.1775C167.025 92.062 167.953 92.7113 168.759 93.0513Z" fill="#263238"/>
<path d="M169.559 99.5188C170.54 99.6569 172.609 99.0791 172.773 99.0331C173.114 100.173 173.532 101.29 174.027 102.377C174.311 103.011 174.618 103.642 174.934 104.271C174.746 104.016 174.573 103.76 174.547 103.737C173.775 102.878 171.763 101.653 170.548 102.152C170.349 102.24 170.171 102.367 170.026 102.526C169.881 102.685 169.773 102.871 169.707 103.073C169.642 103.275 169.621 103.488 169.647 103.698C169.673 103.908 169.744 104.11 169.856 104.292C170.304 105.079 171.378 105.468 172.243 105.59C173.107 105.713 174.894 105.255 175.366 105.128C175.488 105.368 175.61 105.608 175.735 105.848C176.334 106.996 176.936 108.149 177.49 109.282C177.686 109.683 177.864 110.084 178.044 110.486C177.877 110.251 177.734 110.054 177.707 110.026C176.936 109.167 174.923 107.942 173.709 108.441C173.51 108.528 173.332 108.656 173.187 108.814C173.042 108.972 172.933 109.159 172.868 109.36C172.803 109.562 172.782 109.775 172.808 109.984C172.833 110.194 172.905 110.396 173.017 110.578C173.465 111.365 174.539 111.756 175.403 111.876C176.268 111.997 177.885 111.588 178.442 111.437C178.612 111.856 178.784 112.273 178.93 112.684C179.023 112.968 179.134 113.234 179.211 113.523C179.288 113.812 179.375 114.09 179.455 114.369C179.59 114.913 179.733 115.473 179.852 116.005C179.937 116.376 180.012 116.731 180.086 117.089C179.897 116.688 179.508 115.908 179.465 115.847C178.84 114.883 177.042 113.38 175.753 113.694C175.542 113.752 175.346 113.852 175.178 113.987C175.01 114.123 174.873 114.291 174.776 114.482C174.68 114.672 174.626 114.879 174.619 115.09C174.611 115.302 174.65 115.512 174.732 115.708C175.053 116.552 176.058 117.094 176.893 117.342C177.821 117.613 179.871 117.365 180.128 117.342C180.25 117.933 180.364 118.51 180.462 119.055C180.515 119.344 180.563 119.615 180.608 119.886H181.425C181.364 119.574 181.3 119.252 181.231 118.917C181.109 118.316 180.966 117.677 180.812 117.02C181.43 116.782 182.033 116.509 182.618 116.202C183.294 116.907 185.023 117.736 185.248 117.838C185.012 118.395 184.776 118.937 184.548 119.443C184.479 119.597 184.41 119.74 184.344 119.886H185.203L185.267 119.737C185.511 119.172 185.755 118.561 186.004 117.933C186.25 117.984 188.281 118.382 189.228 118.175C190.087 117.989 191.126 117.521 191.511 116.703C191.608 116.513 191.663 116.306 191.672 116.095C191.68 115.884 191.643 115.673 191.561 115.477C191.48 115.281 191.357 115.103 191.2 114.956C191.043 114.809 190.855 114.695 190.649 114.622C189.398 114.216 187.489 115.586 186.789 116.501C186.749 116.555 186.367 117.186 186.136 117.59C186.235 117.334 186.335 117.079 186.433 116.823C186.632 116.312 186.815 115.77 187.017 115.202C187.102 114.924 187.189 114.642 187.282 114.359C187.375 114.075 187.438 113.773 187.518 113.479C187.688 112.789 187.825 112.083 187.947 111.37C188.425 111.536 190.127 112.109 191.007 112.048C191.887 111.986 192.988 111.677 193.497 110.925C193.622 110.752 193.708 110.555 193.749 110.347C193.791 110.14 193.786 109.926 193.736 109.72C193.686 109.514 193.592 109.321 193.459 109.152C193.327 108.984 193.159 108.844 192.967 108.742C191.792 108.159 189.689 109.233 188.854 110.036C188.804 110.084 188.271 110.726 187.984 111.081C188.056 110.652 188.128 110.225 188.183 109.788C188.345 108.525 188.47 107.244 188.6 105.966C188.639 105.575 188.682 105.184 188.724 104.795C188.894 104.857 190.904 105.577 191.89 105.511C192.768 105.45 193.871 105.14 194.377 104.386C194.503 104.213 194.589 104.016 194.631 103.808C194.672 103.6 194.668 103.386 194.618 103.18C194.568 102.974 194.473 102.781 194.34 102.613C194.207 102.444 194.039 102.305 193.847 102.203C192.675 101.62 190.572 102.696 189.737 103.497C189.673 103.558 188.91 104.481 188.727 104.724C188.822 103.865 188.923 103.008 189.061 102.167C189.238 101.032 189.492 99.9089 189.822 98.8056C189.899 98.8363 191.991 99.5955 193.004 99.529C193.881 99.4677 194.982 99.1584 195.491 98.4042C195.616 98.2308 195.703 98.0338 195.744 97.8261C195.786 97.6183 195.781 97.4045 195.731 97.1985C195.681 96.9925 195.587 96.799 195.454 96.6306C195.321 96.4622 195.153 96.3226 194.961 96.2211C193.789 95.6382 191.686 96.7144 190.851 97.5146C190.784 97.5785 189.962 98.5704 189.827 98.7621C189.846 98.6982 189.859 98.6292 189.88 98.5653C190.242 97.4679 190.704 96.4036 191.262 95.3851C191.561 94.8202 191.879 94.2961 192.203 93.7899C192.579 93.9714 194.3 94.7767 195.218 94.8125C196.135 94.8483 197.228 94.654 197.819 93.9612C197.964 93.8028 198.073 93.6168 198.138 93.4152C198.204 93.2136 198.225 93.0009 198.2 92.791C198.175 92.5811 198.105 92.3786 197.993 92.1966C197.882 92.0146 197.732 91.8572 197.554 91.7346C196.453 91.0316 194.242 91.8777 193.311 92.5859C193.261 92.6242 192.797 93.069 192.465 93.3988C192.614 93.1738 192.762 92.9387 192.911 92.7239C193.462 91.9238 194.019 91.2233 194.518 90.6047C194.804 90.257 195.069 89.9477 195.313 89.6588C195.777 89.6588 197.644 89.5974 198.46 89.2268C199.277 88.8561 200.168 88.2042 200.362 87.3146C200.414 87.1093 200.421 86.8958 200.382 86.6879C200.343 86.4799 200.259 86.2822 200.136 86.1074C200.013 85.9327 199.853 85.7848 199.666 85.6735C199.48 85.5622 199.272 85.4899 199.054 85.4612C197.745 85.3257 196.185 87.0589 195.706 88.0968C195.663 88.1863 195.175 89.6614 195.207 89.6614H195.236C194.987 89.9323 194.725 90.2263 194.441 90.5535C193.926 91.162 193.354 91.8522 192.781 92.6447C192.155 93.4932 191.581 94.3758 191.06 95.288C190.473 96.3073 189.982 97.375 189.591 98.4784C189.591 98.4911 189.591 98.5065 189.591 98.5193C189.591 98.146 189.591 97.103 189.57 97.0238C189.419 95.8964 188.441 93.8053 187.141 93.5752C186.925 93.5427 186.704 93.5545 186.492 93.6098C186.281 93.6651 186.083 93.7627 185.914 93.8963C185.744 94.0299 185.605 94.1964 185.506 94.3851C185.408 94.5738 185.351 94.7804 185.341 94.9914C185.267 95.8862 185.938 96.7809 186.595 97.3484C187.335 97.985 189.39 98.6011 189.554 98.6496C189.186 99.782 188.895 100.937 188.684 102.106C188.56 102.788 188.454 103.476 188.358 104.169C188.358 103.847 188.358 103.558 188.342 103.52C188.189 102.392 187.21 100.301 185.914 100.068C185.697 100.036 185.475 100.047 185.264 100.102C185.052 100.157 184.854 100.255 184.684 100.388C184.514 100.522 184.375 100.689 184.276 100.878C184.177 101.067 184.121 101.273 184.111 101.485C184.036 102.379 184.71 103.274 185.365 103.842C186.02 104.409 187.772 104.977 188.234 105.12C188.202 105.376 188.165 105.652 188.13 105.917C187.971 107.196 187.82 108.474 187.632 109.716C187.566 110.153 187.483 110.585 187.401 111.015C187.401 110.729 187.401 110.488 187.385 110.45C187.234 109.325 186.256 107.234 184.959 107.001C184.742 106.968 184.521 106.98 184.309 107.035C184.097 107.09 183.9 107.188 183.73 107.321C183.56 107.455 183.421 107.622 183.322 107.811C183.223 107.999 183.167 108.206 183.156 108.418C183.082 109.312 183.753 110.207 184.41 110.775C185.068 111.342 186.648 111.853 187.197 112.025C187.102 112.462 187.006 112.902 186.892 113.323C186.807 113.61 186.746 113.888 186.645 114.172C186.545 114.456 186.457 114.732 186.364 115.008C186.166 115.535 185.964 116.077 185.757 116.585C185.617 116.938 185.476 117.273 185.336 117.608C185.407 117.173 185.527 116.314 185.529 116.243C185.515 115.244 185.235 114.265 184.715 113.4C184.72 113.288 184.713 113.176 184.694 113.065C184.667 112.855 184.595 112.653 184.481 112.472C184.368 112.291 184.216 112.135 184.036 112.014C183.856 111.894 183.651 111.811 183.436 111.772C183.22 111.733 182.998 111.738 182.785 111.787C181.51 112.114 180.701 114.272 180.64 115.407C180.64 115.473 180.682 116.204 180.719 116.665C180.656 116.396 180.595 116.135 180.526 115.862C180.393 115.317 180.242 114.778 180.083 114.198C179.996 113.922 179.908 113.64 179.818 113.357C179.728 113.073 179.611 112.787 179.508 112.498C179.256 111.833 178.977 111.171 178.662 110.509C179.155 110.396 180.902 109.967 181.602 109.448C182.302 108.929 183.042 108.085 183.034 107.188C183.039 106.977 182.999 106.768 182.914 106.573C182.83 106.379 182.704 106.204 182.545 106.059C182.386 105.914 182.198 105.803 181.991 105.734C181.785 105.664 181.566 105.637 181.348 105.654C180.035 105.792 178.898 107.807 178.659 108.919C178.646 108.988 178.566 109.806 178.532 110.256C178.346 109.859 178.161 109.463 177.957 109.07C177.371 107.929 176.742 106.797 176.116 105.662C175.926 105.314 175.74 104.964 175.552 104.616C175.729 104.578 177.816 104.105 178.601 103.53C179.301 103.019 180.041 102.167 180.033 101.27C180.038 101.059 179.997 100.85 179.913 100.655C179.829 100.461 179.703 100.285 179.544 100.141C179.385 99.9962 179.196 99.8854 178.99 99.8157C178.784 99.7459 178.564 99.7188 178.346 99.7361C177.037 99.8742 175.896 101.889 175.658 103.001C175.642 103.085 175.531 104.261 175.517 104.56C175.104 103.793 174.701 103.026 174.335 102.259C173.832 101.218 173.402 100.147 173.046 99.051C173.128 99.0331 175.308 98.5551 176.114 97.962C176.811 97.4507 177.554 96.5994 177.546 95.7021C177.55 95.4915 177.509 95.2823 177.425 95.0879C177.341 94.8936 177.215 94.7185 177.056 94.5739C176.897 94.4294 176.708 94.3186 176.502 94.2487C176.296 94.1788 176.077 94.1514 175.859 94.1683C174.547 94.3038 173.409 96.3208 173.171 97.4328C173.152 97.5197 173.035 98.7851 173.03 99.0152C173.009 98.9513 172.982 98.8874 172.961 98.8235C172.636 97.7164 172.412 96.5838 172.293 95.4388C172.221 94.8074 172.187 94.199 172.168 93.6059C172.585 93.5573 174.481 93.3144 175.265 92.8543C176.05 92.3941 176.856 91.6553 176.946 90.7606C176.977 90.5512 176.961 90.338 176.9 90.1349C176.839 89.9319 176.734 89.7435 176.593 89.5821C176.451 89.4207 176.276 89.2899 176.078 89.1983C175.88 89.1067 175.665 89.0563 175.446 89.0504C174.12 89.0504 172.765 90.9293 172.402 92.0107C172.383 92.0695 172.251 92.6881 172.161 93.1406C172.161 92.8722 172.147 92.5961 172.147 92.3405C172.147 91.3793 172.214 90.4973 172.275 89.7176C172.314 89.2753 172.359 88.874 172.404 88.5007C172.786 88.2451 174.313 87.2226 174.791 86.4684C175.268 85.7143 175.623 84.6968 175.281 83.8609C175.208 83.6617 175.092 83.4797 174.94 83.3266C174.789 83.1736 174.606 83.053 174.403 82.9727C174.2 82.8924 173.982 82.8542 173.763 82.8605C173.544 82.8669 173.328 82.9177 173.131 83.0096C171.959 83.595 171.651 85.8702 171.845 86.9899C171.861 87.0871 172.304 88.5723 172.325 88.5595L172.346 88.5442C172.296 88.9021 172.245 89.2881 172.198 89.7099C172.118 90.4896 172.033 91.3716 172.012 92.3379C171.974 93.3781 172 94.4195 172.089 95.4567C172.181 96.6195 172.382 97.7719 172.688 98.9002C172.692 98.914 172.696 98.9277 172.701 98.9411C172.492 98.6266 171.882 97.7651 171.826 97.7038C171.057 96.8448 169.042 95.6229 167.828 96.1188C167.629 96.2068 167.451 96.3342 167.306 96.4929C167.161 96.6516 167.052 96.8379 166.987 97.0398C166.922 97.2416 166.901 97.4545 166.927 97.6645C166.952 97.8744 167.024 98.0769 167.136 98.2585C167.616 99.0075 168.69 99.3961 169.559 99.5188Z" fill="#263238"/>
<path d="M192.187 93.5369C192.209 93.5496 192.609 92.0516 192.622 91.9545C192.787 90.8296 192.413 88.5621 191.225 88.0099C191.025 87.9239 190.809 87.8794 190.59 87.8792C190.371 87.8789 190.155 87.923 189.955 88.0086C189.755 88.0941 189.576 88.2193 189.429 88.3758C189.283 88.5324 189.172 88.7169 189.104 88.9175C188.786 89.7611 189.189 90.7964 189.666 91.5096C190.225 92.3507 192.187 93.5369 192.187 93.5369Z" fill="#263238"/>
<path d="M135.627 76.3222H100.489V32.4391H135.627V76.3222ZM100.754 76.0665H135.361V32.6947H100.754V76.0665Z" fill="#263238"/>
<path d="M134.635 75.0849H101.471V33.6713H134.635V75.0849ZM101.757 74.8292H134.37V33.9269H101.736L101.757 74.8292Z" fill="#263238"/>
<path d="M126.394 64.7673H109.725V43.9966H126.394V64.7673ZM109.995 64.5117H126.129V44.2522H109.99L109.995 64.5117Z" fill="#263238"/>
<path d="M173.532 57.7475L167.807 56.9678L168.603 51.4869L174.33 52.2538L173.532 57.7475ZM168.107 56.7505L173.307 57.4587L174.036 52.4839L168.833 51.7758L168.107 56.7505ZM174.444 49.5313L169.207 48.818L169.966 43.6388L170.016 43.6081C171.403 42.7883 172.722 41.8661 173.961 40.8498C175.121 39.9078 176.129 38.8061 176.955 37.5801C177.735 36.4116 178.244 35.0937 178.445 33.7174C178.602 32.6514 178.474 31.7797 178.066 31.1201C177.658 30.4606 176.984 30.0797 176.053 29.9518C175.699 29.8843 175.333 29.8853 174.979 29.9546C174.624 30.0239 174.288 30.1603 173.988 30.3558C173.708 30.5647 173.476 30.8272 173.307 31.1269C173.138 31.4265 173.035 31.7567 173.004 32.0967C172.952 32.43 172.943 32.7684 172.978 33.1039C173.012 33.4337 173.057 33.789 173.113 34.1597L173.132 34.2952L167.662 34.6863L167.64 34.5764C167.527 34.0389 167.459 33.4934 167.436 32.9454C167.416 32.4123 167.444 31.8785 167.521 31.3502C167.847 29.1236 168.831 27.4185 170.438 26.2809C172.044 25.1433 174.203 24.747 176.836 25.11C179.524 25.4756 181.534 26.4777 182.815 28.0857C184.095 29.6936 184.554 31.8257 184.175 34.4179C183.956 36.0259 183.408 37.5761 182.563 38.9785C181.709 40.354 180.629 41.5868 179.365 42.629C178.009 43.7501 176.551 44.7519 175.009 45.6225L174.444 49.5313ZM169.507 48.6007L174.219 49.2424L174.773 45.4538L174.828 45.4231C176.376 44.553 177.839 43.5493 179.198 42.4245C180.44 41.3975 181.501 40.1837 182.34 38.8302C183.172 37.4597 183.713 35.9433 183.931 34.3693C184.3 31.8487 183.859 29.7831 182.624 28.2339C181.388 26.6848 179.442 25.7133 176.817 25.3554C174.256 25.0078 172.166 25.3861 170.613 26.4803C169.059 27.5744 168.099 29.2182 167.784 31.3732C167.709 31.8862 167.681 32.4047 167.701 32.9224C167.722 33.4192 167.78 33.914 167.876 34.4025L172.829 34.0472C172.784 33.7225 172.744 33.4106 172.713 33.1167C172.676 32.7607 172.686 32.4017 172.742 32.0481C172.777 31.6744 172.891 31.3118 173.079 30.9831C173.267 30.6544 173.523 30.3668 173.832 30.1385C174.158 29.9224 174.526 29.7712 174.914 29.6935C175.302 29.6158 175.702 29.6133 176.091 29.686C177.106 29.824 177.846 30.2586 178.291 30.9642C178.737 31.6697 178.872 32.6028 178.708 33.7276C178.503 35.1441 177.981 36.5006 177.178 37.7028C176.338 38.9489 175.312 40.0687 174.134 41.0261C172.899 42.0371 171.588 42.9566 170.21 43.7768L169.507 48.6007Z" fill="#263238"/>
<path d="M140.159 70.2737C140.159 70.2737 123.139 70.4909 122.609 71.6592C122.078 72.8275 119.658 86.9771 119.506 91.8547C119.355 96.7324 119.281 99.9508 119.809 100.534C120.336 101.117 128.585 105.713 128.585 105.713C128.585 105.713 124.727 118.768 125.934 119.208C127.14 119.648 134.559 121.468 139.324 121.542C144.088 121.616 148.781 121.614 149.16 121.614C149.54 121.614 161.718 122.051 165.955 121.102C170.192 120.154 171.475 120.08 171.475 118.477C171.475 116.874 170.415 114.898 170.34 114.54C170.266 114.182 173.217 86.5298 171.552 79.7477C169.887 72.9655 167.694 70.3376 166.029 69.9004C164.364 69.4633 152.488 69.7547 152.488 69.7547L140.159 70.2737Z" fill="#00795D"/>
<path d="M155.69 121.857C153.834 121.857 151.763 121.829 149.531 121.767H149.162C148.314 121.767 143.859 121.767 139.325 121.696C134.481 121.622 127.067 119.778 125.89 119.351C125.625 119.259 125.023 119.04 126.686 112.293C127.412 109.323 128.277 106.365 128.436 105.8C127.494 105.276 120.229 101.211 119.718 100.644C119.158 100.028 119.222 97.0648 119.381 91.8779C119.535 86.9364 121.995 72.7279 122.494 71.6261C123.024 70.4425 137.302 70.1997 140.163 70.1639L152.492 69.6526C152.98 69.6398 164.424 69.3663 166.073 69.8034C167.097 70.0591 169.687 71.5776 171.692 79.7427C173.063 85.331 171.339 104.729 170.689 112.03C170.565 113.433 170.475 114.448 170.483 114.548C170.542 114.726 170.611 114.901 170.689 115.072C171.013 115.839 171.617 117.281 171.617 118.503C171.617 120.037 170.538 120.262 167.33 120.959L166.004 121.253C164.175 121.657 160.598 121.857 155.69 121.857ZM160.025 69.8034C156.422 69.8034 152.561 69.8954 152.492 69.898L140.163 70.4093C133.614 70.4936 123.093 70.9206 122.732 71.7182C122.236 72.8097 119.794 86.9517 119.641 91.8753C119.508 96.1777 119.391 99.8947 119.906 100.467C120.327 100.933 126.36 104.343 128.656 105.619C128.681 105.633 128.701 105.655 128.712 105.681C128.723 105.708 128.725 105.737 128.717 105.764C126.831 112.127 125.296 118.845 125.983 119.101C127.152 119.523 134.515 121.353 139.328 121.427C143.865 121.496 148.314 121.499 149.162 121.499H149.539C157.628 121.719 163.448 121.537 165.925 120.988C166.41 120.878 166.855 120.783 167.264 120.694C170.398 120.011 171.344 119.804 171.344 118.485C171.344 117.314 170.753 115.905 170.435 115.149C170.348 114.961 170.274 114.768 170.212 114.571C170.199 114.497 170.236 114.047 170.419 111.989C171.066 104.698 172.787 85.3335 171.424 79.7785C169.454 71.7463 166.972 70.284 165.996 70.0258C165.299 69.8571 162.735 69.8034 160.025 69.8034Z" fill="#263238"/>
<path d="M147.454 77.1351C147.428 77.1355 147.403 77.1285 147.381 77.1148C147.36 77.1011 147.343 77.0815 147.332 77.0584C147.325 77.043 147.322 77.0264 147.321 77.0095C147.321 76.9927 147.324 76.9759 147.331 76.9602C147.337 76.9446 147.346 76.9303 147.359 76.9181C147.371 76.906 147.385 76.8964 147.401 76.8897C148.004 76.6414 148.591 76.3571 149.157 76.0384C149.172 76.03 149.189 76.0246 149.206 76.0224C149.223 76.0203 149.241 76.0214 149.258 76.0258C149.275 76.0302 149.29 76.0377 149.304 76.048C149.318 76.0583 149.33 76.0711 149.338 76.0857C149.347 76.1003 149.353 76.1164 149.355 76.1331C149.357 76.1498 149.356 76.1668 149.351 76.1831C149.347 76.1993 149.339 76.2146 149.328 76.2279C149.318 76.2413 149.304 76.2524 149.289 76.2608C148.714 76.5843 148.118 76.8729 147.505 77.1249C147.489 77.132 147.472 77.1355 147.454 77.1351Z" fill="#263238"/>
<path d="M150.025 75.8006C150.003 75.8004 149.982 75.7952 149.962 75.7854C149.943 75.7756 149.926 75.7616 149.914 75.7443C149.895 75.7158 149.888 75.6813 149.896 75.6482C149.903 75.6151 149.924 75.5863 149.953 75.5679C152.061 74.2144 153.911 72.5212 155.423 70.5625C155.433 70.5487 155.446 70.5369 155.461 70.5279C155.476 70.5189 155.492 70.5127 155.509 70.5099C155.527 70.507 155.544 70.5075 155.561 70.5113C155.579 70.5151 155.595 70.522 155.609 70.5318C155.623 70.5413 155.635 70.5534 155.645 70.5674C155.654 70.5815 155.66 70.5972 155.663 70.6136C155.666 70.63 155.666 70.6469 155.662 70.6631C155.658 70.6794 155.651 70.6947 155.641 70.7082C154.108 72.6924 152.234 74.408 150.099 75.7801C150.077 75.7942 150.051 75.8013 150.025 75.8006Z" fill="#263238"/>
<path d="M151.583 76.5164C151.559 76.5162 151.536 76.51 151.516 76.4983C151.495 76.4866 151.478 76.47 151.467 76.45C151.458 76.4352 151.453 76.419 151.451 76.4023C151.449 76.3855 151.451 76.3686 151.456 76.3524C151.461 76.3363 151.469 76.3212 151.48 76.3081C151.491 76.295 151.504 76.2842 151.52 76.2761C152.845 75.591 154.396 73.5024 154.412 73.482C154.422 73.4668 154.434 73.4535 154.449 73.4432C154.464 73.4329 154.481 73.4257 154.499 73.422C154.517 73.4184 154.536 73.4184 154.554 73.422C154.572 73.4257 154.589 73.4329 154.604 73.4432C154.619 73.4535 154.631 73.4667 154.64 73.482C154.65 73.4972 154.656 73.5142 154.658 73.5318C154.66 73.5493 154.659 73.5672 154.653 73.5841C154.648 73.6011 154.639 73.6168 154.627 73.6303C154.563 73.7172 153.036 75.7879 151.644 76.5011C151.626 76.5113 151.605 76.5166 151.583 76.5164Z" fill="#263238"/>
<path d="M143.705 97.0545C143.677 97.0541 143.65 97.0453 143.628 97.0292C143.606 97.0131 143.589 96.9907 143.581 96.965L143.135 95.6306C143.129 95.6147 143.127 95.5978 143.128 95.5809C143.129 95.5641 143.134 95.5477 143.142 95.5326C143.15 95.5176 143.161 95.5043 143.174 95.4934C143.188 95.4826 143.203 95.4744 143.22 95.4695C143.253 95.459 143.29 95.4618 143.321 95.4771C143.352 95.4925 143.376 95.5192 143.387 95.5513L143.833 96.8858C143.843 96.918 143.841 96.953 143.825 96.9832C143.809 97.0134 143.781 97.0363 143.748 97.0468C143.734 97.0519 143.72 97.0545 143.705 97.0545Z" fill="#263238"/>
<path d="M146.135 104.325C146.107 104.325 146.08 104.316 146.057 104.3C146.035 104.284 146.018 104.261 146.01 104.236L144.037 98.3329C144.027 98.299 144.03 98.2623 144.047 98.2309C144.064 98.1995 144.094 98.1759 144.129 98.1654C144.164 98.1549 144.202 98.1583 144.235 98.1748C144.267 98.1914 144.292 98.2197 144.303 98.2536L146.275 104.159C146.285 104.191 146.282 104.226 146.267 104.256C146.251 104.286 146.223 104.309 146.19 104.32L146.135 104.325Z" fill="#263238"/>
<path d="M146.743 104.471C146.717 104.472 146.692 104.465 146.671 104.45C146.656 104.441 146.643 104.43 146.633 104.416C146.623 104.402 146.616 104.387 146.612 104.37C146.608 104.354 146.607 104.337 146.61 104.321C146.613 104.304 146.619 104.288 146.629 104.274L148.596 101.285C148.605 101.271 148.617 101.258 148.631 101.248C148.645 101.238 148.661 101.231 148.678 101.227C148.695 101.223 148.713 101.223 148.73 101.226C148.748 101.229 148.764 101.235 148.779 101.244C148.808 101.263 148.829 101.292 148.837 101.324C148.845 101.357 148.839 101.392 148.821 101.421L146.854 104.412C146.842 104.43 146.825 104.444 146.806 104.455C146.786 104.465 146.765 104.47 146.743 104.471Z" fill="#263238"/>
<path d="M151.205 102.72C151.179 102.72 151.153 102.714 151.131 102.701C151.109 102.687 151.092 102.668 151.082 102.645C151.071 102.623 151.068 102.597 151.072 102.573C151.077 102.548 151.089 102.525 151.107 102.507L155.879 97.3281C155.903 97.3026 155.936 97.2873 155.971 97.2854C156.007 97.2834 156.041 97.2951 156.068 97.3178C156.094 97.3406 156.11 97.3724 156.112 97.4065C156.114 97.4405 156.102 97.4739 156.078 97.4993L151.306 102.679C151.293 102.692 151.277 102.703 151.26 102.71C151.243 102.717 151.224 102.72 151.205 102.72Z" fill="#263238"/>
<path d="M149.162 121.757H149.125L138.856 118.871C138.839 118.866 138.824 118.858 138.81 118.848C138.797 118.837 138.785 118.824 138.777 118.81C138.769 118.795 138.763 118.779 138.762 118.762C138.76 118.745 138.761 118.728 138.766 118.712C138.771 118.696 138.779 118.681 138.789 118.667C138.8 118.654 138.814 118.643 138.829 118.635C138.844 118.627 138.861 118.622 138.879 118.62C138.896 118.619 138.914 118.62 138.93 118.625L149.197 121.506C149.232 121.511 149.264 121.529 149.285 121.557C149.307 121.584 149.316 121.618 149.311 121.652C149.306 121.686 149.287 121.717 149.259 121.737C149.231 121.758 149.195 121.767 149.16 121.762L149.162 121.757Z" fill="#263238"/>
<path d="M137.684 118.533H137.647L135.887 118.037C135.852 118.028 135.822 118.005 135.804 117.975C135.786 117.944 135.781 117.908 135.791 117.874C135.801 117.84 135.824 117.811 135.856 117.794C135.888 117.777 135.926 117.772 135.961 117.782L137.722 118.278C137.738 118.282 137.754 118.29 137.767 118.301C137.781 118.311 137.792 118.324 137.801 118.339C137.809 118.354 137.814 118.37 137.816 118.387C137.818 118.403 137.817 118.42 137.812 118.436C137.805 118.464 137.788 118.488 137.765 118.506C137.742 118.523 137.714 118.533 137.684 118.533Z" fill="#263238"/>
<path d="M140.052 37.8407C140.052 37.8407 134.71 36.6571 133.689 37.9813C132.668 39.3055 134.702 40.5582 134.413 40.8368C134.124 41.1155 127.911 44.178 128.415 47.1741C128.919 50.1702 133.111 53.2328 133.257 54.0764C133.402 54.92 128.415 55.191 127.765 56.4436C127.116 57.6962 126.174 63.6169 131.594 65.5674C137.014 67.5179 143.791 64.2432 145.679 64.2432C147.567 64.2432 149.436 67.7966 151.602 67.5869C152.922 67.4413 154.135 66.8193 154.999 65.846C154.999 65.846 157.236 68.8421 160.487 67.5869C163.738 66.3317 167.495 61.945 165.907 60.6233C164.319 59.3017 162.51 58.8824 163.666 57.6988C164.822 56.5152 167.206 53.381 166.848 50.6636C166.49 47.9462 163.162 47.7391 161.863 46.9031C160.564 46.0672 163.308 44.674 163.237 42.3758C163.165 40.0776 161.428 36.2404 152.618 33.684C143.807 31.1276 139.472 32.3598 139.037 34.52C138.901 35.1111 138.923 35.7258 139.1 36.3066C139.278 36.8874 139.605 37.4152 140.052 37.8407Z" fill="#263238"/>
<path d="M158.918 68.0114C156.852 68.0114 155.394 66.4954 155.004 66.0404C154.128 66.9786 152.925 67.5751 151.624 67.7174C150.417 67.835 149.325 66.8661 148.272 65.9279C147.371 65.1252 146.517 64.3685 145.687 64.3685C145.181 64.3685 144.271 64.6242 143.12 64.9514C140.085 65.8078 135.495 67.1013 131.557 65.6851C129.675 65.0076 128.376 63.8036 127.676 62.1061C126.748 59.8258 127.204 57.249 127.654 56.3849C128.026 55.6717 129.606 55.2729 131.001 54.9226C131.974 54.667 133.183 54.373 133.122 54.0944C133.061 53.8157 132.523 53.2635 131.878 52.5938C130.582 51.2414 128.62 49.1989 128.283 47.1998C127.84 44.5795 132.194 42.0128 133.835 41.0465C134.063 40.911 134.28 40.7909 134.315 40.75C134.229 40.6098 134.131 40.4765 134.023 40.3512C133.583 39.799 132.846 38.871 133.58 37.9098C134.471 36.7441 138.353 37.3985 139.658 37.6363C139.297 37.1978 139.043 36.6871 138.914 36.1417C138.786 35.5963 138.785 35.03 138.913 34.4843C138.992 34.1553 139.143 33.8465 139.356 33.5785C139.569 33.3104 139.839 33.0893 140.148 32.93C142.357 31.6518 146.92 31.8716 152.66 33.5512C161.824 36.2303 163.306 40.2285 163.375 42.3758C163.41 43.5313 162.768 44.4542 162.251 45.1879C161.898 45.6992 161.596 46.1286 161.66 46.4431C161.68 46.5166 161.715 46.5853 161.764 46.6451C161.813 46.7048 161.874 46.7544 161.943 46.7907C162.386 47.0372 162.854 47.2377 163.341 47.3889C164.844 47.9258 166.713 48.5956 166.984 50.6432C167.339 53.3147 165.128 56.3875 163.77 57.7807C163.67 57.8607 163.589 57.9605 163.533 58.0735C163.476 58.1865 163.446 58.3098 163.444 58.4351C163.486 58.8084 164.009 59.1484 164.672 59.5753C165.133 59.8647 165.575 60.1806 165.997 60.5211C166.177 60.6858 166.308 60.8935 166.377 61.1231C166.446 61.3526 166.45 61.5957 166.39 61.8275C166.056 63.7499 163.105 66.7127 160.543 67.7072C160.026 67.9072 159.475 68.0104 158.918 68.0114ZM155.007 65.7106C155.027 65.7109 155.048 65.7159 155.066 65.7253C155.084 65.7346 155.099 65.748 155.11 65.7643C155.134 65.7924 157.33 68.6633 160.445 67.4618C162.938 66.5005 165.806 63.6272 166.127 61.784C166.209 61.3085 166.109 60.9481 165.825 60.7129C165.41 60.3813 164.976 60.074 164.523 59.7926C163.805 59.3273 163.237 58.9592 163.179 58.4709C163.176 58.3078 163.211 58.1461 163.28 57.9973C163.349 57.8484 163.451 57.716 163.579 57.6094C164.815 56.3312 167.066 53.2635 166.721 50.679C166.469 48.7873 164.682 48.1482 163.248 47.6344C162.742 47.4765 162.255 47.2674 161.795 47.0106C161.697 46.9554 161.611 46.8817 161.543 46.7939C161.475 46.706 161.426 46.6058 161.4 46.4993C161.315 46.0826 161.63 45.6276 162.031 45.0524C162.527 44.3417 163.142 43.4572 163.11 42.3835C163.044 40.3052 161.591 36.4297 152.584 33.7966C146.915 32.1375 142.431 31.9023 140.286 33.1498C140.009 33.2908 139.767 33.4871 139.575 33.7256C139.383 33.964 139.245 34.2392 139.172 34.5328C139.039 35.1049 139.058 35.7001 139.227 36.2632C139.396 36.8263 139.71 37.3391 140.14 37.7539C140.162 37.7731 140.177 37.7987 140.183 37.8268C140.189 37.8549 140.185 37.884 140.172 37.9098C140.159 37.9353 140.137 37.9557 140.11 37.9678C140.083 37.9798 140.052 37.9828 140.024 37.9763C138.56 37.6516 134.591 37.0381 133.803 38.0658C133.188 38.8736 133.803 39.6405 134.243 40.2029C134.508 40.5276 134.691 40.7653 134.508 40.9366C134.341 41.0607 134.163 41.1727 133.978 41.2715C132.533 42.1228 128.145 44.7124 128.551 47.164C128.874 49.0864 130.802 51.0957 132.08 52.425C132.835 53.2124 133.334 53.7314 133.39 54.0586C133.477 54.5699 132.464 54.8255 131.064 55.1757C129.789 55.4953 128.203 55.8941 127.882 56.505C127.464 57.3129 127.023 59.8411 127.912 62.0166C128.235 62.8166 128.737 63.5386 129.381 64.1317C130.025 64.7249 130.796 65.1748 131.64 65.4499C135.495 66.838 140.031 65.5572 143.041 64.7111C144.213 64.3813 145.136 64.118 145.692 64.118C146.626 64.118 147.517 64.9079 148.458 65.7439C149.468 66.6411 150.513 67.5666 151.603 67.4618C152.885 67.3167 154.064 66.7127 154.906 65.7694C154.917 65.7529 154.932 65.7391 154.95 65.7289C154.967 65.7187 154.987 65.7125 155.007 65.7106Z" fill="#263238"/>
<path d="M141.015 60.1863C141.015 60.1863 139.209 71.051 139.138 71.3987C139.066 71.7463 142.32 74.8805 146.721 74.3232C149.299 74.0244 151.669 72.8082 153.366 70.913L151.995 60.1173C151.995 60.1173 148.238 61.8582 145.926 61.7892C143.614 61.7202 141.015 60.1863 141.015 60.1863Z" fill="#FFDDBF"/>
<path d="M145.682 74.5174C143.316 74.4801 141.057 73.5644 139.374 71.961C138.968 71.5443 138.997 71.4114 139.008 71.3603C139.077 71.0203 140.864 60.263 140.882 60.153C140.886 60.1324 140.895 60.1129 140.909 60.0963C140.922 60.0797 140.939 60.0664 140.959 60.0576C140.979 60.0488 141.001 60.0448 141.022 60.0458C141.044 60.0468 141.065 60.0529 141.084 60.0636C141.111 60.0789 143.682 61.5795 145.931 61.6485C148.179 61.7175 151.899 60.0073 151.936 59.9894C151.955 59.98 151.976 59.9751 151.997 59.9751C152.019 59.9751 152.04 59.98 152.058 59.9894C152.077 59.9996 152.092 60.0136 152.103 60.0305C152.115 60.0473 152.122 60.0665 152.125 60.0866L153.498 70.8797C153.5 70.8963 153.499 70.9133 153.495 70.9295C153.49 70.9457 153.482 70.9609 153.472 70.9743C151.747 72.8892 149.35 74.122 146.74 74.4356C146.389 74.4853 146.036 74.5126 145.682 74.5174ZM141.116 60.3908C140.869 61.8709 139.334 71.0995 139.26 71.4242C139.315 71.7412 142.396 74.7475 146.684 74.1979C149.205 73.8911 151.523 72.7097 153.207 70.8746L151.886 60.3039C151.122 60.6439 147.991 61.9757 145.923 61.9144C143.916 61.8556 141.734 60.7333 141.116 60.3908Z" fill="#263238"/>
<path d="M140.272 66.0149L147.88 64.5961L141.015 60.1863L140.272 66.0149Z" fill="#263238"/>
<path d="M140.271 66.1426C140.238 66.1417 140.207 66.13 140.181 66.1093C140.167 66.0951 140.155 66.0778 140.148 66.0588C140.141 66.0398 140.139 66.0194 140.142 65.9994L140.881 60.1708C140.884 60.1492 140.893 60.1286 140.906 60.1111C140.92 60.0937 140.938 60.0799 140.958 60.0711C140.978 60.0611 141.001 60.0558 141.023 60.0558C141.046 60.0558 141.068 60.0611 141.088 60.0711L147.95 64.4835C147.972 64.497 147.99 64.5166 148 64.5399C148.011 64.5632 148.014 64.589 148.008 64.6138C148.003 64.6388 147.99 64.6615 147.971 64.6793C147.952 64.6971 147.928 64.709 147.902 64.7135L140.298 66.1323L140.271 66.1426ZM141.12 60.4086L140.425 65.8563L147.534 64.5295L141.12 60.4086Z" fill="#263238"/>
<path d="M137 50.6074C137 50.6074 135.727 49.0531 135.144 51.0165C134.561 52.9798 137.095 55.3623 137.095 55.3623L137 50.6074Z" fill="#FFDDBF"/>
<path d="M137.086 55.4798C137.054 55.4784 137.024 55.4667 137.001 55.4466C136.895 55.3469 134.405 52.9976 135.015 50.9831C135.209 50.344 135.5 49.9836 135.882 49.912C136.502 49.797 137.088 50.5 137.112 50.5306C137.131 50.5522 137.141 50.5793 137.141 50.6073L137.226 55.352C137.226 55.3773 137.219 55.402 137.205 55.4232C137.191 55.4445 137.17 55.4615 137.147 55.4722C137.127 55.4776 137.106 55.4802 137.086 55.4798ZM136.025 50.1523C135.995 50.1497 135.965 50.1497 135.935 50.1523C135.67 50.2034 135.434 50.5128 135.272 51.0445C134.813 52.563 136.354 54.3831 136.959 55.0197L136.879 50.6457C136.717 50.4821 136.351 50.1523 136.015 50.1523H136.025Z" fill="#263238"/>
<path d="M155.234 50.6074C155.234 50.6074 156.507 49.0531 157.09 51.0165C157.673 52.9798 155.139 55.3623 155.139 55.3623L155.234 50.6074Z" fill="#FFDDBF"/>
<path d="M155.149 55.4799C155.132 55.4825 155.114 55.4825 155.096 55.4799C155.072 55.47 155.051 55.4532 155.037 55.4318C155.023 55.4103 155.016 55.3852 155.017 55.3597L155.102 50.615C155.102 50.5875 155.111 50.5608 155.128 50.5383C155.155 50.5077 155.743 49.8021 156.358 49.9197C156.743 49.9913 157.034 50.3517 157.228 50.9908C157.835 53.0053 155.345 55.3546 155.239 55.4543C155.214 55.4734 155.182 55.4825 155.149 55.4799ZM155.364 50.6534L155.295 55.0274C155.897 54.3908 157.44 52.5707 156.981 51.0522C156.82 50.5205 156.589 50.2111 156.316 50.16C155.95 50.0935 155.531 50.4668 155.364 50.6534Z" fill="#263238"/>
<path d="M140.998 40.7858C140.998 40.7858 137.355 44.1986 136.827 45.2211C136.3 46.2437 136.512 57.8957 137.092 59.0257C137.673 60.1556 143.48 64.5245 144.429 64.8798C145.378 65.2351 147.545 65.593 149.233 64.7775C150.922 63.9621 154.987 59.79 155.411 58.7214C155.836 57.6529 155.305 45.4282 155.04 44.265C154.775 43.1019 148.401 38.9017 145.696 38.6998C142.992 38.4978 140.998 40.7858 140.998 40.7858Z" fill="#FFDDBF"/>
<path d="M146.811 65.3808C145.981 65.3851 145.157 65.2501 144.375 64.982C143.354 64.5985 137.555 60.199 136.966 59.0665C136.378 57.934 136.15 46.2206 136.701 45.1571C137.231 44.1346 140.678 40.8905 140.893 40.6988C141.026 40.548 143.014 38.3674 145.7 38.5719C148.323 38.7713 154.866 42.8973 155.163 44.2189C155.41 45.3182 155.959 57.6528 155.527 58.7495C155.073 59.8999 150.958 64.0694 149.285 64.8848C148.511 65.2307 147.664 65.4004 146.811 65.3808ZM145.353 38.8147C142.924 38.8147 141.111 40.8471 141.092 40.8598C141.055 40.8931 137.46 44.2675 136.948 45.2543C136.436 46.2411 136.661 57.8727 137.213 58.9336C137.764 59.9945 143.513 64.3608 144.481 64.7238C145.499 65.1047 147.588 65.3936 149.179 64.6266C150.884 63.806 154.901 59.6263 155.291 58.6396C155.718 57.5608 155.161 45.3463 154.914 44.2573C154.668 43.1683 148.349 39.0269 145.687 38.8301C145.578 38.8301 145.47 38.8147 145.361 38.8147H145.353Z" fill="#263238"/>
<path d="M143.862 38.6998C143.862 38.6998 149.319 43.5007 153.243 43.6848L157.17 43.8689C157.17 43.8689 148.553 42.7619 145.872 37.1327C145.872 37.1327 142.905 34.74 143.862 38.6998Z" fill="#263238"/>
<path d="M157.17 43.9965L153.246 43.8124C149.319 43.6284 144.006 38.9936 143.78 38.7942C143.761 38.7769 143.748 38.7548 143.741 38.7303C143.425 37.4214 143.494 36.6545 143.953 36.3835C144.632 35.9822 145.833 36.9255 145.965 37.0329C145.981 37.0452 145.994 37.0609 146.002 37.0789C148.622 42.5802 157.109 43.7255 157.194 43.7434C157.229 43.7473 157.26 43.7638 157.282 43.7896C157.303 43.8154 157.314 43.8483 157.311 43.8814C157.307 43.9142 157.29 43.9443 157.264 43.9656C157.238 43.987 157.205 43.998 157.17 43.9965ZM143.982 38.628C144.427 39.0115 149.569 43.3778 153.262 43.5517L155.479 43.6565C152.827 43.0123 147.734 41.2816 145.777 37.2067C145.432 36.9332 144.523 36.3426 144.093 36.5957C143.849 36.7389 143.645 37.2041 143.982 38.6332V38.628Z" fill="#263238"/>
<path d="M147.341 53.4858C147.307 53.4859 147.275 53.4739 147.251 53.4521C147.226 53.4303 147.211 53.4003 147.208 53.3682L146.787 48.2273C146.785 48.2105 146.787 48.1936 146.793 48.1776C146.798 48.1616 146.807 48.1468 146.818 48.1339C146.829 48.1211 146.843 48.1106 146.859 48.1029C146.874 48.0953 146.891 48.0906 146.909 48.0893C146.926 48.0879 146.943 48.0899 146.96 48.0951C146.977 48.1003 146.992 48.1086 147.005 48.1195C147.019 48.1304 147.03 48.1437 147.038 48.1587C147.046 48.1737 147.05 48.1901 147.052 48.2069L147.473 53.3478C147.475 53.3646 147.473 53.3815 147.467 53.3975C147.462 53.4136 147.453 53.4284 147.442 53.4413C147.431 53.4541 147.417 53.4646 147.401 53.4723C147.386 53.4799 147.369 53.4845 147.351 53.4858H147.341Z" fill="#263238"/>
<path d="M146.119 55.9299C145.382 55.9299 144.676 55.163 144.647 55.1221C144.635 55.1096 144.625 55.0949 144.619 55.0787C144.613 55.0626 144.61 55.0454 144.61 55.0282C144.611 55.0109 144.616 54.994 144.623 54.9784C144.631 54.9629 144.642 54.949 144.655 54.9376C144.669 54.9262 144.684 54.9175 144.701 54.9121C144.718 54.9067 144.736 54.9047 144.754 54.9062C144.772 54.9076 144.789 54.9126 144.805 54.9207C144.821 54.9288 144.835 54.9399 144.846 54.9533C144.846 54.9533 145.504 55.6742 146.119 55.6742C146.625 55.6742 147.392 54.7233 147.646 54.3577C147.656 54.3435 147.668 54.3314 147.682 54.3219C147.696 54.3124 147.713 54.3058 147.73 54.3024C147.747 54.2991 147.764 54.2991 147.781 54.3024C147.799 54.3058 147.815 54.3124 147.829 54.3219C147.858 54.3406 147.878 54.3697 147.885 54.4027C147.892 54.4358 147.885 54.4701 147.866 54.4983C147.765 54.644 146.856 55.9299 146.119 55.9299Z" fill="#263238"/>
<path d="M145.28 58.2868C145.119 58.2868 144.954 58.2868 144.79 58.2715C143.156 58.1667 141.939 56.2545 141.886 56.1727C141.877 56.1583 141.871 56.1423 141.869 56.1256C141.866 56.1089 141.867 56.0919 141.871 56.0755C141.875 56.0591 141.883 56.0437 141.893 56.0301C141.903 56.0165 141.917 56.005 141.931 55.9963C141.946 55.9876 141.963 55.9818 141.98 55.9792C141.998 55.9767 142.015 55.9775 142.032 55.9815C142.049 55.9855 142.065 55.9928 142.079 56.0028C142.093 56.0128 142.105 56.0253 142.114 56.0398C142.114 56.0602 143.313 57.9187 144.808 58.0159C145.896 58.0514 146.983 57.9325 148.035 57.6631C148.07 57.6536 148.108 57.658 148.14 57.6752C148.172 57.6925 148.195 57.7212 148.205 57.7551C148.215 57.789 148.21 57.8253 148.192 57.856C148.174 57.8867 148.145 57.9092 148.109 57.9187C147.185 58.1508 146.235 58.2744 145.28 58.2868Z" fill="#263238"/>
<path d="M147.545 47.4043C147.545 47.4043 149.401 46.08 150.13 45.6148C150.86 45.1495 153.246 46.0213 153.246 46.0213C153.246 46.0213 151.451 45.0549 150.502 44.9015C149.552 44.7482 147.598 46.0724 147.439 46.691C147.28 47.3097 146.811 47.1486 147.545 47.4043Z" fill="#263238"/>
<path d="M147.545 47.5218C147.53 47.5242 147.515 47.5242 147.5 47.5218C147.15 47.4016 147.047 47.3658 147.015 47.2661C147.009 47.2263 147.014 47.1858 147.029 47.1482C147.044 47.1107 147.068 47.0774 147.1 47.0514C147.204 46.9444 147.277 46.8131 147.312 46.6705C147.484 46.0033 149.486 44.6254 150.523 44.7941C151.486 44.9475 153.238 45.8882 153.312 45.9266C153.341 45.9427 153.363 45.9687 153.373 45.9994C153.384 46.03 153.382 46.0633 153.368 46.0928C153.354 46.1221 153.329 46.1453 153.298 46.1577C153.267 46.17 153.232 46.1706 153.201 46.1592C152.557 45.924 150.764 45.3923 150.205 45.74C149.476 46.1899 147.644 47.5039 147.625 47.5167C147.599 47.5252 147.572 47.527 147.545 47.5218ZM147.32 47.1767L147.524 47.2508C147.84 47.0233 149.399 45.9138 150.059 45.5048C150.438 45.2696 151.162 45.3386 151.83 45.4792C151.4 45.2776 150.947 45.1249 150.481 45.0242C149.603 44.8861 147.71 46.1694 147.564 46.7114C147.526 46.8874 147.442 47.0512 147.32 47.1869V47.1767Z" fill="#263238"/>
<path d="M143.743 47.6472C143.646 47.4255 143.485 47.2353 143.279 47.0994C143.073 46.9634 142.831 46.8873 142.581 46.8803C141.685 46.8291 137.724 47.8491 138.411 47.8491C139.097 47.8491 141.948 47.798 142.687 47.798C143.046 47.8195 143.406 47.7681 143.743 47.6472Z" fill="#263238"/>
<path d="M138.412 47.9794C138.375 47.9844 138.337 47.9794 138.303 47.9649C138.269 47.9505 138.239 47.9272 138.218 47.8976C138.206 47.8761 138.199 47.8519 138.199 47.8273C138.199 47.8027 138.206 47.7785 138.218 47.757C138.38 47.5014 141.85 46.7114 142.585 46.7549C142.86 46.762 143.128 46.846 143.354 46.9966C143.581 47.1473 143.758 47.3581 143.863 47.6036C143.874 47.633 143.873 47.6652 143.862 47.6942C143.85 47.7233 143.828 47.7474 143.799 47.7621C143.443 47.8911 143.063 47.9477 142.683 47.9283C142.307 47.9283 141.384 47.9283 140.477 47.9538C139.57 47.9794 138.748 47.9794 138.412 47.9794ZM142.505 47.0105C141.837 47.0105 139.976 47.4426 139.013 47.7187L140.48 47.6982C141.386 47.6854 142.312 47.6726 142.688 47.6726C142.982 47.6789 143.276 47.6462 143.561 47.5755C143.46 47.407 143.316 47.2664 143.142 47.1675C142.968 47.0685 142.771 47.0144 142.569 47.0105H142.505Z" fill="#263238"/>
<path d="M152.825 50.5588C152.028 50.7331 151.213 50.8188 150.396 50.8145C149.336 50.7633 148.389 50.4566 148.805 50.9142C149.222 51.3718 150.073 51.7808 151.391 51.5252C152.708 51.2695 153.194 51.0164 152.825 50.5588Z" fill="#263238"/>
<path d="M143.268 50.5588C142.472 50.7331 141.657 50.8188 140.84 50.8145C139.779 50.7633 138.835 50.4566 139.249 50.9142C139.662 51.3718 140.516 51.7808 141.837 51.5252C143.157 51.2695 143.629 51.0164 143.268 50.5588Z" fill="#263238"/>
<path d="M125.7 79.8961C125.7 79.8961 127.291 71.46 128.012 70.6343C128.733 69.8085 136.608 63.5991 137.041 63.1824C137.473 62.7657 140.58 58.2357 140.726 58.793C140.872 59.3503 140.365 61.7891 139.424 63.1108C138.483 64.4324 137.186 66.0379 137.186 66.0379C137.186 66.0379 142.039 67.2215 142.304 67.5001C142.569 67.7788 144.239 71.2452 144.327 71.6773C144.481 72.4237 144.258 73.2239 143.606 73.2801C143.012 73.3287 139.127 71.3986 139.127 71.3986L136.03 71.8076C136.03 71.8076 133.792 74.4535 132.273 74.9418C131.592 75.1821 130.891 75.3684 130.179 75.4991L130.253 80.6528L125.7 79.8961Z" fill="#FFDDBF"/>
<path d="M130.253 80.7907H130.229L125.679 80.0238C125.644 80.0176 125.612 79.9983 125.591 79.9701C125.572 79.9423 125.565 79.9085 125.57 79.8755C125.636 79.5304 127.174 71.4062 127.911 70.5549C128.394 69.9951 131.91 67.1677 134.476 65.1047C135.776 64.0591 136.804 63.2334 136.948 63.0928C137.091 62.9522 137.496 62.4051 137.982 61.7533C139.869 59.2173 140.429 58.5731 140.707 58.6242C140.743 58.6314 140.776 58.6486 140.802 58.6736C140.828 58.6985 140.846 58.7303 140.853 58.7648C141.01 59.3681 140.487 61.8453 139.527 63.1874C138.764 64.2585 137.756 65.529 137.406 65.9636C138.536 66.2423 142.121 67.1421 142.402 67.4106C142.683 67.679 144.366 71.2017 144.459 71.6567C144.521 71.8958 144.533 72.1444 144.495 72.388C144.456 72.6316 144.367 72.8654 144.234 73.0755C144.162 73.1702 144.07 73.249 143.964 73.3068C143.858 73.3645 143.74 73.3998 143.619 73.4104C143.014 73.4615 139.641 71.805 139.111 71.534L136.099 71.9354C135.805 72.2805 133.768 74.6068 132.315 75.0721C131.661 75.2951 130.992 75.477 130.314 75.6166L130.385 80.6604C130.385 80.6793 130.38 80.6979 130.372 80.7151C130.364 80.7322 130.352 80.7476 130.337 80.76C130.313 80.7787 130.284 80.7895 130.253 80.7907ZM125.864 79.7912L130.107 80.4993L130.035 75.499C130.036 75.4677 130.047 75.4376 130.069 75.4142C130.09 75.3907 130.12 75.3755 130.152 75.3712C130.857 75.2416 131.549 75.0569 132.223 74.819C133.684 74.3486 135.895 71.7513 135.916 71.7257C135.938 71.701 135.968 71.6846 136.001 71.6797L139.122 71.2733C139.148 71.2684 139.175 71.273 139.199 71.2861C140.689 72.0248 143.208 73.1906 143.605 73.1522C143.69 73.145 143.772 73.1202 143.846 73.0797C143.919 73.0391 143.983 72.9836 144.032 72.917C144.144 72.7359 144.217 72.5354 144.247 72.327C144.277 72.1186 144.265 71.9064 144.21 71.7027C144.115 71.2426 142.463 67.8196 142.224 67.5895C141.999 67.3978 138.995 66.6104 137.157 66.1605C137.136 66.1552 137.116 66.1449 137.1 66.1305C137.084 66.1161 137.072 66.0981 137.065 66.0781C137.058 66.0581 137.056 66.0367 137.06 66.0158C137.063 65.9949 137.072 65.9753 137.085 65.9585C137.085 65.9406 138.393 64.3429 139.318 63.0391C140.243 61.7354 140.678 59.5445 140.615 58.9105C140.212 59.1969 138.918 60.9378 138.199 61.9015C137.687 62.5892 137.284 63.1311 137.138 63.2718C136.993 63.4124 136.004 64.2074 134.649 65.299C132.233 67.2393 128.585 70.174 128.116 70.716C127.551 71.3679 126.315 77.3677 125.864 79.7912Z" fill="#263238"/>
<path d="M144.337 71.8077C144.315 71.8082 144.294 71.8033 144.275 71.7934C144.256 71.7836 144.239 71.7691 144.228 71.7514C143.387 70.5576 141.988 68.6096 141.81 68.4741C141.632 68.3386 139.392 68.014 137.4 67.7558C137.365 67.751 137.334 67.733 137.312 67.7057C137.291 67.6784 137.282 67.644 137.286 67.6101C137.291 67.5762 137.31 67.5455 137.338 67.5249C137.367 67.5043 137.402 67.4954 137.438 67.5001C138.435 67.6305 141.712 68.0677 141.977 68.2671C142.242 68.4665 144.223 71.2811 144.445 71.5904C144.455 71.6043 144.463 71.62 144.466 71.6365C144.47 71.6531 144.47 71.6702 144.467 71.6868C144.464 71.7035 144.457 71.7193 144.448 71.7335C144.438 71.7477 144.425 71.7598 144.411 71.7693C144.39 71.7886 144.365 71.8019 144.337 71.8077Z" fill="#263238"/>
<path d="M144.16 72.8634C144.141 72.8635 144.122 72.8593 144.104 72.8514C144.087 72.8434 144.071 72.8318 144.059 72.8174C143.492 72.186 142.357 70.941 142.121 70.7493C141.93 70.601 139.692 70.0489 137.68 69.604C137.646 69.5962 137.616 69.5756 137.598 69.5469C137.579 69.5181 137.574 69.4835 137.582 69.4507C137.585 69.4342 137.592 69.4187 137.603 69.405C137.613 69.3913 137.625 69.3796 137.64 69.3708C137.655 69.362 137.672 69.3561 137.689 69.3536C137.706 69.3511 137.724 69.3519 137.741 69.3561C138.443 69.5095 141.983 70.2994 142.291 70.555C142.598 70.8107 144.192 72.5746 144.261 72.6513C144.272 72.6638 144.281 72.6784 144.287 72.6942C144.292 72.71 144.294 72.7268 144.293 72.7434C144.292 72.7601 144.287 72.7764 144.279 72.7913C144.272 72.8062 144.261 72.8194 144.247 72.8302C144.224 72.8517 144.192 72.8635 144.16 72.8634Z" fill="#263238"/>
<path d="M144.245 105C144.245 105 138.57 103.977 138.345 103.906C138.12 103.834 134.103 102.666 133.572 102.446C133.042 102.226 126.612 101.135 126.31 101.572C126.008 102.009 125.706 104.563 125.629 104.78C125.552 104.997 124.947 106.02 125.098 106.605C125.18 107.137 125.18 107.677 125.098 108.208C125.098 108.208 125.021 111.636 125.928 111.71C126.835 111.785 127.67 108.5 127.67 108.5C127.67 108.5 128.956 109.231 131.602 109.376C134.249 109.522 136.823 108.282 136.823 108.282L143.865 109.898L144.245 105Z" fill="#FFDDBF"/>
<path d="M125.965 111.838H125.925C124.944 111.759 124.96 108.799 124.97 108.206C125.051 107.685 125.051 107.156 124.97 106.636C124.838 106.125 125.206 105.358 125.405 104.956C125.45 104.859 125.488 104.783 125.503 104.742C125.519 104.701 125.57 104.386 125.617 104.069C125.803 102.891 125.986 101.807 126.198 101.5C126.596 100.927 133.235 102.167 133.622 102.328C134.009 102.489 136.499 103.228 137.69 103.581L138.376 103.783C138.549 103.837 141.99 104.466 144.26 104.875C144.292 104.88 144.321 104.897 144.341 104.922C144.361 104.947 144.371 104.978 144.369 105.01L143.997 109.898C143.996 109.916 143.991 109.935 143.982 109.951C143.973 109.967 143.96 109.981 143.944 109.992C143.929 110.004 143.911 110.011 143.893 110.015C143.874 110.019 143.854 110.018 143.836 110.013L136.846 108.42C136.491 108.581 134.068 109.642 131.602 109.507C129.438 109.387 128.181 108.888 127.765 108.691C127.553 109.481 126.848 111.838 125.965 111.838ZM126.856 101.592C126.707 101.577 126.557 101.597 126.418 101.651C126.227 101.927 126.005 103.346 125.888 104.108C125.822 104.54 125.787 104.749 125.763 104.821C125.739 104.892 125.705 104.954 125.652 105.064C125.482 105.417 125.122 106.155 125.236 106.575C125.322 107.122 125.322 107.679 125.236 108.226C125.206 109.586 125.408 111.549 125.949 111.583C126.532 111.618 127.238 109.698 127.54 108.471C127.545 108.452 127.555 108.434 127.568 108.418C127.581 108.403 127.598 108.391 127.617 108.382C127.635 108.373 127.656 108.369 127.676 108.369C127.697 108.369 127.717 108.373 127.736 108.382C127.736 108.382 129.033 109.098 131.61 109.241C134.187 109.384 136.738 108.172 136.764 108.16C136.793 108.151 136.823 108.151 136.852 108.16L143.746 109.729L144.104 105.107C143.149 104.936 138.52 104.1 138.302 104.028L137.621 103.826C136.332 103.446 133.938 102.737 133.524 102.566C133.007 102.349 128.351 101.592 126.856 101.592Z" fill="#263238"/>
<path d="M124.622 78.4082L132.229 79.7503L131.945 84.3339C131.945 84.3339 133.629 85.1008 134.14 89.6282C134.652 94.1556 136.118 104.642 135.752 105.419C135.387 106.196 133.117 109.586 127.843 109.798C122.569 110.01 119.714 105.35 119.202 103.865C118.69 102.38 121.4 92.6652 121.546 91.8191C121.692 90.9729 122.423 85.1724 123.084 84.1933C123.491 83.5883 123.983 83.041 124.547 82.5675L124.622 78.4082Z" fill="#00795D"/>
<path d="M127.492 109.936C122.245 109.936 119.538 105.209 119.076 103.911C118.663 102.717 120.195 96.6711 121.017 93.4296C121.229 92.5911 121.383 91.9852 121.415 91.8063C121.447 91.6273 121.484 91.3589 121.542 90.9601C121.823 89.0172 122.412 84.973 122.971 84.1345C123.374 83.5345 123.86 82.9909 124.416 82.5189L124.488 78.4108C124.488 78.3922 124.492 78.3738 124.501 78.357C124.509 78.3402 124.521 78.3254 124.536 78.3136C124.551 78.3021 124.568 78.2939 124.587 78.2895C124.606 78.2851 124.625 78.2846 124.644 78.288L132.259 79.6276C132.292 79.6332 132.321 79.6502 132.341 79.6752C132.361 79.7002 132.371 79.7315 132.368 79.7631L132.082 84.2726C132.434 84.4924 133.816 85.5942 134.272 89.6257C134.399 90.7556 134.59 92.2792 134.802 93.8923C135.579 100.109 136.152 104.913 135.884 105.483C135.863 105.524 133.829 109.696 127.858 109.934L127.492 109.936ZM124.751 78.5616L124.679 82.5751C124.679 82.5937 124.675 82.6121 124.666 82.6289C124.658 82.6457 124.646 82.6605 124.631 82.6723C124.078 83.1375 123.595 83.6743 123.194 84.2675C122.664 85.0574 122.062 89.2166 121.805 90.9908C121.746 91.3921 121.701 91.6938 121.675 91.8446C121.643 92.0338 121.489 92.6422 121.274 93.4833C120.516 96.4768 118.938 102.704 119.328 103.832C119.774 105.11 122.523 109.89 127.837 109.673C132.657 109.481 135.097 106.503 135.632 105.371C135.897 104.821 135.102 98.5194 134.529 93.9178C134.328 92.3022 134.137 90.7786 133.999 89.6487C133.5 85.2517 131.891 84.4617 131.878 84.4541C131.854 84.4427 131.835 84.4251 131.822 84.4033C131.809 84.3815 131.802 84.3565 131.803 84.3314L132.09 79.8551L124.751 78.5616Z" fill="#263238"/>
<path d="M130.637 83.9018C130.207 83.9 129.776 83.8736 129.349 83.8226C129.314 83.8187 129.282 83.8018 129.26 83.7754C129.239 83.7491 129.228 83.7155 129.232 83.682C129.237 83.6482 129.255 83.6176 129.283 83.5966C129.31 83.5756 129.346 83.5658 129.381 83.5695C129.798 83.6184 130.217 83.644 130.637 83.6462C130.673 83.6462 130.706 83.6596 130.731 83.6836C130.756 83.7076 130.77 83.7401 130.77 83.774C130.77 83.8079 130.756 83.8404 130.731 83.8644C130.706 83.8883 130.673 83.9018 130.637 83.9018Z" fill="#263238"/>
<path d="M127.574 83.5287H127.545C126.514 83.3085 125.498 83.0302 124.501 82.6953C124.469 82.6831 124.443 82.6594 124.429 82.629C124.415 82.5987 124.413 82.5642 124.425 82.533C124.437 82.5017 124.461 82.476 124.492 82.4615C124.523 82.4469 124.558 82.4446 124.591 82.455C125.577 82.7863 126.581 83.0611 127.601 83.2782C127.618 83.2818 127.634 83.2887 127.648 83.2984C127.662 83.3081 127.675 83.3204 127.684 83.3347C127.693 83.3489 127.7 83.3648 127.703 83.3815C127.706 83.3981 127.705 83.4151 127.701 83.4316C127.695 83.4593 127.678 83.484 127.655 83.5017C127.632 83.5193 127.604 83.5289 127.574 83.5287Z" fill="#263238"/>
<path d="M166.485 80.7115L165.729 99.5291C165.729 99.5291 164.897 99.6033 164.595 99.9663C164.393 100.218 164.216 100.487 164.064 100.769C164.064 100.769 156.425 101.06 152.793 102.083C150.708 102.655 148.682 103.411 146.742 104.343L143.412 104.274L142.73 112.733L147.196 112.879C147.196 112.879 149.388 114.118 159.374 114.995C169.359 115.872 173.975 116.089 175.033 114.921C176.091 113.753 176.547 111.93 176.698 110.984C176.85 110.038 178.666 104.2 178.666 95.738C178.666 87.2763 170.42 75.0312 168.604 72.2524C166.787 69.4736 164.891 69.696 163.611 69.9925" fill="#00795D"/>
<path d="M170.799 115.847C168.267 115.847 164.56 115.576 159.363 115.121C149.961 114.295 147.463 113.16 147.166 113.004L142.736 112.858C142.718 112.858 142.7 112.855 142.683 112.848C142.666 112.841 142.652 112.83 142.64 112.817C142.628 112.804 142.619 112.789 142.613 112.772C142.608 112.755 142.606 112.738 142.608 112.72L143.279 104.274C143.281 104.241 143.297 104.21 143.322 104.188C143.347 104.166 143.38 104.155 143.414 104.156L146.71 104.228C148.651 103.302 150.674 102.547 152.756 101.973C156.165 101.015 163.171 100.695 163.982 100.657C164.128 100.387 164.298 100.13 164.491 99.8897C164.756 99.5701 165.35 99.4551 165.602 99.4193L166.352 80.7091C166.352 80.6921 166.356 80.6752 166.363 80.6596C166.37 80.644 166.38 80.63 166.393 80.6185C166.406 80.6069 166.422 80.5981 166.438 80.5926C166.455 80.5871 166.473 80.5849 166.49 80.5864C166.508 80.587 166.525 80.591 166.541 80.598C166.556 80.6051 166.571 80.615 166.582 80.6274C166.594 80.6397 166.603 80.6542 166.609 80.67C166.615 80.6857 166.618 80.7025 166.617 80.7193L165.862 99.5369C165.861 99.5678 165.848 99.5973 165.826 99.6199C165.804 99.6424 165.774 99.6565 165.743 99.6596C165.525 99.6775 164.918 99.7849 164.698 100.048C164.503 100.293 164.331 100.554 164.183 100.828C164.173 100.849 164.157 100.867 164.137 100.879C164.117 100.892 164.093 100.899 164.069 100.899C163.995 100.899 156.404 101.201 152.83 102.208C150.754 102.781 148.737 103.534 146.803 104.458C146.782 104.468 146.76 104.473 146.737 104.473L143.534 104.404L142.874 112.61L147.198 112.751C147.22 112.753 147.242 112.759 147.262 112.769C147.283 112.769 149.579 114.009 159.387 114.868C169.33 115.739 173.933 115.941 174.935 114.837C176.078 113.579 176.473 111.555 176.568 110.964C176.592 110.803 176.661 110.527 176.762 110.105C177.936 105.4 178.531 100.578 178.533 95.7381C178.533 90.3339 175.222 82.5573 168.694 72.6257L168.492 72.3215C166.607 69.443 164.602 69.8981 163.643 70.1154C163.608 70.1231 163.572 70.1176 163.542 70.0999C163.511 70.0822 163.49 70.0538 163.481 70.0208C163.477 70.0043 163.476 69.9873 163.479 69.9706C163.482 69.954 163.489 69.9381 163.498 69.9238C163.507 69.9096 163.52 69.8972 163.534 69.8876C163.548 69.8779 163.564 69.871 163.582 69.8674C165.138 69.5146 166.967 69.5146 168.717 72.1835L168.916 72.4903C175.473 82.4602 178.798 90.2853 178.798 95.7381C178.795 100.597 178.199 105.439 177.022 110.164C176.924 110.563 176.855 110.852 176.831 111.002C176.733 111.611 176.325 113.694 175.134 115.006C174.601 115.591 173.251 115.847 170.799 115.847Z" fill="#263238"/>
<path d="M165.729 99.6568C165.706 99.6572 165.683 99.6515 165.663 99.6402C165.643 99.6289 165.626 99.6126 165.615 99.5929C165.6 99.5678 165.594 99.5384 165.598 99.5096C165.602 99.4808 165.617 99.4543 165.639 99.4344L170.027 95.4976C170.039 95.4857 170.054 95.4762 170.07 95.4697C170.086 95.4633 170.103 95.46 170.12 95.46C170.137 95.46 170.154 95.4633 170.17 95.4697C170.186 95.4762 170.201 95.4857 170.213 95.4976C170.225 95.5094 170.235 95.5236 170.242 95.5392C170.248 95.5547 170.252 95.5714 170.252 95.5883C170.252 95.6052 170.248 95.6219 170.242 95.6375C170.235 95.653 170.225 95.6672 170.213 95.6791L166.236 99.258L170.343 98.1076C170.378 98.0981 170.415 98.1025 170.447 98.1198C170.479 98.137 170.502 98.1658 170.512 98.1997C170.522 98.2336 170.518 98.2699 170.5 98.3005C170.482 98.3312 170.452 98.3538 170.417 98.3633L165.774 99.6619L165.729 99.6568Z" fill="#263238"/>
<path d="M171.825 97.9519C171.79 97.9563 171.754 97.9471 171.726 97.9262C171.698 97.9054 171.68 97.8746 171.675 97.8407C171.67 97.8068 171.68 97.7726 171.702 97.7455C171.723 97.7184 171.755 97.7007 171.79 97.6963L173.257 97.2873C173.273 97.2822 173.291 97.2804 173.308 97.2821C173.326 97.2838 173.343 97.2888 173.358 97.2969C173.373 97.305 173.387 97.3161 173.398 97.3293C173.408 97.3426 173.416 97.3579 173.421 97.3742C173.431 97.4067 173.427 97.4417 173.41 97.4714C173.393 97.5011 173.365 97.5232 173.331 97.5327L171.862 97.9417C171.85 97.9478 171.838 97.9513 171.825 97.9519Z" fill="#263238"/>
<path d="M170.874 101.991H170.826C168.901 101.275 164.104 100.907 164.054 100.904C164.037 100.903 164.02 100.899 164.004 100.891C163.989 100.883 163.975 100.873 163.963 100.86C163.952 100.847 163.943 100.832 163.938 100.816C163.933 100.8 163.931 100.783 163.932 100.766C163.933 100.75 163.938 100.733 163.946 100.718C163.954 100.703 163.965 100.69 163.978 100.679C163.992 100.668 164.007 100.66 164.024 100.655C164.04 100.649 164.058 100.648 164.075 100.649C164.274 100.664 168.959 101.025 170.921 101.751C170.939 101.754 170.955 101.76 170.97 101.769C170.985 101.778 170.998 101.79 171.008 101.804C171.018 101.818 171.025 101.834 171.029 101.851C171.033 101.867 171.033 101.885 171.03 101.901C171.027 101.918 171.02 101.934 171.011 101.949C171.001 101.963 170.989 101.975 170.974 101.985C170.96 101.995 170.943 102.002 170.926 102.005C170.909 102.009 170.891 102.009 170.874 102.006V101.991Z" fill="#263238"/>
<path d="M172.235 105.785C172.215 105.784 172.195 105.78 172.176 105.771C172.158 105.762 172.142 105.749 172.129 105.733C171.931 105.478 171.713 105.245 171.482 105.013C171.461 104.988 171.45 104.956 171.452 104.924C171.454 104.892 171.469 104.861 171.493 104.839C171.517 104.817 171.549 104.804 171.583 104.803C171.616 104.803 171.648 104.815 171.673 104.836C171.908 105.072 172.13 105.32 172.339 105.577C172.361 105.604 172.371 105.638 172.367 105.671C172.363 105.705 172.345 105.735 172.318 105.756C172.294 105.774 172.265 105.784 172.235 105.785Z" fill="#263238"/>
<path d="M170.653 104.228C170.622 104.227 170.592 104.217 170.568 104.2C169.222 103.148 167.668 102.371 166.002 101.914C165.985 101.91 165.968 101.903 165.954 101.893C165.939 101.883 165.927 101.871 165.917 101.856C165.908 101.841 165.901 101.825 165.898 101.808C165.895 101.791 165.896 101.774 165.9 101.757C165.904 101.74 165.911 101.724 165.922 101.71C165.932 101.696 165.945 101.684 165.96 101.675C165.975 101.666 165.992 101.66 166.01 101.657C166.028 101.654 166.046 101.655 166.063 101.659C167.769 102.123 169.359 102.917 170.738 103.993C170.759 104.009 170.775 104.032 170.782 104.058C170.79 104.083 170.789 104.111 170.779 104.136C170.77 104.161 170.753 104.182 170.73 104.197C170.707 104.213 170.68 104.221 170.653 104.22V104.228Z" fill="#263238"/>
<path d="M146.742 112.349C146.707 112.349 146.673 112.336 146.648 112.312C146.624 112.288 146.61 112.256 146.61 112.222L146.546 105.148C146.546 105.131 146.549 105.115 146.555 105.099C146.561 105.083 146.571 105.069 146.583 105.057C146.595 105.045 146.609 105.035 146.625 105.028C146.641 105.022 146.658 105.018 146.676 105.018C146.711 105.018 146.745 105.031 146.77 105.055C146.794 105.079 146.808 105.112 146.808 105.146L146.885 112.219C146.885 112.253 146.871 112.286 146.847 112.31C146.822 112.335 146.788 112.349 146.753 112.349H146.742Z" fill="#263238"/>
<path d="M146.212 110.598H143.03C142.995 110.598 142.961 110.585 142.936 110.561C142.911 110.537 142.897 110.504 142.897 110.471C142.897 110.437 142.911 110.404 142.936 110.38C142.961 110.356 142.995 110.343 143.03 110.343H146.212C146.247 110.343 146.281 110.356 146.306 110.38C146.33 110.404 146.344 110.437 146.344 110.471C146.344 110.504 146.33 110.536 146.305 110.56C146.28 110.584 146.247 110.598 146.212 110.598Z" fill="#263238"/>
<path d="M143.791 106.439C143.757 106.439 143.725 106.427 143.7 106.404C143.675 106.382 143.66 106.351 143.658 106.319C143.657 106.302 143.66 106.286 143.665 106.27C143.671 106.254 143.68 106.24 143.692 106.227C143.703 106.215 143.717 106.205 143.733 106.198C143.749 106.191 143.766 106.187 143.783 106.186L145.069 106.112C145.086 106.111 145.104 106.113 145.12 106.119C145.137 106.124 145.152 106.133 145.165 106.144C145.178 106.155 145.189 106.168 145.196 106.184C145.204 106.199 145.209 106.215 145.21 106.232C145.211 106.266 145.199 106.299 145.176 106.324C145.152 106.349 145.12 106.365 145.085 106.367L143.799 106.439H143.791Z" fill="#263238"/>
<defs>
<linearGradient id="paint0_linear_1371_20667" x1="696.005" y1="244" x2="-20.5593" y2="134.412" gradientUnits="userSpaceOnUse">
<stop stop-color="#075F4A"/>
<stop offset="1" stop-color="#09A17D"/>
</linearGradient>
</defs>
</svg>
