<svg xmlns="http://www.w3.org/2000/svg" width="32" height="32" fill="none"><path fill="#F93" stroke="#F93" stroke-linejoin="round" d="M24.784 21.498h-7.567a.89.89 0 0 0-.846.622l-1.01 3.227a.886.886 0 0 0 .845 1.151h9.588a.886.886 0 0 0 .846-1.151l-1.01-3.227a.89.89 0 0 0-.846-.622Z"/><path fill="#2C355A" fill-rule="evenodd" d="M18.857 9.121c0 .385-.373.977-1.548 1.517-1.11.51-2.696.845-4.489.845q-.762-.001-1.466-.077c.17.252.353.525.533.807q.458.03.933.03c2.648 0 4.942-.696 6.064-1.71v2.752c-.026.1-.117.281-.336.51-.226.233-.567.495-1.048.74-.941.48-2.405.892-4.534.908q-.107.413-.337.76h.203c2.295 0 3.924-.436 5.013-.992.422-.215.766-.45 1.035-.686V17.3c-.177.23-.653.624-1.56.979-.992.388-2.46.71-4.488.71-1.816 0-3.266-.309-4.311-.695a6.6 6.6 0 0 1-1.252-.603 2.6 2.6 0 0 1-.506-.404v-2.732c.29.265.662.518 1.12.74q.113.056.233.108a2.5 2.5 0 0 1-.064-.56q0-.139.03-.297c-.815-.427-1.191-.91-1.319-1.25v-2.757c.603.543 1.543.994 2.692 1.295.157-.238.31-.464.45-.67a8.4 8.4 0 0 1-1.573-.525c-1.175-.54-1.548-1.132-1.548-1.517s.373-.977 1.548-1.517c1.11-.51 2.696-.845 4.488-.845s3.38.336 4.489.845c1.175.54 1.548 1.132 1.548 1.517m.757.085.002-.085C19.616 7.397 16.574 6 12.82 6 9.067 6 6.025 7.397 6.025 9.121q0 .043.002.085h-.023v4.139H6v4.186l.004.006v3.692l.078.102c.163.213.444.442.805.661.368.224.843.454 1.416.662 1.146.414 2.698.741 4.597.741q1.05-.002 1.9-.095l.235-.793c-.615.081-1.322.13-2.135.13-1.813 0-3.277-.313-4.34-.698a7 7 0 0 1-1.278-.595 3 3 0 0 1-.519-.387v-2.691l.097.063c.363.233.831.467 1.398.676 1.133.42 2.673.743 4.574.743 2.108 0 3.67-.335 4.765-.763a6 6 0 0 0 1.287-.673v2.197h.759V9.206z" clip-rule="evenodd"/><path fill="#3F5BD9" d="M10.366 11.089a.213.213 0 0 1 .36 0q.17.257.376.563c.645.948 1.61 2.371 1.61 3.189 0 .596-.245 1.136-.637 1.529a2.16 2.16 0 0 1-1.53.638 2.158 2.158 0 0 1-2.167-2.158c0-.818.966-2.25 1.612-3.198.147-.212.27-.392.376-.563"/></svg>