<svg width="45" height="44" fill="none" xmlns="http://www.w3.org/2000/svg"><path fill-rule="evenodd" clip-rule="evenodd" d="M21.058 28.914a.872.872 0 0 1-.865-.879v-4.15c0-.485.387-.878.865-.878h6.31v-1.888a.88.88 0 0 1 .488-.79.854.854 0 0 1 .912.1l6.055 4.841c.209.167.33.421.33.69 0 .27-.121.524-.33.69l-6.055 4.842a.854.854 0 0 1-.912.1.88.88 0 0 1-.488-.79v-1.888h-6.31Z" fill="#11B3C5"/><path fill-rule="evenodd" clip-rule="evenodd" d="M25.473 20.17c0 .41-.402.742-.898.742h-6.241v2.103c0 .3-.219.57-.555.685a1.04 1.04 0 0 1-.978-.16l-6.025-4.978c-.35-.29-.35-.76 0-1.05l6.025-4.978a1.04 1.04 0 0 1 .979-.16c.335.114.554.385.554.685v2.102h6.241c.496 0 .898.333.898.742v4.267Zm-8.037-4.267V13.06l-6.025 4.978 6.025 4.978V20.17h7.139v-4.267h-7.14Z" fill="#2C355A"/></svg>