<svg xmlns="http://www.w3.org/2000/svg" width="369" height="300" fill="none"><g clip-path="url(#a)"><path fill="#93A3F6" d="M184.5 276.035c85.213 0 154.291-10.242 154.291-22.876 0-12.633-69.078-22.875-154.291-22.875S30.21 240.526 30.21 253.159c0 12.634 69.077 22.876 154.29 22.876" opacity=".1"/><path fill="#A7B5F8" stroke="#6079F1" stroke-linecap="round" stroke-linejoin="round" stroke-width=".7" d="M46.941 48.332a9.2 9.2 0 0 1 7.073-1.898c9.885 1.488 96.396 13.246 116.671 15.95l2.177.292 2.182.292 2.734.364 2.203.293 2.198.292 2.157.287 1.078.144 2.146.287c19.295 2.58 128.519 18.021 138.001 19.447a12.2 12.2 0 0 1 7.377 3.997c1.863 2.103 2.998 4.858 3.091 7.88v155.506a13.22 13.22 0 0 1-4.592 10.004q-.52.453-1.078.846l-9.58 6.751-6.975-5.53c-10.53-1.498-116.076-16.436-130.934-18.406l-2.239-.297-2.589-.344-2.595-.344-2.59-.343-1.099-.149c-20.765-2.75-108.003-14.569-118.059-16.082a12.16 12.16 0 0 1-7.351-3.997c-1.852-2.103-2.987-4.853-3.08-7.869V63.646l-8.002-8.378 11.67-6.936z"/><path fill="#fff" stroke="#6079F1" stroke-linecap="round" stroke-linejoin="round" stroke-width=".7" d="M36.474 54.73a9.4 9.4 0 0 1 7.563-2.237c9.9 1.472 95.313 13.698 115.603 16.376l2.219.292 2.223.292 2.224.293 1.114.149 1.115.148 2.233.293c21.942 2.893 136.577 18.966 147.261 20.556 3.08.457 5.732 1.975 7.61 4.15 1.883 2.18 2.997 5.028 2.997 8.132v155.229c0 3.807-1.687 7.48-4.659 10.009-2.93 2.534-6.794 3.684-10.565 3.119-10.777-1.6-122.518-17.298-141.715-19.812l-2.621-.344-2.626-.344-2.626-.343-2.62-.344c-20.951-2.745-107.334-15.057-117.477-16.571a12.32 12.32 0 0 1-7.579-4.15c-1.878-2.18-2.987-5.023-2.987-8.121V61.871a9.4 9.4 0 0 1 3.313-7.141"/><mask id="b" width="384" height="225" x="-9" y="53" maskUnits="userSpaceOnUse" style="mask-type:alpha"><path fill="#D9D9D9" d="m-8.776 53.623 383.261 52.343-1.294 171.468L2.648 222.82z"/></mask><g mask="url(#b)"><path fill="#fff" stroke="#6079F1" stroke-linecap="round" stroke-linejoin="round" stroke-width=".7" d="M47.034 239.259a5.06 5.06 0 0 1 4.07-1.205c5.329.793 174.74 24.813 185.656 26.253l1.192.158 1.195.159 1.199.158.601.079.6.079 1.202.159c5.024.548 62.159 9.081 67.913 9.936a6.68 6.68 0 0 1 4.094 2.235 6.68 6.68 0 0 1 1.613 4.375l.177 58.65c0 2.05-.909 4.028-2.506 5.388-1.577 1.364-3.656 1.981-5.688 1.681-5.8-.862-54.596-7.453-64.924-8.81l-1.411-.185-1.411-.185-1.415-.185-1.411-.185c-11.278-1.476-181.384-25.281-186.845-26.093a6.65 6.65 0 0 1-4.077-2.236 6.67 6.67 0 0 1-1.607-4.371v-62.008c0-1.466.648-2.879 1.783-3.843z"/><path stroke="#A7B5F8" stroke-linecap="round" stroke-linejoin="round" stroke-width="4" d="m58.991 249.507 20.127 2.641M58.991 260.522l103.118 15.227M58.991 271.538l81.761 11.795"/><path stroke="#FFDBDB" stroke-linecap="round" stroke-linejoin="round" stroke-width="4" d="m223.041 273.315 20.128 2.641"/><path fill="#fff" stroke="#6079F1" stroke-linecap="round" stroke-linejoin="round" stroke-opacity=".4" stroke-width=".7" d="M42.048 108.775a4.45 4.45 0 0 1 3.578-1.06c4.685.697 203.685 29.901 213.282 31.167l1.048.139 1.051.14 1.053.139.529.07.528.069 1.057.14c4.416.481 44.312 6.802 49.37 7.554a5.87 5.87 0 0 1 3.599 1.965 5.86 5.86 0 0 1 1.419 3.846l.001 72.925c0 1.803-.8 3.542-2.204 4.737a6.26 6.26 0 0 1-5 1.478c-5.099-.758-37.663-5.371-46.744-6.564l-1.24-.163-1.241-.162-1.243-.163-1.241-.163c-9.915-1.297-209.37-31.187-214.172-31.901a5.84 5.84 0 0 1-3.584-1.965 5.86 5.86 0 0 1-1.413-3.843v-75.004a4.44 4.44 0 0 1 1.567-3.378z"/><path fill="#fff" stroke="#6079F1" stroke-linecap="round" stroke-linejoin="round" stroke-width=".7" d="M51.674 162.999a4.14 4.14 0 0 1 3.328-.985c4.357.648 189.423 27.807 198.348 28.984l.974.13.978.129.98.13.491.065.491.064.983.13c4.107.448 41.21 6.326 45.914 7.025a5.46 5.46 0 0 1 3.347 1.828 5.45 5.45 0 0 1 1.319 3.576v14.953a5.8 5.8 0 0 1-2.049 4.406 5.82 5.82 0 0 1-4.65 1.373c-4.743-.704-35.026-4.995-43.471-6.104l-1.154-.151-1.154-.151-1.156-.152-1.154-.151c-9.221-1.206-194.71-29.003-199.175-29.667a5.43 5.43 0 0 1-3.334-1.828 5.45 5.45 0 0 1-1.314-3.574v-16.885a4.13 4.13 0 0 1 1.458-3.142z"/><path fill="#93A3F6" d="m76.815 175.722-19.803-2.576C55.902 173 55 172.022 55 170.961v-.28c0-1.061.902-1.806 2.012-1.663l19.803 2.575c1.11.146 2.013 1.124 2.013 2.185v.28c0 1.061-.903 1.806-2.013 1.664"/><path fill="#CCD4FC" d="m105.792 178.33-20.314-2.794c-.298-.039-.541-.303-.541-.588v-.264c0-.286.243-.487.541-.448l20.314 2.794c.299.039.542.302.542.588v.264c0 .286-.243.486-.542.448M300.733 206.735l-12.137-1.713c-.299-.039-.542-.302-.542-.588v-.264c0-.286.243-.486.542-.448l12.137 1.712c.298.04.541.303.541.589v.264c0 .285-.243.486-.541.448M140.468 183.645l-26.774-4.006c-.299-.039-.542-.302-.542-.588v-.264c0-.286.243-.486.542-.448l26.774 4.006c.299.039.542.302.542.588v.264c0 .286-.243.486-.542.448M176.041 188.863l-26.764-4.03c-.298-.04-.541-.303-.541-.589v-.264c0-.285.243-.486.541-.447l26.764 4.03c.299.039.542.302.542.588v.264c0 .286-.243.486-.542.448M213.203 194.461l-26.842-4.042c-.299-.039-.542-.302-.542-.588v-.264c0-.286.243-.486.542-.448l26.842 4.042c.299.039.541.303.541.588v.264c0 .286-.242.487-.541.448M250.615 199.915l-26.849-3.916c-.299-.04-.542-.303-.542-.589v-.264c0-.285.243-.486.542-.447l26.849 3.916c.299.039.542.302.542.588v.264c0 .286-.243.486-.542.448"/><path fill="#FFDBDB" d="m285.339 204.643-26.86-3.706c-.299-.039-.542-.303-.542-.588v-.264c0-.286.243-.487.542-.448l26.86 3.706c.299.04.542.303.542.589v.264c0 .285-.243.486-.542.447"/><path fill="#93A3F6" d="m69 184.809-11.988-1.663C55.902 183 55 182.022 55 180.961v-.28c0-1.061.902-1.806 2.012-1.663L69 180.681c1.11.146 2.012 1.124 2.012 2.185v.28c0 1.061-.902 1.806-2.012 1.663"/><path fill="#CCD4FC" d="m105.621 188.116-20.314-2.794c-.299-.039-.542-.303-.542-.588v-.264c0-.286.243-.487.542-.448l20.314 2.794c.299.039.542.302.542.588v.264c0 .286-.243.486-.542.448M300.561 216.521l-12.137-1.713c-.299-.039-.541-.302-.541-.588v-.264c0-.286.242-.486.541-.448l12.137 1.713c.299.039.542.302.542.588v.264c0 .286-.243.486-.542.448M140.296 193.431l-26.773-4.006c-.299-.039-.542-.302-.542-.588v-.264c0-.286.243-.486.542-.448l26.773 4.006c.299.039.542.302.542.588v.264c0 .286-.243.486-.542.448M175.87 198.649l-26.764-4.03c-.299-.039-.542-.303-.542-.588v-.264c0-.286.243-.487.542-.448l26.764 4.03c.299.039.542.303.542.588v.264c0 .286-.243.487-.542.448M213.031 204.247l-26.842-4.042c-.299-.039-.542-.302-.542-.588v-.264c0-.286.243-.486.542-.448l26.842 4.042c.299.039.542.303.542.588v.265c0 .285-.243.486-.542.447M250.444 209.701l-26.85-3.916c-.299-.039-.542-.303-.542-.588v-.264c0-.286.243-.487.542-.448l26.85 3.916c.299.039.542.303.542.588v.264c0 .286-.243.487-.542.448"/><path fill="#FFDBDB" d="m285.168 214.43-26.86-3.707c-.299-.039-.542-.302-.542-.588v-.264c0-.286.243-.487.542-.448l26.86 3.706c.299.04.542.303.542.589v.264c0 .285-.243.486-.542.448"/><path fill="#93A3F6" d="m71.5 162.5-19.716-2.753c-.984-.122-1.784-.938-1.784-1.824s.8-1.508 1.784-1.389l19.716 2.753c.984.122 1.784.938 1.784 1.824s-.8 1.508-1.784 1.389"/><path fill="#CCD4FC" d="m95.523 165.987-19.046-2.773c-.815-.109-1.477-.838-1.477-1.63v-1.33c0-.792.662-1.347 1.477-1.241l19.046 2.773c.815.109 1.477.838 1.477 1.63v1.33c0 .792-.662 1.347-1.477 1.241"/><path fill="#FFDBDB" d="m304.557 195.978-24.115-3.64c-1.347-.18-2.442-1.389-2.442-2.701l.001-.559c0-1.312 1.095-2.233 2.442-2.056l24.115 3.64c1.347.18 2.442 1.389 2.442 2.701l-.001.559c0 1.312-1.095 2.233-2.442 2.056"/><path fill="#93A3F6" d="m72.072 105.002-28.52-3.71c-1.6-.21-2.899-1.618-2.899-3.147v-2.569c0-1.529 1.3-2.601 2.898-2.396l28.52 3.71c1.6.21 2.899 1.618 2.899 3.147v2.569c0 1.529-1.3 2.601-2.898 2.396"/><path fill="#CCD4FC" d="m312.581 141.076-28.52-3.71c-1.599-.21-2.899-1.618-2.899-3.147l.001-.651c0-1.528 1.3-2.601 2.899-2.395l28.52 3.71c1.599.21 2.898 1.618 2.898 3.146l-.001.651c0 1.528-1.299 2.601-2.898 2.396"/><path fill="#3F5BD9" d="m274.362 136.471-28.521-3.71c-1.598-.21-2.898-1.618-2.898-3.146v-2.569c0-1.529 1.3-2.602 2.898-2.396l28.521 3.71c1.598.21 2.898 1.618 2.898 3.146v2.569c0 1.529-1.3 2.602-2.898 2.396"/><path fill="#fff" stroke="#6079F1" stroke-linecap="round" stroke-linejoin="round" stroke-width=".7" d="M51.674 123.999a4.14 4.14 0 0 1 3.328-.985c4.357.648 189.423 27.807 198.348 28.984l.974.13.978.129.98.13.491.065.491.064.983.13c4.107.448 41.21 6.326 45.914 7.025a5.46 5.46 0 0 1 3.347 1.828 5.45 5.45 0 0 1 1.319 3.576v14.953a5.8 5.8 0 0 1-2.049 4.406 5.82 5.82 0 0 1-4.65 1.373c-4.743-.704-35.026-4.995-43.471-6.104l-1.154-.151-1.154-.151-1.156-.152-1.154-.151c-9.221-1.206-194.71-29.003-199.175-29.667a5.43 5.43 0 0 1-3.334-1.828 5.45 5.45 0 0 1-1.314-3.574v-16.885a4.13 4.13 0 0 1 1.458-3.142z"/><path fill="#93A3F6" d="m72.488 136.089-15.476-1.943C55.902 134 55 133.022 55 131.961v-.28c0-1.061.902-1.806 2.012-1.663l15.476 1.943c1.11.146 2.012 1.123 2.012 2.185v.279c0 1.062-.902 1.807-2.012 1.664"/><path fill="#CCD4FC" d="m105.792 139.33-20.314-2.794c-.298-.039-.541-.303-.541-.588v-.264c0-.286.243-.487.541-.448l20.314 2.794c.299.039.542.302.542.588v.264c0 .286-.243.486-.542.448M300.733 167.735l-12.137-1.713c-.299-.039-.542-.302-.542-.588v-.264c0-.286.243-.486.542-.448l12.137 1.712c.298.04.541.303.541.589v.264c0 .285-.243.486-.541.448M140.468 144.645l-26.774-4.006c-.299-.039-.542-.302-.542-.588v-.264c0-.286.243-.486.542-.448l26.774 4.006c.299.039.542.302.542.588v.264c0 .286-.243.486-.542.448M176.041 149.863l-26.764-4.03c-.298-.04-.541-.303-.541-.589v-.264c0-.285.243-.486.541-.447l26.764 4.03c.299.039.542.302.542.588v.264c0 .286-.243.486-.542.448M213.203 155.461l-26.842-4.042c-.299-.039-.542-.302-.542-.588v-.264c0-.286.243-.486.542-.448l26.842 4.042c.299.039.541.303.541.588v.264c0 .286-.242.487-.541.448M250.615 160.915l-26.849-3.916c-.299-.04-.542-.303-.542-.589v-.264c0-.285.243-.486.542-.447l26.849 3.916c.299.039.542.302.542.588v.264c0 .286-.243.486-.542.448"/><path fill="#ADDAD1" d="m285.339 165.643-26.86-3.706c-.299-.039-.542-.303-.542-.588v-.264c0-.286.243-.487.542-.448l26.86 3.706c.299.04.542.303.542.589v.264c0 .285-.243.486-.542.447"/><path fill="#93A3F6" d="m76.663 146.645-19.803-2.576c-1.11-.146-2.013-1.124-2.013-2.185v-.203c0-1.061.903-1.806 2.013-1.663l19.802 2.576c1.11.145 2.013 1.123 2.013 2.184v.203c0 1.061-.902 1.806-2.013 1.664"/><path fill="#CCD4FC" d="m105.621 149.116-20.314-2.794c-.299-.039-.542-.303-.542-.588v-.264c0-.286.243-.487.542-.448l20.314 2.794c.299.039.542.302.542.588v.264c0 .286-.243.486-.542.448M300.561 177.521l-12.137-1.713c-.299-.039-.541-.302-.541-.588v-.264c0-.286.242-.486.541-.448l12.137 1.713c.299.039.542.302.542.588v.264c0 .286-.243.486-.542.448M140.296 154.431l-26.773-4.006c-.299-.039-.542-.302-.542-.588v-.264c0-.286.243-.486.542-.448l26.773 4.006c.299.039.542.302.542.588v.264c0 .286-.243.486-.542.448M175.87 159.649l-26.764-4.03c-.299-.039-.542-.303-.542-.588v-.264c0-.286.243-.487.542-.448l26.764 4.03c.299.039.542.303.542.588v.264c0 .286-.243.487-.542.448M213.031 165.247l-26.842-4.042c-.299-.039-.542-.302-.542-.588v-.264c0-.286.243-.486.542-.448l26.842 4.042c.299.039.542.303.542.588v.265c0 .285-.243.486-.542.447M250.444 170.701l-26.85-3.916c-.299-.039-.542-.303-.542-.588v-.264c0-.286.243-.487.542-.448l26.85 3.916c.299.039.542.303.542.588v.264c0 .286-.243.487-.542.448"/><path fill="#FFDBDB" d="m285.168 175.43-26.86-3.707c-.299-.039-.542-.302-.542-.588v-.264c0-.286.243-.487.542-.448l26.86 3.706c.299.04.542.303.542.589v.264c0 .285-.243.486-.542.448"/><path fill="#93A3F6" d="m90.216 125.985-38.432-5.238c-.984-.122-1.784-.938-1.784-1.824s.8-1.508 1.784-1.389l38.432 5.238c.984.122 1.784.938 1.784 1.824s-.8 1.509-1.784 1.389"/><path fill="#CCD4FC" d="m113.523 129.987-19.046-2.773c-.815-.109-1.477-.838-1.477-1.63v-1.33c0-.792.662-1.347 1.477-1.241l19.046 2.773c.815.109 1.477.838 1.477 1.63v1.33c0 .792-.662 1.347-1.477 1.241"/><path fill="#ADDAD1" d="m304.557 156.978-24.115-3.64c-1.347-.18-2.442-1.389-2.442-2.701l.001-.559c0-1.312 1.095-2.233 2.442-2.056l24.115 3.64c1.347.18 2.442 1.389 2.442 2.701l-.001.559c0 1.312-1.095 2.233-2.442 2.056"/><path fill="#fff" stroke="#6079F1" stroke-linecap="round" stroke-linejoin="round" stroke-width=".7" d="M44.71 68.01a3.72 3.72 0 0 1 2.996-.887c3.92.583 18.602 2.94 26.633 4l.877.116.88.117.881.116.442.059.442.058.885.117c3.696.402 20.981 3.26 25.214 3.889a4.9 4.9 0 0 1 3.012 1.644 4.9 4.9 0 0 1 1.187 3.219v7.846a5.22 5.22 0 0 1-1.844 3.964 5.24 5.24 0 0 1-4.184 1.237c-4.267-.634-15.417-2.063-23.016-3.06l-1.039-.137-1.038-.136-1.04-.136-1.038-.136c-8.298-1.086-23.36-4.017-27.379-4.615a4.9 4.9 0 0 1-3-1.644 4.9 4.9 0 0 1-1.182-3.216V70.84c0-1.078.477-2.118 1.312-2.827z"/><path stroke="#A7B5F8" stroke-linecap="round" stroke-linejoin="round" d="m57.88 75.36 21.063 2.765"/><path stroke="#A7B5F8" stroke-linecap="round" stroke-linejoin="round" stroke-width="2" d="m57.88 80.366 45.346 6.361"/><path fill="#A7B5F8" d="M53.122 80.347c1.688-.837 2.297-3.028 1.361-4.893-.935-1.866-3.062-2.7-4.75-1.862-1.687.837-2.297 3.028-1.361 4.893.935 1.866 3.062 2.7 4.75 1.862"/><path fill="#fff" stroke="#6079F1" stroke-linecap="round" stroke-linejoin="round" stroke-width=".7" d="M114.79 78.784a3.73 3.73 0 0 1 2.995-.887c3.92.583 18.602 2.94 26.633 4l.877.116.88.117.882.117.442.058.442.058.884.117c3.696.403 20.982 3.26 25.215 3.89a4.9 4.9 0 0 1 3.012 1.643 4.9 4.9 0 0 1 1.187 3.219v7.846a5.22 5.22 0 0 1-1.844 3.965 5.24 5.24 0 0 1-4.185 1.236c-4.267-.634-15.417-2.062-23.016-3.06l-1.038-.136-1.038-.137-1.041-.136-1.038-.136c-8.298-1.085-23.36-4.017-27.379-4.614a4.89 4.89 0 0 1-2.999-1.645 4.9 4.9 0 0 1-1.182-3.216v-9.585c0-1.079.476-2.118 1.311-2.828z"/><path stroke="#A7B5F8" stroke-linecap="round" stroke-linejoin="round" d="m127.959 86.135 21.063 2.764"/><path stroke="#A7B5F8" stroke-linecap="round" stroke-linejoin="round" stroke-width="2" d="m127.959 91.14 45.346 6.361"/><path fill="#A7B5F8" d="M123.201 91.122c1.688-.837 2.297-3.028 1.361-4.894-.935-1.865-3.062-2.699-4.75-1.862-1.687.837-2.297 3.028-1.361 4.894.935 1.865 3.062 2.699 4.75 1.862"/><path fill="#fff" stroke="#6079F1" stroke-linecap="round" stroke-linejoin="round" stroke-width=".7" d="M184.869 89.793a3.73 3.73 0 0 1 2.995-.887c3.921.583 18.602 2.94 26.634 4l.876.116.88.117.882.117.442.058.442.058.884.117c3.696.403 20.982 3.26 25.215 3.889a4.9 4.9 0 0 1 3.012 1.644 4.9 4.9 0 0 1 1.187 3.219v7.846a5.22 5.22 0 0 1-1.844 3.964 5.24 5.24 0 0 1-4.185 1.237c-4.267-.634-15.417-2.062-23.016-3.061l-1.038-.136-1.038-.136-1.041-.136-1.038-.136c-8.298-1.086-23.36-4.017-27.378-4.614a4.88 4.88 0 0 1-3-1.645 4.9 4.9 0 0 1-1.182-3.216v-9.585c0-1.079.476-2.119 1.311-2.828z"/><path stroke="#A7B5F8" stroke-linecap="round" stroke-linejoin="round" d="m198.038 97.144 21.063 2.764"/><path stroke="#ADDAD1" stroke-linecap="round" stroke-linejoin="round" stroke-width="2" d="m198.038 102.149 45.346 6.361"/><path fill="#ADDAD1" d="M193.28 102.131c1.688-.838 2.297-3.028 1.362-4.894-.936-1.865-3.063-2.7-4.75-1.862-1.688.837-2.298 3.028-1.362 4.893.936 1.866 3.063 2.7 4.75 1.863"/><path fill="#fff" stroke="#6079F1" stroke-linecap="round" stroke-linejoin="round" stroke-width=".7" d="M254.949 101.051a3.73 3.73 0 0 1 2.995-.887c3.92.583 18.601 2.941 26.633 4l.877.117.879.116.882.117.442.058.442.058.885.117c3.696.403 20.981 3.26 25.214 3.889a4.9 4.9 0 0 1 3.012 1.645 4.9 4.9 0 0 1 1.187 3.218v7.847a5.22 5.22 0 0 1-1.844 3.964 5.24 5.24 0 0 1-4.184 1.236c-4.268-.634-15.417-2.062-23.017-3.06l-1.038-.136-1.038-.136-1.04-.136-1.039-.136c-8.297-1.086-23.36-4.017-27.378-4.615a4.9 4.9 0 0 1-3-1.644 4.9 4.9 0 0 1-1.182-3.216v-9.586c0-1.079.476-2.118 1.312-2.828z"/><path stroke="#A7B5F8" stroke-linecap="round" stroke-linejoin="round" d="m268.117 108.402 21.064 2.765"/><path stroke="#FFDBDB" stroke-linecap="round" stroke-linejoin="round" stroke-width="2" d="m268.117 113.407 45.346 6.362"/><path fill="#FFDBDB" d="M263.36 113.389c1.687-.837 2.297-3.028 1.361-4.893-.936-1.866-3.062-2.7-4.75-1.863s-2.297 3.028-1.362 4.894c.936 1.866 3.063 2.699 4.751 1.862"/><path fill="#fff" stroke="#6079F1" stroke-linecap="round" stroke-linejoin="round" stroke-width=".7" d="M49.482 203.26a4.78 4.78 0 0 1 3.843-1.138c5.033.748 165.019 23.432 175.328 24.792l1.125.149 1.129.15 1.132.15.567.074.568.075 1.135.15c4.744.517 58.701 8.576 64.134 9.383a6.3 6.3 0 0 1 3.866 2.111 6.3 6.3 0 0 1 1.524 4.131L304 254.62a6.7 6.7 0 0 1-2.367 5.089c-1.49 1.287-3.452 1.87-5.371 1.587-5.478-.814-51.559-7.039-61.313-8.32l-1.332-.175-1.333-.174-1.336-.175-1.332-.174c-10.651-1.394-171.293-23.875-176.45-24.642a6.27 6.27 0 0 1-3.85-2.111 6.3 6.3 0 0 1-1.518-4.128v-14.505a4.77 4.77 0 0 1 1.683-3.629z"/><path fill="#93A3F6" d="m120.305 233.383-62.845-8.145c-3.523-.461-6.387-3.553-6.387-6.909v-5.64c0-3.356 2.864-5.712 6.387-5.26l62.845 8.145c6.152 1.083 6.39 1.327 6.387 6.908v5.641c0 3.356-2.864 5.711-6.387 5.26"/><path fill="#C7B4E9" d="m244.162 233.587 49.451 6.548c3.523.462 6.387 3.553 6.387 6.909v5.641c0 3.356-2.864 5.711-6.387 5.26l-49.436-6.673c-6.156-1.016-6.404-1.203-6.402-6.784v-5.641c0-3.356 2.864-5.711 6.387-5.26"/><path fill="#B3BFFE" d="m114.543 232.642 52.463 7.268-.016-17.8-52.447-7.26z"/><path fill="#CBD4FF" d="m166.997 239.898 47.93 7.008-.016-17.801-47.914-6.999z"/><path fill="#DFE4FF" d="m214.962 246.933 34.041 5.016-.016-17.8-34.025-5.009z"/></g><path fill="#A7B5F8" stroke="#6079F1" stroke-width=".7" d="M171.148 25.105c-3.637.857-6.335 2.596-9.038 4.135 1.408 15.098 5.004 44.3 11.628 44.648s12.516-1.16 14.213-2.175c13.408-4.879 15.751-19.161 13.795-26.57-5.298-20.038-22.514-22.218-30.598-20.038Z"/><path fill="#D1D7F2" stroke="#6079F1" stroke-width=".7" d="M187.074 71.21a21 21 0 0 1-4.855 2.058c-.836.246-1.702.426-2.564.554-2.92.441-5.969.308-8.961-.467-3.065-.785-6.083-2.221-8.848-4.32-10.638-8.11-13.537-23.142-6.485-33.561 1.842-2.709 4.158-4.848 6.79-6.367 2.553-1.493 5.401-2.406 8.347-2.729a20 20 0 0 1 2.652-.123 21.8 21.8 0 0 1 5.391.708c3.064.785 6.082 2.221 8.847 4.32 10.628 8.11 13.527 23.142 6.47 33.561-1.842 2.709-4.158 4.848-6.789 6.367z"/><path fill="#A4B2F7" d="M189.674 61.648c-.114.16-.217.323-.33.467-5.629 7.731-16.576 9.019-24.722 2.801-8.152-6.218-10.489-17.632-5.376-25.764.103-.164.206-.323.32-.482 5.525-8.147 16.741-9.62 25.052-3.268s10.581 18.1 5.056 26.251z"/><path fill="#F0F2FD" d="M189.344 62.13c-5.629 7.732-16.576 9.02-24.722 2.801-8.152-6.217-10.489-17.632-5.376-25.763 5.628-7.732 16.576-9.02 24.722-2.801 8.146 6.217 10.488 17.632 5.376 25.763"/><path fill="#D2D9FB" d="m177.627 45.086 2.776.4 1.594-2.022-10.865-1.549-1.594 2.021 5.004.708h-.015a3.84 3.84 0 0 1 1.016 1.642l-4.638-.667-1.594 2.021 6.211.883c-.485 1.39-1.836 2.257-3.374 2.047l-2.997-.426-.186 1.975 6.284 10.414 2.987.42-5.912-9.864c2.734.236 5.086-1.56 5.68-4.217l2.177.313 1.594-2.022-3.689-.523a6.2 6.2 0 0 0-.449-1.56h-.005z"/><path stroke="#6079F1" stroke-linecap="round" stroke-linejoin="round" stroke-width=".7" d="M98.076 32.643c1.733 0 3.137-1.385 3.137-3.094s-1.404-3.093-3.137-3.093c-1.732 0-3.136 1.385-3.136 3.093 0 1.709 1.404 3.094 3.136 3.094M228.375 46.333c1.039 0 1.881-.83 1.881-1.855s-.842-1.855-1.881-1.855c-1.038 0-1.88.83-1.88 1.855s.842 1.855 1.88 1.855M328.338 65.249l2.957 12.393 8.044-10.949zM345.131 80.362l-4.318 6.284 8.088-.82zM135.74 47.237l-8.087 4.014-3.476-7.063 8.087-4.006 3.476 7.063z"/></g><defs><clipPath id="a"><path fill="#fff" d="M.817 0h367.367v300H.817z"/></clipPath></defs></svg>