<svg xmlns="http://www.w3.org/2000/svg" width="369" height="300" fill="none"><path fill="#93A3F6" d="M184.5 276.035c85.213 0 154.291-10.242 154.291-22.876 0-12.633-69.078-22.875-154.291-22.875S30.21 240.526 30.21 253.159c0 12.634 69.077 22.876 154.29 22.876" opacity=".1"/><path fill="#A7B5F8" stroke="#6079F1" stroke-linecap="round" stroke-linejoin="round" stroke-width=".7" d="M46.941 48.332a9.2 9.2 0 0 1 7.073-1.898c9.885 1.488 96.396 13.245 116.671 15.949l2.177.292 2.182.293 2.734.364 2.203.292 2.198.293 2.157.287 1.078.144 2.146.287c19.295 2.58 128.519 18.021 138.001 19.447a12.2 12.2 0 0 1 7.377 3.997c1.863 2.103 2.998 4.858 3.091 7.88v155.506a13.22 13.22 0 0 1-4.592 10.003q-.52.454-1.078.847l-9.58 6.751-6.975-5.53c-10.53-1.498-116.076-16.436-130.934-18.406l-2.239-.297-2.589-.344-2.595-.344-2.59-.344-1.099-.148c-20.765-2.75-108.003-14.569-118.059-16.082a12.17 12.17 0 0 1-7.351-3.997c-1.852-2.103-2.987-4.853-3.08-7.87V63.646l-8.002-8.378 11.67-6.936z"/><path fill="#fff" stroke="#6079F1" stroke-linecap="round" stroke-linejoin="round" stroke-width=".7" d="M36.474 54.73a9.4 9.4 0 0 1 7.563-2.237c9.9 1.472 95.313 13.697 115.603 16.375l2.219.293 2.223.292 2.224.293 1.114.148 1.115.15 2.233.292c21.942 2.893 136.577 18.966 147.261 20.556 3.08.457 5.732 1.975 7.61 4.15 1.883 2.18 2.997 5.028 2.997 8.132v155.229c0 3.807-1.687 7.48-4.659 10.009-2.93 2.534-6.794 3.684-10.565 3.119-10.777-1.6-122.518-17.298-141.715-19.812l-2.621-.344-2.626-.344-2.626-.343-2.62-.344c-20.951-2.745-107.334-15.057-117.477-16.571a12.32 12.32 0 0 1-7.579-4.15c-1.878-2.18-2.987-5.023-2.987-8.121V61.871a9.4 9.4 0 0 1 3.313-7.141"/><mask id="a" width="435" height="242" x="-33" y="43" maskUnits="userSpaceOnUse" style="mask-type:alpha"><path fill="#D9D9D9" d="M-33 43h435v242H-33z"/></mask><g mask="url(#a)"><path fill="#fff" stroke="#6079F1" stroke-linecap="round" stroke-linejoin="round" stroke-width=".7" d="M47.034 146.005a5.06 5.06 0 0 1 4.07-1.205c5.329.792 174.74 24.813 185.656 26.252l1.192.159 1.195.158 1.199.159.6.079.601.079 1.202.159c5.024.547 62.159 9.081 67.913 9.936a6.68 6.68 0 0 1 4.094 2.235 6.68 6.68 0 0 1 1.613 4.375l.177 36.65c0 2.05-.91 4.028-2.507 5.388-1.577 1.363-3.655 1.981-5.687 1.68-5.8-.861-54.596-7.453-64.925-8.81l-1.411-.184-1.411-.185-1.414-.185-1.411-.185c-11.278-1.476-181.384-25.281-186.845-26.094a6.64 6.64 0 0 1-4.077-2.235 6.67 6.67 0 0 1-1.607-4.371v-40.009c0-1.465.647-2.879 1.783-3.843z"/><path stroke="#A7B5F8" stroke-linecap="round" stroke-linejoin="round" stroke-width="4" d="m58.991 154.253 20.127 2.642M58.99 163.269l103.119 15.226M58.99 172.284l81.762 11.795M58.99 181.299l20.128 2.642M58.99 189.33l20.128 2.642"/><path stroke="#FFDBDB" stroke-linecap="round" stroke-linejoin="round" stroke-width="4" d="m223.041 178.061 20.128 2.641M203.809 183.315l39.509 5.747"/><path stroke="#ADDAD1" stroke-linecap="round" stroke-linejoin="round" stroke-width="4" d="m243.69 197.7 31.33 4.726M243.536 205.829l51.643 7.694"/><path stroke="#FFDBDB" stroke-linecap="round" stroke-linejoin="round" stroke-width="4" d="m196.242 207.677 44.66 5.969"/><path stroke="#6079F1" stroke-linecap="round" stroke-linejoin="round" stroke-width=".7" d="M311.055 271.144v-26.249c0-1.919-.69-3.675-1.853-5.025-1.16-1.346-2.799-2.282-4.702-2.567-6.608-.982-194.851-26.9-200.621-27.529l-1.38-.182-.69-.091-.691-.091-1.376-.182-1.373-.182-1.369-.182c-12.538-1.653-35.157-4.892-41.277-5.802a5.82 5.82 0 0 0-4.675 1.384v.004A5.8 5.8 0 0 0 49 208.864v24.964"/><path stroke="#A7B5F8" stroke-linecap="round" stroke-linejoin="round" stroke-width="2" d="M71.602 216.98 99 220.5"/><path stroke="#FEEED4" stroke-linecap="round" stroke-linejoin="round" stroke-width="4" d="m73 224 20.127 2.641"/><path fill="#ADDAD1" d="M64.176 223.707c2.635-1.307 3.587-4.727 2.126-7.639s-4.781-4.214-7.416-2.907c-2.634 1.306-3.586 4.727-2.125 7.639s4.78 4.214 7.415 2.907"/><path stroke="#A7B5F8" stroke-linecap="round" stroke-linejoin="round" stroke-width="2" d="M121.486 224.186 136 226"/><path stroke="#FEEED4" stroke-linecap="round" stroke-linejoin="round" stroke-width="4" d="m122.884 231.205 20.127 2.642"/><path fill="#FFDBDB" d="M112.929 228.657c1.509-.748 2.053-2.705 1.217-4.372s-2.737-2.412-4.245-1.664-2.052 2.705-1.216 4.373c.836 1.667 2.736 2.412 4.244 1.663"/><path stroke="#A7B5F8" stroke-linecap="round" stroke-linejoin="round" stroke-width="2" d="m171.37 231.391 27.398 3.52"/><path stroke="#FEEED4" stroke-linecap="round" stroke-linejoin="round" stroke-width="4" d="m172.768 238.411 20.127 2.641"/><path fill="#FFDBDB" d="M163.944 238.118c2.635-1.307 3.587-4.727 2.126-7.64s-4.781-4.213-7.416-2.906c-2.634 1.306-3.586 4.727-2.125 7.639s4.781 4.214 7.415 2.907"/><path stroke="#A7B5F8" stroke-linecap="round" stroke-linejoin="round" stroke-width="2" d="m221.254 238.597 27.398 3.519"/><path stroke="#FEEED4" stroke-linecap="round" stroke-linejoin="round" stroke-width="4" d="m222.652 245.616 20.127 2.642"/><path fill="#ADDAD1" d="M213.337 244.344c2.146-1.064 2.921-3.849 1.731-6.221s-3.893-3.431-6.038-2.367-2.921 3.849-1.731 6.221 3.893 3.431 6.038 2.367"/><path stroke="#A7B5F8" stroke-linecap="round" stroke-linejoin="round" stroke-width="2" d="m271.341 246.947 8.863 1.198"/><path stroke="#FEEED4" stroke-linecap="round" stroke-linejoin="round" stroke-width="4" d="m272.74 253.966 20.127 2.642"/><path fill="#ADDAD1" d="M262.795 251.438c1.517-.753 2.065-2.723 1.224-4.401s-2.754-2.427-4.271-1.674c-1.518.753-2.066 2.723-1.224 4.4s2.753 2.427 4.271 1.675"/><path fill="#fff" stroke="#6079F1" stroke-linecap="round" stroke-linejoin="round" stroke-width=".7" d="M19.078 95.42a6.8 6.8 0 0 1 5.468-1.619c7.157 1.064 33.96 5.369 48.622 7.302l1.6.213 1.606.213 1.61.213.807.106.807.106 1.615.213c6.747.736 248.506 37.899 256.234 39.047 2.226.333 4.143 1.428 5.499 3.002a8.96 8.96 0 0 1 2.167 5.876v17.827a9.53 9.53 0 0 1-3.367 7.237c-2.118 1.831-4.909 2.66-7.639 2.257-7.79-1.158-238.348-35.712-252.221-37.534l-1.895-.248-1.895-.249-1.9-.248-1.895-.248c-15.149-1.983-42.647-7.334-49.983-8.425a8.92 8.92 0 0 1-5.476-3.002 8.95 8.95 0 0 1-2.158-5.871v-21.002c0-1.969.87-3.867 2.394-5.162z"/><path fill="#FFF2F2" d="M162.958 140.423 27.203 120.665c-1.824-.24-3.306-1.846-3.306-3.589v-2.497c0-1.744 1.482-2.968 3.306-2.733l135.755 19.758c1.823.24 3.306 1.846 3.306 3.59v2.497c0 1.743-1.483 2.967-3.306 2.732"/><path fill="#F0FAF5" d="M333.557 157.689 169.72 133.774c-1.824-.24-3.306-1.846-3.306-3.589v-2.497c0-1.744 1.482-2.968 3.306-2.733l163.837 23.915c1.824.24 3.306 1.846 3.306 3.589v2.497c0 1.744-1.482 2.968-3.306 2.733"/><path fill="#D64D4D" d="m162.957 140.424-33.546-5.096c-1.824-.24-3.306-1.846-3.306-3.589v-2.497c0-1.744 1.482-2.968 3.306-2.733l33.546 5.095c1.824.24 3.306 1.846 3.306 3.59v2.497c0 1.743-1.482 2.967-3.306 2.733"/><path fill="#008F75" d="m245.535 145.053-75.815-11.279c-1.824-.24-3.306-1.846-3.306-3.589v-2.497c0-1.744 1.482-2.968 3.306-2.733l75.815 11.279c1.823.239 3.306 1.845 3.306 3.589v2.497c0 1.744-1.483 2.967-3.306 2.733"/><path fill="#fff" stroke="#6079F1" stroke-linecap="round" stroke-linejoin="round" stroke-opacity=".6" stroke-width=".7" d="M39.88 61.34a5.3 5.3 0 0 1 4.29-1.282c5.618.843 184.211 26.39 195.719 27.922l1.257.168 1.26.169 1.263.169.634.084.633.084 1.267.169c5.296.582 65.528 9.659 71.594 10.568a7.02 7.02 0 0 1 4.316 2.377 7.14 7.14 0 0 1 1.701 4.653l.186 12.982c0 2.18-.959 4.284-2.643 5.73-1.662 1.451-3.853 2.107-5.995 1.788-6.115-.917-57.555-7.927-68.444-9.371l-1.487-.196-1.488-.197-1.491-.196-1.487-.197c-11.89-1.57-191.216-26.89-196.973-27.754a7 7 0 0 1-4.298-2.377A7.13 7.13 0 0 1 38 81.984V65.43c0-1.559.682-3.062 1.88-4.087z"/><path stroke="#A7B5F8" stroke-linecap="round" stroke-linejoin="round" d="m96.417 79.12 21.749 2.853"/><path stroke="#A7B5F8" stroke-linecap="round" stroke-linejoin="round" stroke-width="2" d="m96.417 84.287 25.888 3.414"/><path fill="#ADDAD1" d="M139.51 90.202a6.5 6.5 0 0 0-.938-3.34c-.605-1.007-1.596-2.246-2.793-2.839l-.679 1.531c.768.41 1.586 1.425 2.034 2.171s.553 1.37.553 2.24z"/><path fill="#FFDBDB" d="M126.622 88.506c0-1.08.246-1.86.762-2.809a6.5 6.5 0 0 1 2.165-2.342c.935-.401 1.783-.588 2.827-.568 1.414.033 2.562.643 3.266 1.106l-.682 1.532c-.637-.507-1.566-.957-2.494-.958-.726-.015-1.402.034-2.073.47s-1.154.857-1.535 1.56a4.6 4.6 0 0 0-.573 2.248z"/><path stroke="#A7B5F8" stroke-linecap="round" stroke-linejoin="round" d="m46.412 71.642 21.749 2.854"/><path stroke="#ADDAD1" stroke-linecap="round" stroke-linejoin="round" stroke-width="2" d="m46.412 76.81 25.887 3.413"/><path fill="#A7B5F8" d="M82.967 82.774c1.743-.865 2.372-3.127 1.406-5.053-.967-1.927-3.162-2.787-4.905-1.923s-2.372 3.127-1.406 5.053 3.162 2.787 4.905 1.922"/><path stroke="#A7B5F8" stroke-linecap="round" stroke-linejoin="round" d="m277.333 105.721 21.749 2.854"/><path stroke="#A7B5F8" stroke-linecap="round" stroke-linejoin="round" stroke-width="2" d="m277.333 110.889 25.888 3.413"/><path fill="#A7B5F8" d="M313.888 116.853c1.743-.865 2.372-3.127 1.406-5.053s-3.162-2.787-4.905-1.923c-1.742.865-2.372 3.127-1.405 5.053s3.162 2.787 4.904 1.923"/><path stroke="#A7B5F8" stroke-linecap="round" stroke-linejoin="round" d="m156.544 87.914 21.749 2.854"/><path stroke="#A7B5F8" stroke-linecap="round" stroke-linejoin="round" stroke-width="2" d="m156.544 93.082 25.888 3.414"/><path fill="#ADDAD1" d="M199.637 98.997a6.5 6.5 0 0 0-.938-3.34c-.605-1.007-1.596-2.246-2.793-2.839l-.679 1.531c.768.41 1.586 1.425 2.034 2.17.448.747.553 1.37.553 2.24z"/><path fill="#FFDBDB" d="M186.749 97.301c0-1.08.246-1.86.762-2.809a6.5 6.5 0 0 1 2.165-2.342c.935-.401 1.783-.589 2.827-.568 1.414.033 2.562.643 3.266 1.106l-.683 1.532c-.636-.507-1.565-.958-2.493-.958-.726-.015-1.402.034-2.073.47s-1.154.857-1.536 1.56a4.63 4.63 0 0 0-.572 2.248z"/><path stroke="#A7B5F8" stroke-linecap="round" stroke-linejoin="round" d="m218.398 96.84 21.748 2.854"/><path stroke="#A7B5F8" stroke-linecap="round" stroke-linejoin="round" stroke-width="2" d="m218.398 102.008 25.887 3.413"/><path fill="#ADDAD1" d="M261.49 107.922a6.5 6.5 0 0 0-.938-3.339c-.604-1.007-1.596-2.246-2.793-2.839l-.679 1.531c.768.409 1.586 1.424 2.034 2.17.448.747.554 1.37.554 2.24z"/><path fill="#FFDBDB" d="M248.602 106.227c0-1.08.247-1.86.762-2.809a6.5 6.5 0 0 1 2.166-2.343c.934-.401 1.782-.588 2.826-.567 1.415.033 2.562.643 3.266 1.105l-.682 1.532c-.636-.506-1.566-.957-2.493-.957-.727-.016-1.402.033-2.074.469s-1.153.858-1.535 1.561a4.6 4.6 0 0 0-.573 2.247z"/></g><path fill="#A7B5F8" stroke="#6079F1" stroke-linecap="round" stroke-linejoin="round" stroke-width=".7" d="M23.426 205.895c15.273-5.267 14.215-27.466 14.215-27.466C31.037 176.782 24.738 172 24.738 172s-6.588 2.725-13.237 2.255l-2.296 2.294 14.22 29.348z"/><path fill="#fff" stroke="#6079F1" stroke-linecap="round" stroke-linejoin="round" stroke-width=".7" d="M21.131 208.189c15.273-5.267 14.214-27.466 14.214-27.466-6.603-1.647-12.902-6.429-12.902-6.429s-6.588 2.725-13.238 2.255c0 0-2.755 21.59 11.926 31.642z"/><path fill="#fff" d="m18.004 188.512 2.702 3.556 5.83-5.24"/><path stroke="#5EC3B5" stroke-linecap="round" stroke-linejoin="round" stroke-width="2" d="m18.004 188.512 2.702 3.556 5.83-5.24"/><path stroke="#6079F1" stroke-linecap="round" stroke-linejoin="round" stroke-width=".7" d="M10.513 220.802c1.733 0 3.137-1.385 3.137-3.094s-1.404-3.093-3.137-3.093c-1.732 0-3.136 1.385-3.136 3.093 0 1.709 1.404 3.094 3.136 3.094M26.481 233.991c1.039 0 1.88-.83 1.88-1.854s-.841-1.855-1.88-1.855-1.88.83-1.88 1.855.841 1.854 1.88 1.854M328.338 65.247l2.957 12.393 8.044-10.95zM345.131 80.36l-4.318 6.284 8.088-.82zM135.739 47.235l-8.086 4.014-3.476-7.063 8.087-4.006 3.475 7.063zM162.293 51.5l-4.251-3.79 3.317-3.695 4.246 3.791-3.317 3.695z"/></svg>