<svg width="352" height="278" viewBox="0 0 352 278" fill="none" xmlns="http://www.w3.org/2000/svg">
<g id="Recommendation">
<g id="Group">
<g id="Group_2">
<g id="_Image1-link">
<g id="Group 5">
<g id="Combined Shape">
<path id="Mask" fill-rule="evenodd" clip-rule="evenodd" d="M275.675 27.6378L274.493 24.1739L270.221 16.0354L290.25 22.9527L287.191 65.744L222.839 118.531L208.998 117.828L265.235 53.5236L270.221 58.1719L275.675 27.6378Z" fill="white" fill-opacity="0.01"/>
<mask id="mask0_4029_48" style="mask-type:alpha" maskUnits="userSpaceOnUse" x="208" y="16" width="83" height="103">
<path id="Mask_2" fill-rule="evenodd" clip-rule="evenodd" d="M275.675 27.6378L274.493 24.1739L270.221 16.0354L290.25 22.9527L287.191 65.744L222.839 118.531L208.998 117.828L265.235 53.5236L270.221 58.1719L275.675 27.6378Z" fill="white"/>
</mask>
<g mask="url(#mask0_4029_48)">
<path id="Combined Shape_2" d="M209.773 98.8865L209.246 98.4286L209.246 98.4286L209.773 98.8865ZM209.677 99.659L209.054 99.9737L209.054 99.9737L209.677 99.659ZM257.482 43.979L258.015 43.5291C258.237 43.792 258.234 44.1772 258.008 44.4368L257.482 43.979ZM252.138 37.6395L252.672 37.1896L252.672 37.1896L252.138 37.6395ZM252.374 36.558L252.672 37.1896L252.374 36.558ZM275.026 25.8957L275.323 26.5272L275.323 26.5272L275.026 25.8957ZM275.439 25.8389L275.323 26.5272L275.323 26.5272L275.439 25.8389ZM283.431 27.1835L283.547 26.4952L283.547 26.4952L283.431 27.1835ZM284.005 27.9769L284.695 28.0819L284.695 28.0819L284.005 27.9769ZM279.397 58.2575L278.706 58.1525L278.706 58.1525L279.397 58.2575ZM278.721 58.8503L278.735 59.5482L278.735 59.5482L278.721 58.8503ZM270.498 59.0196L270.513 59.7174L270.498 59.0196ZM270.358 59.0083L269.833 58.5485C269.995 58.3635 270.242 58.2773 270.484 58.3217L270.358 59.0083ZM225.065 110.752L225.591 111.212L225.591 111.212L225.065 110.752ZM224.514 110.99L224.54 110.292L224.54 110.292L224.514 110.99ZM215.636 110.657L215.61 111.355L215.61 111.355L215.636 110.657ZM215.039 110.274L215.662 109.959L215.662 109.959L215.039 110.274ZM269.342 58.0497L269.875 57.5998C270.098 57.8635 270.094 58.25 269.867 58.5094L269.342 58.0497ZM224.234 109.582L224.759 110.042C224.621 110.2 224.418 110.288 224.208 110.28L224.234 109.582ZM216.1 109.277L216.074 109.975C215.82 109.965 215.591 109.819 215.477 109.592L216.1 109.277ZM211.135 99.4481L210.512 99.7628C210.384 99.5097 210.422 99.2044 210.608 98.9903L211.135 99.4481ZM258.392 45.0594L257.865 44.6016C257.999 44.4476 258.193 44.3598 258.397 44.3614C258.601 44.3629 258.794 44.4536 258.926 44.6095L258.392 45.0594ZM270.272 56.9871L270.797 57.4468C270.663 57.6 270.469 57.687 270.265 57.6851C270.062 57.6832 269.869 57.5925 269.738 57.4369L270.272 56.9871ZM259.319 43.9928L258.785 44.4426C258.564 44.1797 258.567 43.7945 258.792 43.5349L259.319 43.9928ZM272.133 54.861L272.593 54.336C272.883 54.59 272.912 55.0308 272.658 55.3207L272.133 54.861ZM259.496 43.7888L258.969 43.331C259.091 43.1909 259.264 43.105 259.449 43.0924C259.634 43.0798 259.817 43.1415 259.956 43.2638L259.496 43.7888ZM258.902 42.3441L259.429 42.8019L259.429 42.8019L258.902 42.3441ZM258.408 42.9124L258.935 43.3702C258.801 43.5241 258.607 43.6119 258.403 43.6104C258.199 43.6088 258.006 43.5182 257.875 43.3622L258.408 42.9124ZM259.382 42.1055L259.334 41.4091L259.334 41.4091L259.382 42.1055ZM259.889 42.2769L260.349 41.7519L260.349 41.7519L259.889 42.2769ZM273.578 54.2708L273.118 54.7958L273.118 54.7958L273.578 54.2708ZM273.643 55.2555L273.118 54.7958L273.643 55.2555ZM271.59 57.6008L271.604 58.2986C271.328 58.3043 271.074 58.1463 270.957 57.8957C270.841 57.645 270.883 57.3491 271.065 57.141L271.59 57.6008ZM278.105 57.4667L278.795 57.5717C278.744 57.9074 278.459 58.1576 278.119 58.1646L278.105 57.4667ZM282.522 28.4462L282.638 27.7579C283.013 27.8211 283.269 28.1743 283.212 28.5512L282.522 28.4462ZM275.423 27.2518L275.125 26.6203C275.254 26.5597 275.398 26.5399 275.539 26.5635L275.423 27.2518ZM253.791 37.4343L253.257 37.8841C253.117 37.7183 253.063 37.497 253.109 37.2852C253.155 37.0734 253.297 36.8951 253.494 36.8027L253.791 37.4343ZM210.3 99.3443L210.3 99.3443L209.054 99.9737C208.798 99.4675 208.874 98.8568 209.246 98.4286L210.3 99.3443ZM258.008 44.4368L210.3 99.3443L209.246 98.4286L256.955 43.5212L258.008 44.4368ZM252.672 37.1896L258.015 43.5291L256.948 44.4288L251.604 38.0893L252.672 37.1896ZM252.672 37.1896L252.672 37.1896L251.604 38.0893C251.325 37.7577 251.215 37.3151 251.308 36.8914L252.672 37.1896ZM252.672 37.1896L252.672 37.1896L251.308 36.8914C251.4 36.4677 251.685 36.1112 252.077 35.9265L252.672 37.1896ZM275.323 26.5272L252.672 37.1896L252.077 35.9265L274.729 25.2641L275.323 26.5272ZM275.323 26.5272L275.323 26.5272L274.729 25.2641C274.986 25.143 275.274 25.1033 275.555 25.1505L275.323 26.5272ZM283.315 27.8719L275.323 26.5272L275.555 25.1505L283.547 26.4952L283.315 27.8719ZM283.315 27.8719L283.315 27.8719L283.547 26.4952C284.299 26.6217 284.81 27.3281 284.695 28.0819L283.315 27.8719ZM278.706 58.1525L283.315 27.8719L284.695 28.0819L280.087 58.3625L278.706 58.1525ZM278.706 58.1525L278.706 58.1525L280.087 58.3625C279.984 59.0338 279.414 59.5342 278.735 59.5482L278.706 58.1525ZM270.484 58.3217L278.706 58.1525L278.735 59.5482L270.513 59.7174L270.484 58.3217ZM270.484 58.3217L270.484 58.3217L270.513 59.7174C270.418 59.7194 270.324 59.7117 270.232 59.6948L270.484 58.3217ZM224.54 110.292L269.833 58.5485L270.883 59.468L225.591 111.212L224.54 110.292ZM224.54 110.292L224.54 110.292L225.591 111.212C225.313 111.528 224.908 111.703 224.488 111.687L224.54 110.292ZM215.662 109.959L224.54 110.292L224.488 111.687L215.61 111.355L215.662 109.959ZM215.662 109.959L215.662 109.959L215.61 111.355C215.102 111.335 214.645 111.042 214.416 110.589L215.662 109.959ZM210.3 99.3443L215.662 109.959L214.416 110.589L209.054 99.9737L210.3 99.3443ZM269.867 58.5094L224.759 110.042L223.709 109.123L268.817 57.5899L269.867 58.5094ZM224.208 110.28L216.074 109.975L216.126 108.58L224.26 108.885L224.208 110.28ZM215.477 109.592L210.512 99.7628L211.758 99.1334L216.723 108.963L215.477 109.592ZM210.608 98.9903L257.865 44.6016L258.919 45.5172L211.662 99.9059L210.608 98.9903ZM258.926 44.6095L269.875 57.5998L268.808 58.4996L257.858 45.5092L258.926 44.6095ZM269.738 57.4369L258.785 44.4426L259.853 43.5429L270.806 56.5372L269.738 57.4369ZM272.658 55.3207L270.797 57.4468L269.747 56.5273L271.608 54.4012L272.658 55.3207ZM259.956 43.2638L272.593 54.336L271.673 55.386L259.036 44.3138L259.956 43.2638ZM258.792 43.5349L258.969 43.331L260.023 44.2466L259.846 44.4506L258.792 43.5349ZM259.429 42.8019L258.935 43.3702L257.881 42.4545L258.375 41.8863L259.429 42.8019ZM259.429 42.8019L259.429 42.8019L258.375 41.8863C258.619 41.606 258.964 41.4343 259.334 41.4091L259.429 42.8019ZM259.429 42.8019L259.429 42.8019L259.334 41.4091C259.705 41.3839 260.07 41.5072 260.349 41.7519L259.429 42.8019ZM273.118 54.7958L259.429 42.8019L260.349 41.7519L274.038 53.7458L273.118 54.7958ZM273.118 54.7958L273.118 54.7958L274.038 53.7458C274.617 54.2537 274.676 55.1353 274.168 55.7153L273.118 54.7958ZM271.065 57.141L273.118 54.7958L274.168 55.7153L272.115 58.0605L271.065 57.141ZM278.119 58.1646L271.604 58.2986L271.576 56.9029L278.09 56.7688L278.119 58.1646ZM283.212 28.5512L278.795 57.5717L277.415 57.3617L281.832 28.3412L283.212 28.5512ZM275.539 26.5635L282.638 27.7579L282.406 29.1346L275.307 27.9402L275.539 26.5635ZM253.494 36.8027L275.125 26.6203L275.72 27.8834L254.088 38.0658L253.494 36.8027ZM257.875 43.3622L253.257 37.8841L254.325 36.9844L258.942 42.4625L257.875 43.3622Z" fill="#DBE3FF"/>
</g>
</g>
<g id="Group 4">
<path id="Combined Shape_3" d="M201.737 97.5445L201.21 97.0867L201.21 97.0867L201.737 97.5445ZM201.798 98.5223L202.264 98.0024L202.264 98.0024L201.798 98.5223ZM250.273 41.6842L250.732 41.1578C251.022 41.4108 251.053 41.8512 250.8 42.142L250.273 41.6842ZM244.177 36.374L244.636 35.8477L244.636 35.8477L244.177 36.374ZM243.953 35.7017L244.636 35.8477L244.636 35.8477L243.953 35.7017ZM244.432 35.1798L244.636 35.8477L244.432 35.1798ZM275.076 25.8621L275.279 26.53L275.279 26.53L275.076 25.8621ZM275.736 26.0021L275.279 26.53L275.279 26.53L275.736 26.0021ZM275.969 26.635L276.659 26.74L276.659 26.74L275.969 26.635ZM271.13 58.4294L270.44 58.3244L270.44 58.3244L271.13 58.4294ZM270.68 58.9797L270.44 58.3244L270.44 58.3244L270.68 58.9797ZM269.981 58.8507L270.44 58.3244L269.981 58.8507ZM265.047 54.5528L264.522 54.0931C264.775 53.8035 265.215 53.7737 265.506 54.0265L265.047 54.5528ZM216.144 110.422L215.618 109.962L215.618 109.962L216.144 110.422ZM215.661 110.659L215.618 109.962L215.618 109.962L215.661 110.659ZM215.153 110.482L214.687 111.002L215.153 110.482ZM251.345 40.7636L251.298 40.0672L251.298 40.0672L251.345 40.7636ZM251.342 40.7638L251.393 41.46C251.207 41.4735 251.024 41.4123 250.884 41.2901L251.342 40.7638ZM251.853 40.935L252.313 40.41L252.313 40.41L251.853 40.935ZM265.542 52.9288L265.082 53.4538L265.082 53.4538L265.542 52.9288ZM265.768 53.3297L265.31 53.856C265.19 53.7517 265.11 53.6097 265.081 53.4534L265.768 53.3297ZM269.941 56.9641L270.631 57.0691C270.593 57.3208 270.42 57.5317 270.181 57.6194C269.942 57.7071 269.674 57.6576 269.482 57.4904L269.941 56.9641ZM274.422 27.52L274.219 26.8522C274.449 26.7825 274.698 26.8353 274.879 26.9922C275.06 27.1491 275.148 27.388 275.112 27.6251L274.422 27.52ZM246.044 36.1489L245.586 36.6753C245.394 36.5086 245.308 36.2511 245.362 36.0029C245.415 35.7548 245.598 35.5549 245.841 35.4811L246.044 36.1489ZM263.995 53.6359L264.453 53.1095C264.593 53.2313 264.678 53.4037 264.691 53.5887C264.703 53.7737 264.642 53.9561 264.52 54.0956L263.995 53.6359ZM215.558 108.971L216.083 109.431C215.961 109.571 215.787 109.657 215.6 109.668C215.414 109.679 215.231 109.616 215.092 109.491L215.558 108.971ZM203.242 97.9411L202.776 98.4611C202.492 98.2066 202.465 97.7712 202.715 97.4833L203.242 97.9411ZM251.326 42.6011L250.799 42.1433C250.921 42.0034 251.093 41.9176 251.278 41.9048C251.462 41.8919 251.645 41.9531 251.785 42.0748L251.326 42.6011ZM202.264 98.0023L202.264 98.0024L201.333 99.0423C200.764 98.5334 200.71 97.6625 201.21 97.0867L202.264 98.0023ZM250.8 42.142L202.264 98.0024L201.21 97.0867L249.746 41.2263L250.8 42.142ZM244.636 35.8477L250.732 41.1578L249.815 42.2105L243.719 36.9004L244.636 35.8477ZM244.636 35.8477L244.636 35.8477L243.719 36.9004C243.336 36.567 243.164 36.0521 243.27 35.5557L244.636 35.8477ZM244.636 35.8477L244.636 35.8477L243.27 35.5557C243.377 35.0593 243.744 34.6597 244.229 34.512L244.636 35.8477ZM275.279 26.53L244.636 35.8477L244.229 34.512L274.873 25.1943L275.279 26.53ZM275.279 26.53L275.279 26.53L274.873 25.1943C275.332 25.0548 275.83 25.1605 276.193 25.4743L275.279 26.53ZM275.279 26.53L275.279 26.53L276.193 25.4743C276.555 25.7881 276.731 26.266 276.659 26.74L275.279 26.53ZM270.44 58.3244L275.279 26.53L276.659 26.74L271.82 58.5345L270.44 58.3244ZM270.44 58.3244L270.44 58.3244L271.82 58.5345C271.743 59.0379 271.399 59.4597 270.921 59.635L270.44 58.3244ZM270.44 58.3244L270.44 58.3244L270.921 59.635C270.443 59.8104 269.907 59.7116 269.523 59.3771L270.44 58.3244ZM265.506 54.0265L270.44 58.3244L269.523 59.3771L264.589 55.0792L265.506 54.0265ZM215.618 109.962L264.522 54.0931L265.572 55.0126L216.669 110.882L215.618 109.962ZM215.618 109.962L215.618 109.962L216.669 110.882C216.423 111.162 216.075 111.333 215.703 111.356L215.618 109.962ZM215.618 109.962L215.618 109.962L215.703 111.356C215.331 111.378 214.965 111.251 214.687 111.002L215.618 109.962ZM202.264 98.0024L215.618 109.962L214.687 111.002L201.333 99.0423L202.264 98.0024ZM251.393 41.46L251.393 41.46L251.292 40.0676C251.294 40.0675 251.296 40.0673 251.298 40.0672L251.393 41.46ZM251.393 41.46L251.393 41.46L251.298 40.0672C251.668 40.0419 252.034 40.1653 252.313 40.41L251.393 41.46ZM265.082 53.4538L251.393 41.46L252.313 40.41L266.002 52.4038L265.082 53.4538ZM265.081 53.4534L265.082 53.4538L266.002 52.4038C266.248 52.6201 266.401 52.9058 266.455 53.2059L265.081 53.4534ZM269.482 57.4904L265.31 53.856L266.227 52.8033L270.399 56.4377L269.482 57.4904ZM275.112 27.6251L270.631 57.0691L269.251 56.859L273.732 27.415L275.112 27.6251ZM245.841 35.4811L274.219 26.8522L274.625 28.1879L246.247 36.8168L245.841 35.4811ZM250.884 41.2901L245.586 36.6753L246.503 35.6226L251.801 40.2375L250.884 41.2901ZM264.52 54.0956L216.083 109.431L215.033 108.511L263.469 53.1761L264.52 54.0956ZM215.092 109.491L202.776 98.4611L203.708 97.4211L216.024 108.451L215.092 109.491ZM202.715 97.4833L250.799 42.1433L251.853 43.0589L203.769 98.3989L202.715 97.4833ZM251.785 42.0748L264.453 53.1095L263.536 54.1622L250.868 43.1274L251.785 42.0748Z" fill="#DBE3FF"/>
</g>
</g>
</g>
</g>
</g>
<g id="Group Copy">
<g id="Group_3">
<g id="_Image1-link_2">
<g id="Group 5_2">
<g id="Combined Shape_4">
<path id="Mask_3" fill-rule="evenodd" clip-rule="evenodd" d="M132.372 186.116L131.19 182.652L126.918 174.514L146.946 181.431L143.887 224.223L79.5358 277.009L65.694 276.307L121.931 212.002L126.918 216.65L132.372 186.116Z" fill="white" fill-opacity="0.01"/>
<mask id="mask1_4029_48" style="mask-type:alpha" maskUnits="userSpaceOnUse" x="65" y="174" width="82" height="104">
<path id="Mask_4" fill-rule="evenodd" clip-rule="evenodd" d="M132.372 186.116L131.19 182.652L126.918 174.514L146.946 181.431L143.887 224.223L79.5358 277.009L65.694 276.307L121.931 212.002L126.918 216.65L132.372 186.116Z" fill="white"/>
</mask>
<g mask="url(#mask1_4029_48)">
<path id="Combined Shape_5" d="M66.4698 257.365L65.9429 256.907L65.9429 256.907L66.4698 257.365ZM66.3736 258.138L65.7506 258.452L65.7506 258.452L66.3736 258.138ZM114.178 202.457L114.712 202.008C114.933 202.271 114.93 202.656 114.705 202.915L114.178 202.457ZM108.834 196.118L109.368 195.668L109.368 195.668L108.834 196.118ZM109.071 195.037L109.368 195.668L109.071 195.037ZM131.722 184.374L132.02 185.006L132.02 185.006L131.722 184.374ZM132.135 184.317L132.02 185.006L132.02 185.006L132.135 184.317ZM140.127 185.662L140.243 184.974L140.243 184.974L140.127 185.662ZM140.702 186.455L141.392 186.56L141.392 186.56L140.702 186.455ZM136.093 216.736L135.403 216.631L135.403 216.631L136.093 216.736ZM135.417 217.329L135.432 218.027L135.432 218.027L135.417 217.329ZM127.195 217.498L127.209 218.196L127.195 217.498ZM127.054 217.487L126.529 217.027C126.691 216.842 126.939 216.756 127.18 216.8L127.054 217.487ZM81.7618 269.231L82.287 269.69L82.287 269.69L81.7618 269.231ZM81.2104 269.468L81.2366 268.771L81.2366 268.771L81.2104 269.468ZM72.3327 269.135L72.3065 269.833L72.3065 269.833L72.3327 269.135ZM71.7358 268.753L72.3588 268.438L72.3588 268.438L71.7358 268.753ZM126.038 216.528L126.572 216.078C126.794 216.342 126.791 216.728 126.563 216.988L126.038 216.528ZM80.9304 268.061L81.4556 268.521C81.3171 268.679 81.1145 268.766 80.9043 268.758L80.9304 268.061ZM72.7963 267.756L72.7701 268.453C72.5164 268.444 72.2878 268.297 72.1733 268.071L72.7963 267.756ZM67.8311 257.927L67.2081 258.241C67.0802 257.988 67.1182 257.683 67.3042 257.469L67.8311 257.927ZM115.089 203.538L114.562 203.08C114.696 202.926 114.89 202.838 115.094 202.84C115.298 202.841 115.491 202.932 115.622 203.088L115.089 203.538ZM126.968 215.466L127.494 215.925C127.36 216.078 127.165 216.165 126.962 216.164C126.758 216.162 126.566 216.071 126.435 215.915L126.968 215.466ZM116.015 202.471L115.482 202.921C115.26 202.658 115.263 202.273 115.489 202.013L116.015 202.471ZM128.829 213.34L129.289 212.815C129.579 213.068 129.608 213.509 129.355 213.799L128.829 213.34ZM116.193 202.267L115.666 201.81C115.787 201.669 115.96 201.584 116.145 201.571C116.33 201.558 116.513 201.62 116.653 201.742L116.193 202.267ZM115.599 200.823L116.125 201.28L116.125 201.28L115.599 200.823ZM115.105 201.391L115.632 201.849C115.498 202.003 115.303 202.09 115.1 202.089C114.896 202.087 114.703 201.997 114.571 201.841L115.105 201.391ZM116.078 200.584L116.031 199.888L116.031 199.888L116.078 200.584ZM116.585 200.755L117.045 200.23L117.045 200.23L116.585 200.755ZM130.274 212.749L129.814 213.274L129.814 213.274L130.274 212.749ZM130.339 213.734L129.814 213.274L130.339 213.734ZM128.287 216.079L128.301 216.777C128.024 216.783 127.771 216.625 127.654 216.374C127.537 216.124 127.579 215.828 127.761 215.62L128.287 216.079ZM134.801 215.945L135.491 216.05C135.44 216.386 135.155 216.636 134.816 216.643L134.801 215.945ZM139.218 186.925L139.334 186.236C139.71 186.3 139.966 186.653 139.908 187.03L139.218 186.925ZM132.119 185.73L131.822 185.099C131.951 185.038 132.095 185.018 132.235 185.042L132.119 185.73ZM110.487 195.913L109.954 196.363C109.814 196.197 109.759 195.976 109.805 195.764C109.852 195.552 109.994 195.374 110.19 195.281L110.487 195.913ZM66.9967 257.823L66.9967 257.823L65.7506 258.452C65.4948 257.946 65.5708 257.335 65.9429 256.907L66.9967 257.823ZM114.705 202.915L66.9967 257.823L65.9429 256.907L113.651 202L114.705 202.915ZM109.368 195.668L114.712 202.008L113.644 202.907L108.301 196.568L109.368 195.668ZM109.368 195.668L109.368 195.668L108.301 196.568C108.021 196.236 107.912 195.794 108.004 195.37L109.368 195.668ZM109.368 195.668L109.368 195.668L108.004 195.37C108.097 194.946 108.381 194.59 108.774 194.405L109.368 195.668ZM132.02 185.006L109.368 195.668L108.774 194.405L131.425 183.743L132.02 185.006ZM132.02 185.006L132.02 185.006L131.425 183.743C131.682 183.621 131.971 183.582 132.251 183.629L132.02 185.006ZM140.012 186.35L132.02 185.006L132.251 183.629L140.243 184.974L140.012 186.35ZM140.012 186.35L140.012 186.35L140.243 184.974C140.995 185.1 141.507 185.807 141.392 186.56L140.012 186.35ZM135.403 216.631L140.012 186.35L141.392 186.56L136.783 216.841L135.403 216.631ZM135.403 216.631L135.403 216.631L136.783 216.841C136.681 217.512 136.111 218.013 135.432 218.027L135.403 216.631ZM127.18 216.8L135.403 216.631L135.432 218.027L127.209 218.196L127.18 216.8ZM127.18 216.8L127.18 216.8L127.209 218.196C127.114 218.198 127.02 218.19 126.929 218.173L127.18 216.8ZM81.2366 268.771L126.529 217.027L127.58 217.947L82.287 269.69L81.2366 268.771ZM81.2366 268.771L81.2366 268.771L82.287 269.69C82.0099 270.007 81.6048 270.182 81.1843 270.166L81.2366 268.771ZM72.3588 268.438L81.2366 268.771L81.1843 270.166L72.3065 269.833L72.3588 268.438ZM72.3588 268.438L72.3588 268.438L72.3065 269.833C71.799 269.814 71.3418 269.521 71.1128 269.067L72.3588 268.438ZM66.9967 257.823L72.3588 268.438L71.1128 269.067L65.7506 258.452L66.9967 257.823ZM126.563 216.988L81.4556 268.521L80.4052 267.601L125.513 216.068L126.563 216.988ZM80.9043 268.758L72.7701 268.453L72.8225 267.058L80.9566 267.363L80.9043 268.758ZM72.1733 268.071L67.2081 258.241L68.4542 257.612L73.4193 267.441L72.1733 268.071ZM67.3042 257.469L114.562 203.08L115.616 203.996L68.358 258.384L67.3042 257.469ZM115.622 203.088L126.572 216.078L125.505 216.978L114.555 203.988L115.622 203.088ZM126.435 215.915L115.482 202.921L116.549 202.021L127.502 215.016L126.435 215.915ZM129.355 213.799L127.494 215.925L126.443 215.006L128.304 212.88L129.355 213.799ZM116.653 201.742L129.289 212.815L128.369 213.865L115.733 202.792L116.653 201.742ZM115.489 202.013L115.666 201.81L116.72 202.725L116.542 202.929L115.489 202.013ZM116.125 201.28L115.632 201.849L114.578 200.933L115.072 200.365L116.125 201.28ZM116.125 201.28L116.125 201.28L115.072 200.365C115.315 200.085 115.66 199.913 116.031 199.888L116.125 201.28ZM116.125 201.28L116.125 201.28L116.031 199.888C116.401 199.862 116.766 199.986 117.045 200.23L116.125 201.28ZM129.814 213.274L116.125 201.28L117.045 200.23L130.734 212.224L129.814 213.274ZM129.814 213.274L129.814 213.274L130.734 212.224C131.314 212.732 131.372 213.614 130.865 214.194L129.814 213.274ZM127.761 215.62L129.814 213.274L130.865 214.194L128.812 216.539L127.761 215.62ZM134.816 216.643L128.301 216.777L128.272 215.381L134.787 215.247L134.816 216.643ZM139.908 187.03L135.491 216.05L134.111 215.84L138.528 186.82L139.908 187.03ZM132.235 185.042L139.334 186.236L139.102 187.613L132.003 186.419L132.235 185.042ZM110.19 195.281L131.822 185.099L132.416 186.362L110.785 196.544L110.19 195.281ZM114.571 201.841L109.954 196.363L111.021 195.463L115.638 200.941L114.571 201.841Z" fill="#DBE3FF"/>
</g>
</g>
<g id="Group 4_2">
<path id="Combined Shape_6" d="M58.4336 256.023L57.9067 255.565L57.9067 255.565L58.4336 256.023ZM58.4949 257.001L58.9605 256.481L58.9605 256.481L58.4949 257.001ZM106.97 200.163L107.428 199.636C107.719 199.889 107.749 200.33 107.497 200.62L106.97 200.163ZM100.874 194.853L101.332 194.326L101.332 194.326L100.874 194.853ZM100.649 194.18L101.332 194.326L101.332 194.326L100.649 194.18ZM101.129 193.658L101.332 194.326L101.129 193.658ZM131.772 184.341L131.976 185.008L131.976 185.008L131.772 184.341ZM132.432 184.481L131.976 185.008L131.976 185.008L132.432 184.481ZM132.666 185.113L133.356 185.218L133.356 185.219L132.666 185.113ZM127.826 216.908L127.136 216.803L127.136 216.803L127.826 216.908ZM127.377 217.458L127.136 216.803L127.136 216.803L127.377 217.458ZM126.678 217.329L127.136 216.803L126.678 217.329ZM121.744 213.031L121.218 212.572C121.472 212.282 121.912 212.252 122.202 212.505L121.744 213.031ZM72.84 268.9L72.3148 268.441L72.3148 268.441L72.84 268.9ZM72.3572 269.137L72.3148 268.441L72.3148 268.441L72.3572 269.137ZM71.8491 268.961L71.3835 269.481L71.8491 268.961ZM108.042 199.242L107.994 198.546L107.995 198.546L108.042 199.242ZM108.039 199.242L108.089 199.938C107.904 199.952 107.721 199.891 107.58 199.769L108.039 199.242ZM108.549 199.413L109.009 198.888L109.009 198.888L108.549 199.413ZM122.238 211.407L121.778 211.932L121.778 211.932L122.238 211.407ZM122.465 211.808L122.006 212.335C121.887 212.23 121.806 212.088 121.778 211.932L122.465 211.808ZM126.637 215.443L127.327 215.548C127.289 215.799 127.117 216.01 126.878 216.098C126.639 216.186 126.371 216.136 126.179 215.969L126.637 215.443ZM131.119 185.999L130.916 185.331C131.145 185.261 131.394 185.314 131.576 185.471C131.757 185.628 131.845 185.867 131.809 186.104L131.119 185.999ZM102.741 194.627L102.282 195.154C102.091 194.987 102.005 194.73 102.058 194.481C102.111 194.233 102.295 194.033 102.538 193.96L102.741 194.627ZM120.691 212.114L121.149 211.588C121.289 211.71 121.375 211.882 121.387 212.067C121.4 212.252 121.338 212.435 121.216 212.574L120.691 212.114ZM72.2546 267.45L72.7798 267.909C72.657 268.05 72.4831 268.135 72.2969 268.146C72.1108 268.158 71.9278 268.094 71.7889 267.97L72.2546 267.45ZM59.9384 256.42L59.4728 256.94C59.1886 256.685 59.1614 256.25 59.4115 255.962L59.9384 256.42ZM108.023 201.08L107.496 200.622C107.617 200.482 107.789 200.396 107.974 200.383C108.159 200.37 108.341 200.432 108.481 200.553L108.023 201.08ZM58.9605 256.481L58.9605 256.481L58.0292 257.521C57.4609 257.012 57.4064 256.141 57.9067 255.565L58.9605 256.481ZM107.497 200.62L58.9605 256.481L57.9067 255.565L106.443 199.705L107.497 200.62ZM101.332 194.326L107.428 199.636L106.511 200.689L100.415 195.379L101.332 194.326ZM101.332 194.326L101.332 194.326L100.415 195.379C100.032 195.045 99.8607 194.531 99.9669 194.034L101.332 194.326ZM101.332 194.326L101.332 194.326L99.9669 194.034C100.073 193.538 100.44 193.138 100.926 192.991L101.332 194.326ZM131.976 185.008L101.332 194.326L100.926 192.991L131.569 183.673L131.976 185.008ZM131.976 185.008L131.976 185.008L131.569 183.673C132.028 183.533 132.526 183.639 132.889 183.953L131.976 185.008ZM131.976 185.009L131.976 185.008L132.889 183.953C133.252 184.267 133.428 184.744 133.356 185.218L131.976 185.009ZM127.136 216.803L131.976 185.008L133.356 185.219L128.517 217.013L127.136 216.803ZM127.136 216.803L127.136 216.803L128.517 217.013C128.44 217.516 128.095 217.938 127.617 218.114L127.136 216.803ZM127.136 216.803L127.136 216.803L127.617 218.114C127.139 218.289 126.603 218.19 126.219 217.856L127.136 216.803ZM122.202 212.505L127.136 216.803L126.219 217.856L121.285 213.558L122.202 212.505ZM72.3148 268.441L121.218 212.572L122.269 213.491L73.3653 269.36L72.3148 268.441ZM72.3148 268.441L72.3148 268.441L73.3653 269.36C73.1196 269.641 72.7718 269.812 72.3995 269.834L72.3148 268.441ZM72.3148 268.441L72.3148 268.441L72.3995 269.834C72.0272 269.857 71.6613 269.729 71.3835 269.481L72.3148 268.441ZM58.9605 256.481L72.3148 268.441L71.3835 269.481L58.0292 257.521L58.9605 256.481ZM108.089 199.938L108.089 199.938L107.988 198.546C107.99 198.546 107.992 198.546 107.994 198.546L108.089 199.938ZM108.089 199.938L108.089 199.938L107.995 198.546C108.365 198.52 108.73 198.644 109.009 198.888L108.089 199.938ZM121.778 211.932L108.089 199.938L109.009 198.888L122.698 210.882L121.778 211.932ZM121.778 211.932L121.778 211.932L122.698 210.882C122.945 211.099 123.098 211.384 123.152 211.684L121.778 211.932ZM126.179 215.969L122.006 212.335L122.923 211.282L127.096 214.916L126.179 215.969ZM131.809 186.104L127.327 215.548L125.947 215.338L130.429 185.894L131.809 186.104ZM102.538 193.96L130.916 185.331L131.322 186.666L102.944 195.295L102.538 193.96ZM107.58 199.769L102.282 195.154L103.199 194.101L108.497 198.716L107.58 199.769ZM121.216 212.574L72.7798 267.909L71.7294 266.99L120.166 211.655L121.216 212.574ZM71.7889 267.97L59.4728 256.94L60.4041 255.9L72.7203 266.93L71.7889 267.97ZM59.4115 255.962L107.496 200.622L108.549 201.537L60.4654 256.877L59.4115 255.962ZM108.481 200.553L121.149 211.588L120.233 212.641L107.564 201.606L108.481 200.553Z" fill="#DBE3FF"/>
</g>
</g>
</g>
</g>
</g>
<g id="Group_4">
<path id="Path" fill-rule="evenodd" clip-rule="evenodd" d="M347.309 163.991L342.668 169.394L350.286 169.45L347.309 163.991Z" stroke="#597AFA" stroke-width="1.39611"/>
</g>
<g id="Group_5">
<ellipse id="Oval" cx="4.72856" cy="141.785" rx="3.11827" ry="3.10074" stroke="#597AFA" stroke-width="1.39611"/>
</g>
<g id="Group_6">
<rect id="Rectangle" x="289.706" y="4.06689" width="6.08767" height="5.30641" transform="rotate(-26.288 289.706 4.06689)" stroke="#597AFA" stroke-width="1.39611"/>
</g>
<g id="Group_7">
<g id="Group_8">
<g id="Group_9">
<rect id="Rectangle_2" x="84.6394" y="100.3" width="43.4043" height="116.514" transform="rotate(0.161999 84.6394 100.3)" fill="white"/>
</g>
<g id="Group_10">
<g id="Group_11">
<path id="Path_2" fill-rule="evenodd" clip-rule="evenodd" d="M86.1738 94.2273L86.901 217.624L119.544 217.717C120.294 217.719 121.009 217.393 121.494 216.825C123.053 215.008 126.597 210.87 128.524 208.622C129.367 207.638 129.827 206.388 129.831 205.095C129.829 190.831 129.826 104.785 129.828 90.8302C129.826 89.7653 128.978 88.892 127.908 88.8585C122.302 88.6814 106.058 88.168 101.193 88.0139C100.274 87.9848 99.3658 88.1691 98.5301 88.5517C95.1507 90.1043 86.1738 94.2273 86.1738 94.2273Z" fill="#E8EDFF" stroke="#597AFA" stroke-width="1.39611"/>
</g>
<g id="Group_12">
<path id="Path_3" fill-rule="evenodd" clip-rule="evenodd" d="M86.3995 94.6878C85.9187 94.6752 85.4491 94.8567 85.1038 95.1902C84.7585 95.5244 84.5613 95.9825 84.56 96.4613C84.5201 110.562 84.261 202.214 84.2215 216.166C84.2187 217.148 85.018 217.947 86.0095 217.95C92.1781 217.968 112.507 218.025 118.669 218.042C119.661 218.045 120.464 217.25 120.467 216.268C120.507 202.347 120.765 111.07 120.804 97.2959C120.806 96.3288 120.031 95.5367 119.057 95.5123C112.954 95.3579 92.6271 94.8449 86.3995 94.6878Z" fill="white" stroke="#597AFA" stroke-width="1.39611"/>
</g>
<g id="XMLID_1929_">
<path id="Path_4" fill-rule="evenodd" clip-rule="evenodd" d="M119.805 149.332C119.805 149.332 119.819 205.267 119.822 215.587C119.822 216.485 119.09 217.214 118.186 217.214C112.378 217.215 92.7597 217.22 86.5431 217.222C86.0375 217.222 85.5528 217.022 85.1953 216.667C84.8379 216.312 84.6371 215.829 84.6369 215.327C84.6399 203.952 84.6846 176.72 84.6258 173.89C84.5475 170.116 98.4581 165.068 102.462 163.885C117.13 159.552 118.163 152.917 119.805 149.332Z" fill="#F7F8FF"/>
</g>
<g id="Group_13">
<path id="Path_5" fill-rule="evenodd" clip-rule="evenodd" d="M86.3989 197.184C85.979 197.181 85.5701 197.345 85.2702 197.64C84.9702 197.935 84.8023 198.337 84.8011 198.757C84.7857 204.209 84.7223 210.367 84.7069 215.804C84.7057 216.222 84.8771 216.624 85.1697 216.921C85.4679 217.217 85.8701 217.385 86.29 217.386C92.1282 217.402 112.392 217.46 118.231 217.476C118.651 217.477 119.054 217.312 119.354 217.017C119.654 216.723 119.822 216.322 119.823 215.903C119.838 210.486 119.888 192.678 119.904 187.275C119.906 186.408 119.201 185.701 118.332 185.694C112.505 185.642 92.2543 197.236 86.3989 197.184Z" fill="#F1F3FF"/>
</g>
</g>
</g>
<g id="XMLID_1929_1">
<path id="Path_6" fill-rule="evenodd" clip-rule="evenodd" d="M112.35 204.056C112.35 204.624 112.123 205.17 111.718 205.572C111.314 205.975 110.765 206.201 110.192 206.201C106.303 206.201 98.1596 206.201 94.2702 206.201C93.698 206.201 93.1492 205.975 92.7447 205.572C92.3401 205.17 92.1128 204.624 92.1128 204.056C92.1128 191.08 92.1128 123.214 92.1128 110.238C92.1128 109.669 92.3401 109.124 92.7447 108.721C93.1492 108.319 93.698 108.093 94.2702 108.093C98.1596 108.093 106.303 108.093 110.192 108.093C110.765 108.093 111.314 108.319 111.718 108.721C112.123 109.124 112.35 109.669 112.35 110.238C112.35 123.214 112.35 191.08 112.35 204.056Z" stroke="#96ACFF" stroke-opacity="0.38" stroke-width="1.39611"/>
</g>
<g id="Group_14">
<path id="Path_7" d="M196.634 31.0465C186.146 22.8814 172.74 26.1877 168.884 28.406C162.664 31.9841 160.943 36.3999 160.943 36.3999L167.574 64.8031C167.542 76.2398 164.377 87.7867 157.359 88.4338C152.841 88.8506 141.371 88.5282 137.768 88.4122C137.061 88.3902 136.374 88.6441 135.853 89.1202C133.568 91.2089 127.26 96.9759 127.26 96.9759C127.26 96.9759 133.284 191.062 134.352 207.734C134.442 209.146 135.618 210.247 137.042 210.251C140.644 210.261 147.358 210.28 152.254 210.294L226.612 217.808C230.76 217.82 238.444 215.311 241.765 212.883C242.984 211.992 249.337 208.087 252.12 205.843C260.317 199.235 262.618 195.75 263.847 185.456L274.025 118.594C275.506 108.89 271.769 99.0544 264.48 93.5315C260.351 90.3757 255.473 88.7113 250.367 88.6968L206.46 88.5727L206.548 57.2888C206.583 45.0268 203.253 36.2138 196.634 31.0465Z" fill="#E8EDFF" stroke="#597AFA" stroke-width="1.39611"/>
</g>
<g id="Group_15">
<path id="Path_8" d="M186.296 38.8797C176.078 30.7153 161.903 35.3521 161.321 35.547C159.94 36.0147 159.028 37.3877 159.024 38.9205L158.929 72.641C158.896 84.0777 155.812 95.6249 148.975 96.2725C145.043 96.645 134.616 96.4689 129.617 96.3569C128.893 96.3438 128.194 96.6205 127.677 97.1252C127.16 97.6296 126.868 98.3193 126.867 99.0397C126.844 115.357 126.732 199.27 126.711 215.4C126.709 216.883 127.915 218.087 129.406 218.092L220.177 218.348C236.373 218.394 246.748 209.266 248.609 193.276L258.53 126.412C259.974 116.709 256.334 106.873 249.232 101.351C245.21 98.1953 240.458 96.5312 235.483 96.5171L195.865 96.4051L195.953 65.1212C195.988 52.8592 192.745 44.0464 186.296 38.8797Z" fill="white" stroke="#597AFA" stroke-width="1.39611"/>
</g>
<g id="Group_16">
<path id="Path_9" fill-rule="evenodd" clip-rule="evenodd" d="M203.963 126.501C197.206 142.164 181.719 152.323 164.578 152.335C150.935 152.344 136.257 152.355 130.336 152.359C128.843 152.36 127.634 153.564 127.635 155.048C127.642 165.624 127.67 204.304 127.678 214.863C127.679 216.344 128.884 217.545 130.373 217.549L219.938 217.802C235.924 217.847 246.164 208.809 248.001 192.975L257.794 126.767C259.219 117.159 255.627 107.42 248.617 101.952C244.647 98.8272 239.957 97.1794 235.046 97.1655L216.613 97.1784C216.613 97.1784 210.151 112.158 203.963 126.501Z" fill="#F7F8FF"/>
</g>
<g id="Group_17">
<path id="Path_10" fill-rule="evenodd" clip-rule="evenodd" d="M243.49 159.062C234.445 165.545 223.606 170.566 212.979 173.781C191.815 180.183 128.842 183.568 127.783 207.739C127.336 217.947 127.817 208.916 127.811 215.106C127.859 216.549 129.047 217.695 130.499 217.699C134.023 217.715 140.27 217.733 144.857 217.746L220.082 217.958C236.074 218.004 246.318 208.914 248.156 192.99L254.402 149.833" fill="#F1F3FF"/>
</g>
<g id="Group_18">
<path id="Path_11" d="M152.987 109.147C150.277 109.404 145.37 109.329 142.291 109.247C141.567 109.233 140.866 109.509 140.349 110.013C139.831 110.518 139.538 111.208 139.537 111.929C139.517 125.938 139.433 188.83 139.414 202.633C139.412 204.116 140.618 205.32 142.11 205.324L213.207 205.525C225.993 205.561 234.185 198.355 235.654 185.73L243.487 132.94C244.627 125.279 241.753 117.514 236.146 113.154C232.971 110.662 229.219 109.349 225.291 109.338C225.291 109.338 195.264 108.611 189.866 109.122" stroke="#96ACFF" stroke-opacity="0.44" stroke-width="1.39611"/>
</g>
</g>
<g id="Group_19">
<g id="Group_20">
<g id="Group 3">
<path id="Path_12" fill-rule="evenodd" clip-rule="evenodd" d="M59.6641 14.5316C59.6641 14.1768 59.5071 13.8377 59.2979 13.5854C59.0363 13.337 58.6701 13.1951 58.3562 13.1951C52.7062 13.1951 30.9954 13.1951 25.3977 13.1951C25.0315 13.1951 24.7176 13.337 24.456 13.5854C24.1944 13.8377 24.0898 14.1768 24.0898 14.5316C24.0898 19.4678 24.0898 36.6733 24.0898 41.6134C24.0898 41.9643 24.1944 42.3033 24.456 42.5557C24.7176 42.808 25.0315 42.946 25.3977 42.946C30.9954 42.946 52.7062 42.946 58.3562 42.946C58.6701 42.946 59.0363 42.808 59.2979 42.5557C59.5071 42.3033 59.6641 41.9643 59.6641 41.6134C59.6641 36.6733 59.6641 19.4678 59.6641 14.5316Z" fill="#D2DBFF" stroke="#D2DBFF" stroke-width="1.39604"/>
<path id="Path_13" d="M39.8491 56.1159L40.7655 36.8227" stroke="#D2DBFF" stroke-width="1.39604" stroke-linecap="round" stroke-linejoin="round"/>
<path id="Path_14" d="M48.44 57.4614L32.86 56.5426" stroke="#D2DBFF" stroke-width="1.39604" stroke-linecap="round" stroke-linejoin="round"/>
<path id="Path_15" fill-rule="evenodd" clip-rule="evenodd" d="M56.8143 14.5316C56.8143 14.1768 56.6573 13.8377 56.4481 13.5854C56.1865 13.337 55.8203 13.1951 55.5064 13.1951H22.5479C22.1817 13.1951 21.8678 13.337 21.6062 13.5854C21.3446 13.8377 21.24 14.1768 21.24 14.5316C21.24 19.4678 21.24 36.6733 21.24 41.6134C21.24 41.9643 21.3446 42.3033 21.6062 42.5557C21.8678 42.808 22.1817 42.946 22.5479 42.946C28.1456 42.946 49.8564 42.946 55.5064 42.946C55.8203 42.946 56.1865 42.808 56.4481 42.5557C56.6573 42.3033 56.8143 41.9643 56.8143 41.6134C56.8143 36.6733 56.8143 19.4678 56.8143 14.5316Z" fill="#FAFBFF" stroke="#A4B7FF"/>
<path id="Path_16" fill-rule="evenodd" clip-rule="evenodd" d="M54.0696 17.6561C54.0696 16.9187 53.4687 16.3213 52.7552 16.3213C48.3236 16.3213 34.2778 16.3213 29.8462 16.3213C29.1326 16.3213 28.5317 16.9187 28.5317 17.6561C28.5317 21.7881 28.5317 34.3335 28.5317 38.4655C28.5317 39.203 29.1326 39.8004 29.8462 39.8004C34.2778 39.8004 48.3236 39.8004 52.7552 39.8004C53.4687 39.8004 54.0696 39.203 54.0696 38.4655C54.0696 34.3335 54.0696 21.7881 54.0696 17.6561Z" fill="#D2DBFF"/>
<path id="Path_17" fill-rule="evenodd" clip-rule="evenodd" d="M40.5921 17.6561C40.5921 16.9187 39.9945 16.3213 39.259 16.3213C36.3169 16.3213 29.2375 16.3213 26.2954 16.3213C25.5598 16.3213 24.9622 16.9187 24.9622 17.6561C24.9622 21.7881 24.9622 34.3335 24.9622 38.4655C24.9622 39.203 25.5598 39.8004 26.2954 39.8004C29.2375 39.8004 36.3169 39.8004 39.259 39.8004C39.9945 39.8004 40.5921 39.203 40.5921 38.4655C40.5921 34.3335 40.5921 21.7881 40.5921 17.6561Z" fill="#5FDCF2"/>
<path id="Path_18" d="M43.9148 35.9181H30.954V17.7283" stroke="white" stroke-width="1.39604" stroke-linecap="round" stroke-linejoin="round"/>
<path id="Path_19" d="M29.8589 36.1053L41.9377 23.7668" stroke="white" stroke-width="1.39604" stroke-linecap="round" stroke-linejoin="round"/>
</g>
</g>
</g>
<g id="Group 7">
<g id="Group_21">
<path id="Path_20" d="M319.38 218.279H296.036V224.616H301.677C304.481 224.616 305.151 226.428 305.214 227.551H296.036V233.888H305.302C304.999 235.294 303.464 236.98 301.677 236.98H296.036V242.113L305.214 253.085H310.164L314.59 248.392L306.919 241.693C309.979 240.419 312.251 236.833 312.5 233.889H319.38V227.551H312.468C312.252 226.829 311.925 225.313 311.011 224.616H319.38V218.279H319.38Z" fill="#E8612F"/>
</g>
<g id="Group_22">
<path id="Path_21" d="M314.023 218.279H290.679V224.616H296.32C299.124 224.616 299.794 226.428 299.857 227.551H290.679V233.888H299.945C299.642 235.294 298.107 236.98 296.32 236.98H290.679V242.113L304.807 253.085L309.233 248.392L301.562 241.693C304.622 240.419 306.894 236.833 307.143 233.889H314.023V227.551H307.11C306.895 226.829 306.568 225.313 305.654 224.616H314.023V218.279H314.023Z" fill="#F58852"/>
</g>
</g>
</g>
</svg>
