<svg xmlns="http://www.w3.org/2000/svg" width="32" height="32" fill="none"><rect width="32" height="32" fill="url(#a)" rx="16"/><path fill="#fff" d="M13.337 16.04a2.668 2.668 0 1 1 5.337 0 2.668 2.668 0 0 1-5.337 0m-1.443 0a4.11 4.11 0 1 0 8.222.002 4.11 4.11 0 0 0-8.222-.001m7.423-4.274a.96.96 0 1 0 .961-.96.96.96 0 0 0-.96.96m-6.546 10.792c-.78-.035-1.205-.165-1.487-.275a2.5 2.5 0 0 1-.92-.599 2.5 2.5 0 0 1-.6-.92c-.11-.282-.239-.707-.275-1.487-.038-.844-.046-1.098-.046-3.236s.008-2.391.046-3.236c.036-.78.167-1.204.276-1.487.145-.374.319-.64.599-.92.28-.281.546-.455.92-.6.282-.11.706-.24 1.487-.275.844-.04 1.097-.047 3.234-.047s2.39.009 3.235.047c.78.035 1.204.166 1.486.275.374.145.64.319.921.6.28.28.453.546.599.92.11.282.24.706.275 1.487.039.845.047 1.098.047 3.236s-.008 2.391-.047 3.236c-.035.78-.166 1.205-.275 1.487-.146.373-.32.64-.599.92-.28.28-.547.453-.92.599-.282.11-.707.24-1.487.275-.844.04-1.098.047-3.235.047-2.138 0-2.39-.008-3.234-.047m-.066-14.476c-.853.039-1.435.174-1.943.372a3.9 3.9 0 0 0-1.418.924 3.9 3.9 0 0 0-.924 1.418c-.198.51-.333 1.091-.372 1.944S8 13.866 8 16.04s.009 2.448.048 3.302c.04.852.174 1.435.372 1.944.205.526.478.973.924 1.418.445.445.89.718 1.418.924.51.197 1.09.333 1.943.371.854.04 1.126.049 3.3.049s2.447-.01 3.3-.049c.852-.038 1.434-.174 1.943-.371a3.9 3.9 0 0 0 1.418-.924c.445-.445.718-.892.923-1.419.198-.509.334-1.09.372-1.943.039-.854.048-1.127.048-3.301s-.01-2.448-.048-3.301c-.039-.853-.174-1.435-.372-1.944a3.9 3.9 0 0 0-.923-1.418 3.9 3.9 0 0 0-1.417-.924c-.51-.198-1.092-.334-1.943-.372-.854-.039-1.127-.048-3.3-.048s-2.447.009-3.301.048"/><defs><linearGradient id="a" x1="31.385" x2="-.615" y1="32" y2="0" gradientUnits="userSpaceOnUse"><stop stop-color="#FBE18A"/><stop offset=".21" stop-color="#FCBB45"/><stop offset=".38" stop-color="#F75274"/><stop offset=".52" stop-color="#D53692"/><stop offset=".74" stop-color="#8F39CE"/><stop offset="1" stop-color="#5B4FE9"/></linearGradient></defs></svg>