<svg width="44" height="44" fill="none" xmlns="http://www.w3.org/2000/svg"><path fill-rule="evenodd" clip-rule="evenodd" d="M27.914 11.624a.706.706 0 0 1 1.058.12c2.173 3.1 4.833 10.132-.04 16.55a.708.708 0 0 1-1.086.065 8.808 8.808 0 0 1-.086-.093c-2.14-1.587-5.202-3.687-10.653-4.466a.73.73 0 0 1-.49-.297c-.911-1.276-1.11-2.697-.985-3.957a7.955 7.955 0 0 1 .97-3.066.725.725 0 0 1 .507-.354c2.146-.37 4.4-1.1 6.347-1.937 1.953-.841 3.562-1.778 4.435-2.546a.415.415 0 0 1 .023-.019Zm-1.18 1.755a25.512 25.512 0 0 1-2.992 1.511c-1.987.856-4.297 1.604-6.509 1.985a7.186 7.186 0 0 0-.865 2.748c-.11 1.12.068 2.338.84 3.424 4.258.608 7.113 2.005 9.196 3.35a12.253 12.253 0 0 1-1.552-4.546c-.324-2.476.08-5.375 1.881-8.471Zm1.681 14.36c4.477-5.992 2.044-12.557-.026-15.526-2.592 3.552-3.157 6.84-2.804 9.536.343 2.614 1.552 4.698 2.668 5.945l.068.05a.366.366 0 0 1 .094-.005Z" fill="#2C355A"/><path d="M16.77 31.852V24.37a.15.15 0 0 1 .173-.15c1.292.226 1.844.315 2.93.594a.151.151 0 0 1 .11.146l.031 6.916c.001.15-.068.291-.199.357-.585.293-1.824.566-2.846-.014a.416.416 0 0 1-.2-.367ZM29.371 20.127c0 1.41-1.23 2.133-2.042 2.41a.302.302 0 0 1-.385-.184c-.14-.372-.36-1.13-.36-2.234 0-1.158.224-1.898.364-2.247a.29.29 0 0 1 .36-.174c.811.247 2.063 1.007 2.063 2.429ZM15.882 23.05c-1.438-2.605-.43-5.128.062-6.143.054-.111-.035-.24-.154-.226-.64.08-1.604.175-2.14.244a.652.652 0 0 0-.473.307c-1.635 2.655-.508 4.779-.06 5.446a.62.62 0 0 0 .428.261c.459.072 1.424.225 2.181.349.127.02.22-.124.156-.238Z" fill="#D64D4D"/></svg>