<svg width="32" height="32" viewBox="0 0 32 32" fill="none" xmlns="http://www.w3.org/2000/svg">
<rect x="-0.000488281" width="32" height="32" rx="16" fill="#006699"/>
<path d="M12.3181 22.4844V13.8403H9.44752V22.4844H12.3184H12.3181ZM10.8834 12.6603C11.8843 12.6603 12.5074 11.9965 12.5074 11.167C12.4886 10.3186 11.8843 9.67334 10.9025 9.67334C9.91999 9.67334 9.27832 10.3186 9.27832 11.1669C9.27832 11.9964 9.90118 12.6602 10.8646 12.6602H10.8832L10.8834 12.6603ZM13.9071 22.4844H16.7775V17.6577C16.7775 17.3997 16.7962 17.141 16.872 16.9567C17.0795 16.4403 17.5518 15.9058 18.345 15.9058C19.3834 15.9058 19.7991 16.6984 19.7991 17.8605V22.4844H22.6694V17.5281C22.6694 14.8731 21.2534 13.6376 19.3648 13.6376C17.8164 13.6376 17.1364 14.5038 16.7586 15.0938H16.7777V13.8406H13.9072C13.9447 14.6515 13.907 22.4847 13.907 22.4847L13.9071 22.4844Z" fill="white"/>
</svg>
