<svg width="16" height="12" fill="none" xmlns="http://www.w3.org/2000/svg"><path d="M2.737 12a.472.472 0 0 1-.337-.14A8.291 8.291 0 0 1 0 6C0 3.79.852 1.71 2.399.14a.475.475 0 0 1 .663-.01.453.453 0 0 1 .01.649A7.387 7.387 0 0 0 .938 6c0 1.97.759 3.824 2.136 5.22a.453.453 0 0 1-.01.65.472.472 0 0 1-.326.13Z" fill="#fff"/><path d="M4.298 10.416a.472.472 0 0 1-.337-.14A6.052 6.052 0 0 1 2.21 5.999c0-1.612.621-3.13 1.75-4.276a.475.475 0 0 1 .663-.01.453.453 0 0 1 .011.65 5.147 5.147 0 0 0-1.487 3.636c0 1.373.529 2.665 1.488 3.638a.453.453 0 0 1-.011.65.472.472 0 0 1-.326.129Z" fill="#fff"/><path d="M5.86 8.833a.472.472 0 0 1-.337-.14A3.812 3.812 0 0 1 4.419 6c0-1.015.392-1.971 1.103-2.692a.475.475 0 0 1 .663-.011.453.453 0 0 1 .01.65 2.907 2.907 0 0 0-.838 2.053c0 .777.298 1.506.84 2.055a.453.453 0 0 1-.011.65.472.472 0 0 1-.326.13ZM13.263 12a.472.472 0 0 1-.326-.13.453.453 0 0 1-.011-.649A7.386 7.386 0 0 0 15.062 6c0-1.971-.758-3.825-2.135-5.221a.453.453 0 0 1 .01-.65.475.475 0 0 1 .664.011A8.291 8.291 0 0 1 16 6c0 2.21-.852 4.292-2.4 5.86a.472.472 0 0 1-.337.14Z" fill="#fff"/><path d="M11.7 10.417a.472.472 0 0 1-.325-.13.453.453 0 0 1-.011-.649 5.147 5.147 0 0 0 1.488-3.639 5.147 5.147 0 0 0-1.488-3.637.453.453 0 0 1 .011-.65.475.475 0 0 1 .663.01A6.052 6.052 0 0 1 13.79 6a6.052 6.052 0 0 1-1.753 4.278.472.472 0 0 1-.337.14Z" fill="#fff"/><path d="M10.139 8.834a.472.472 0 0 1-.326-.13.453.453 0 0 1-.01-.65c.541-.548.84-1.278.84-2.055 0-.776-.298-1.506-.84-2.055a.453.453 0 0 1 .011-.65.475.475 0 0 1 .663.011A3.812 3.812 0 0 1 11.58 6a3.812 3.812 0 0 1-1.105 2.695.472.472 0 0 1-.337.14ZM8 7.378A1.388 1.388 0 0 1 6.606 6c0-.76.625-1.379 1.394-1.379.769 0 1.394.618 1.394 1.379 0 .76-.625 1.378-1.394 1.378Z" fill="#fff"/></svg>