<svg width="24" height="23" viewBox="0 0 24 23" fill="none" xmlns="http://www.w3.org/2000/svg">
<path d="M8.73516 3.77362C8.67031 3.88108 8.67031 4.01449 8.73516 4.12103L19.6949 22.4552C19.757 22.5581 19.8672 22.621 19.9858 22.621H23.6619C23.9241 22.621 24.0862 22.3339 23.9519 22.1087L11.0151 0.465309C10.9466 0.350431 10.7798 0.350431 10.7113 0.465309L8.73516 3.77362Z" fill="#11AF4B"/>
<path fill-rule="evenodd" clip-rule="evenodd" d="M10.4601 7.68872H6.75716C6.62653 7.68872 6.54593 7.82954 6.61078 7.94256L8.4618 11.149C8.52758 11.262 8.68971 11.262 8.75456 11.149L10.6065 7.94256C10.6714 7.82954 10.5898 7.68872 10.4601 7.68872ZM8.24967 11.4074H4.5467C4.41607 11.4074 4.33547 11.5483 4.40032 11.6613L5.32491 13.264L6.25135 14.8667C6.3162 14.9798 6.47925 14.9798 6.5441 14.8667L7.46961 13.264L8.39512 11.6604C8.4609 11.5483 8.37937 11.4074 8.24967 11.4074ZM2.32139 15.1845H6.02436C6.15406 15.1845 6.23559 15.3253 6.16981 15.4383L5.2443 17.0411L4.31879 18.6447C4.25394 18.7578 4.09088 18.7578 4.02603 18.6447L3.10052 17.042L2.17409 15.4383C2.10924 15.3253 2.19076 15.1845 2.32139 15.1845ZM3.87222 19.0619H0.169256C0.0386288 19.0619 -0.0419712 19.2027 0.0228794 19.3157L0.947463 20.9194L1.8739 22.5221C1.93875 22.6352 2.1018 22.6352 2.16665 22.5221L3.09216 20.9185L4.01768 19.3157C4.08345 19.2027 4.00193 19.0619 3.87222 19.0619ZM4.56051 19.0619H8.26347C8.39318 19.0619 8.4747 19.2027 8.40985 19.3157L7.48434 20.9185L6.5579 22.5221C6.49305 22.6352 6.33093 22.6352 6.26608 22.5221L5.33964 20.9194L4.41413 19.3157C4.34928 19.2027 4.4308 19.0619 4.56051 19.0619ZM17.1647 19.0619H13.4617C13.332 19.0619 13.2505 19.2027 13.3153 19.3157L14.2409 20.9194L15.1673 22.5221C15.2321 22.6352 15.3943 22.6352 15.4591 22.5221L16.3856 20.9185L17.3111 19.3157C17.3759 19.2027 17.2944 19.0619 17.1647 19.0619ZM6.81558 15.1845H10.5185C10.6482 15.1845 10.7298 15.3253 10.6649 15.4383L9.73849 17.0411L8.81297 18.6447C8.74812 18.7578 8.586 18.7578 8.52115 18.6447L7.59471 17.042L6.6692 15.4383C6.60435 15.3253 6.68588 15.1845 6.81558 15.1845ZM14.8514 15.1845H11.1494C11.0188 15.1845 10.9382 15.3253 11.003 15.4383L11.9276 17.042L12.854 18.6447C12.9189 18.7578 13.081 18.7578 13.1459 18.6447L14.0723 17.0411L14.9978 15.4383C15.0636 15.3253 14.9811 15.1845 14.8514 15.1845ZM9.07047 11.4074H12.7734C12.9031 11.4074 12.9847 11.5483 12.9189 11.6604L11.9934 13.264L11.0679 14.8667C11.003 14.9798 10.84 14.9798 10.7751 14.8667L9.84868 13.264L8.92409 11.6613C8.85924 11.5483 8.93984 11.4074 9.07047 11.4074ZM12.7141 19.0619H9.01114C8.88144 19.0619 8.79992 19.2027 8.86477 19.3157L9.79028 20.9194L10.7167 22.5221C10.7816 22.6352 10.9446 22.6352 11.0095 22.5221L11.9341 20.9185L12.8605 19.3157C12.9253 19.2027 12.8438 19.0619 12.7141 19.0619Z" fill="#FF7300"/>
</svg>
