<svg xmlns="http://www.w3.org/2000/svg" width="32" height="32" fill="none"><path fill="#F93" d="M16.5 4a4.68 4.68 0 1 1 0 9.36 4.68 4.68 0 0 1 0-9.36m-1.38 3.12a.1.1 0 0 0-.073.027.1.1 0 0 0-.027.073v.398a.1.1 0 0 0 .027.072.1.1 0 0 0 .072.028h.698c.26 0 .498.14.598.379h-1.296a.1.1 0 0 0-.072.027.1.1 0 0 0-.027.072v.359a.1.1 0 0 0 .027.072.1.1 0 0 0 .073.027h1.295a.635.635 0 0 1-.598.38h-.698a.1.1 0 0 0-.072.027.1.1 0 0 0-.027.072v.557c0 .02 0 .04.04.08l1.215 1.236a.1.1 0 0 0 .028.017q.015.006.032.003h.557c.04 0 .06-.02.08-.06a.09.09 0 0 0-.02-.1l-1.215-1.235h.08c.578 0 1.096-.399 1.215-.956h.439a.1.1 0 0 0 .039-.007.095.095 0 0 0 .06-.093v-.36a.094.094 0 0 0-.06-.093.1.1 0 0 0-.04-.006h-.439a1.3 1.3 0 0 0-.177-.418h.617a.1.1 0 0 0 .072-.027q.015-.015.021-.033a.1.1 0 0 0 .006-.04V7.22a.094.094 0 0 0-.06-.094.1.1 0 0 0-.04-.006z"/><path fill="#2C355A" fill-rule="evenodd" d="m24.723 15.285-.009.053c.018-.113-.018.74-.262 1.565-.257.87-.987 2.275-1.798 2.275-1.48.954-3.576.523-4.598.411a5 5 0 0 0-.232-.021l-.02-.001c-.045-.003-.097-.007-.173-.015-.5-.03-.906-.226-1.162-.571-.23-.31-.246.148-.216-.129l.005-.12c.03-.688.114-2.692 1.916-3.856.483-.318 1.084-.505 1.65-.622.582-.12 1.197-.18 1.751-.209a17 17 0 0 1 1.92.014 5 5 0 0 1 .222.022 1.213 1.213 0 0 1 .713.375c.18.196.3.466.294.776zm-1.138-.416c-.105-.035-3.585-.274-5.008.666-1.417.913-1.556 2.475-1.593 3.194l-.008.156c-.03.217.133.657.795.69.07.008.113.011.16.014.062.004.593-.34.746-.323 1.002.11 2.22.48 3.445-.31 1.67-1.076 1.79-3.233 1.812-3.64q.003-.049.005-.062a.35.35 0 0 0-.096-.245.5.5 0 0 0-.258-.14" clip-rule="evenodd"/><path fill="#2C355A" fill-rule="evenodd" d="m8.35 15.26.01.054c-.018-.113.018.74.261 1.564.257.87.829 2.083 1.724 2.297 1.48.954 3.574.502 4.597.39a5 5 0 0 1 .252-.023c.045-.003.096-.006.173-.014.5-.03.906-.227 1.162-.571.23-.31.322.147.292-.13l-.006-.119c-.029-.688-.114-2.692-1.916-3.856-.483-.319-1.083-.505-1.65-.623-.581-.12-1.196-.18-1.75-.208a17 17 0 0 0-1.92.014 5 5 0 0 0-.223.022l-.076.014c-.236.052-.463.17-.637.36-.18.196-.3.467-.293.776zm1.138-.415c.105-.035 3.586-.274 5.008.666 1.418.913 1.577 2.475 1.614 3.193l.009.157c.03.216-.155.657-.816.69-.071.008-.114.01-.161.014-.062.004-.555-.316-.708-.3-1.003.11-2.257.456-3.483-.333-1.67-1.076-1.79-3.233-1.812-3.64l-.004-.063a.35.35 0 0 1 .096-.244.5.5 0 0 1 .257-.14M23.89 21.07l-.23.554a677 677 0 0 0-2.276 5.621 1.1 1.1 0 0 1-.558.584c-.204.1-.414.14-.558.145h-.014c-1.198.01-3.02.022-4.59.025-.784.002-1.506.001-2.057-.002-.533-.004-.94-.01-1.063-.025-.573-.07-.888-.538-.981-.76l-.003-.007-2.444-6.118zm-13.614.813 2.004 5.016c.013.03.054.1.122.164a.4.4 0 0 0 .24.118l.02.001.065.003.21.006c.172.004.401.006.675.008.547.004 1.267.004 2.051.002 1.564-.003 3.38-.014 4.577-.024a.7.7 0 0 0 .25-.067c.095-.047.147-.102.17-.16.128-.33 1.298-3.235 2.054-5.081z" clip-rule="evenodd"/><path fill="#2C355A" fill-rule="evenodd" d="M9.522 18.96h13.99l.021.003c.198.023.543.103.85.31.323.218.617.589.617 1.154 0 .596-.363.968-.727 1.171-.354.198-.76.27-1.022.27H9.7a2.25 2.25 0 0 1-.984-.29c-.354-.207-.693-.575-.714-1.155-.02-.568.244-.952.584-1.177a1.87 1.87 0 0 1 .93-.285zm.016.798c-.16.007-.373.054-.53.158-.135.09-.237.222-.227.478.008.224.124.376.323.493.206.121.461.174.624.183H23.25c.153 0 .427-.048.649-.172.211-.118.32-.267.32-.471a.55.55 0 0 0-.266-.488 1.2 1.2 0 0 0-.49-.181z" clip-rule="evenodd"/></svg>