<svg width="86" height="22" fill="none" xmlns="http://www.w3.org/2000/svg"><path d="M6.44 17.192c-1.136 0-2.136-.232-3-.696a5.019 5.019 0 0 1-2.016-1.944c-.464-.848-.696-1.824-.696-2.928V5.576c0-1.104.232-2.072.696-2.904A4.974 4.974 0 0 1 3.44.704c.864-.464 1.864-.696 3-.696s2.136.232 3 .696a4.785 4.785 0 0 1 2.016 1.968c.48.832.72 1.8.72 2.904v6.048c0 1.104-.24 2.08-.72 2.928-.464.832-1.136 1.48-2.016 1.944-.864.464-1.864.696-3 .696Zm0-1.464c1.216 0 2.192-.368 2.928-1.104.736-.736 1.104-1.712 1.104-2.928V5.552c0-1.216-.368-2.192-1.104-2.928-.736-.752-1.712-1.128-2.928-1.128-1.2 0-2.168.376-2.904 1.128-.736.736-1.104 1.712-1.104 2.928v6.144c0 1.216.368 2.192 1.104 2.928.736.736 1.704 1.104 2.904 1.104Zm14.45-11.04c1.28 0 2.296.376 3.048 1.128.768.752 1.152 1.76 1.152 3.024v7.92c0 .16-.08.24-.24.24h-1.224c-.16 0-.24-.08-.24-.24V9.176c0-.88-.272-1.6-.816-2.16-.528-.56-1.216-.84-2.064-.84-.88 0-1.592.272-2.136.816-.544.544-.816 1.256-.816 2.136v7.632c0 .16-.08.24-.24.24H16.09c-.16 0-.24-.08-.24-.24V5.096c0-.16.08-.24.24-.24h1.224c.16 0 .24.08.24.24v1.032c0 .032.008.056.024.072.032.016.056.008.072-.024.704-.992 1.784-1.488 3.24-1.488Zm17.045 4.2c.064.448.096 1.008.096 1.68v.768c0 .16-.08.24-.24.24H30.04c-.064 0-.096.032-.096.096.032.88.08 1.448.144 1.704.176.72.552 1.288 1.128 1.704.576.416 1.312.624 2.208.624.672 0 1.264-.152 1.776-.456a3.137 3.137 0 0 0 1.2-1.296c.096-.144.208-.176.336-.096l.936.552c.128.08.16.192.096.336-.4.768-1 1.376-1.8 1.824-.8.432-1.72.648-2.76.648-1.136-.016-2.088-.288-2.856-.816-.768-.528-1.32-1.264-1.656-2.208-.288-.768-.432-1.872-.432-3.312 0-.672.008-1.216.024-1.632a5.76 5.76 0 0 1 .192-1.152c.272-1.04.816-1.872 1.632-2.496.832-.624 1.832-.936 3-.936 1.456 0 2.576.368 3.36 1.104.784.736 1.272 1.776 1.464 3.12Zm-4.824-2.736c-.784 0-1.44.208-1.968.624-.512.4-.848.944-1.008 1.632-.096.336-.16.88-.192 1.632 0 .064.032.096.096.096h6.216c.064 0 .096-.032.096-.096-.032-.72-.08-1.232-.144-1.536-.176-.72-.536-1.288-1.08-1.704-.528-.432-1.2-.648-2.016-.648Z" fill="#FF7300"/><path d="M50.396.488a.26.26 0 0 1 .072-.192.298.298 0 0 1 .216-.096h2.208c.08 0 .144.032.192.096a.228.228 0 0 1 .096.192v16.224c0 .08-.032.152-.096.216a.26.26 0 0 1-.192.072h-2.208a.351.351 0 0 1-.216-.072.351.351 0 0 1-.072-.216V9.848c0-.08-.04-.12-.12-.12h-6.12c-.08 0-.12.04-.12.12v6.864c0 .08-.032.152-.096.216a.26.26 0 0 1-.192.072H41.54a.351.351 0 0 1-.216-.072.351.351 0 0 1-.072-.216V.488a.26.26 0 0 1 .072-.192A.298.298 0 0 1 41.54.2h2.208c.08 0 .144.032.192.096a.228.228 0 0 1 .096.192v6.72c0 .08.04.12.12.12h6.12c.08 0 .12-.04.12-.12V.488Zm16.217 9c.064.4.096.848.096 1.344l-.024.744c0 .192-.096.288-.288.288h-7.512c-.08 0-.12.04-.12.12.048.528.12.888.216 1.08.384 1.152 1.32 1.736 2.808 1.752 1.088 0 1.952-.448 2.592-1.344.064-.096.144-.144.24-.144a.23.23 0 0 1 .168.072l1.488 1.224c.144.112.168.24.072.384-.496.704-1.16 1.248-1.992 1.632-.816.384-1.728.576-2.736.576-1.248 0-2.312-.28-3.192-.84-.864-.56-1.496-1.344-1.896-2.352-.368-.864-.552-2.064-.552-3.6 0-.928.096-1.68.288-2.256.32-1.12.92-2 1.8-2.64.896-.656 1.968-.984 3.216-.984 3.152 0 4.928 1.648 5.328 4.944Zm-5.328-2.544c-.592 0-1.088.152-1.488.456-.384.288-.656.696-.816 1.224-.096.272-.16.624-.192 1.056-.032.08 0 .12.096.12h4.872c.08 0 .12-.04.12-.12-.032-.4-.08-.704-.144-.912-.144-.576-.432-1.024-.864-1.344-.416-.32-.944-.48-1.584-.48ZM69.542 17a.351.351 0 0 1-.216-.072.351.351 0 0 1-.072-.216V.488a.26.26 0 0 1 .072-.192.298.298 0 0 1 .216-.096h2.208c.08 0 .144.032.192.096a.228.228 0 0 1 .096.192v16.224c0 .08-.032.152-.096.216a.26.26 0 0 1-.192.072h-2.208Zm15.846-9.096c.288.816.432 1.816.432 3 0 1.136-.136 2.112-.408 2.928-.352 1.056-.92 1.88-1.704 2.472-.768.592-1.744.888-2.928.888-1.136 0-2.048-.408-2.736-1.224-.032-.032-.064-.04-.096-.024s-.048.048-.048.096v5.208c0 .08-.032.144-.096.192a.228.228 0 0 1-.192.096h-2.208a.298.298 0 0 1-.216-.096.26.26 0 0 1-.072-.192V5.024a.26.26 0 0 1 .072-.192.298.298 0 0 1 .216-.096h2.208c.08 0 .144.032.192.096a.228.228 0 0 1 .096.192v.72c0 .048.016.08.048.096s.064 0 .096-.048c.704-.832 1.624-1.248 2.76-1.248 1.136 0 2.096.296 2.88.888.784.592 1.352 1.416 1.704 2.472Zm-3.12 5.88c.48-.736.72-1.712.72-2.928 0-1.168-.192-2.088-.576-2.76-.448-.784-1.128-1.176-2.04-1.176-.832 0-1.456.384-1.872 1.152-.368.624-.552 1.552-.552 2.784 0 1.264.2 2.224.6 2.88.416.704 1.016 1.056 1.8 1.056.848 0 1.488-.336 1.92-1.008Z" fill="#3F5BD9"/></svg>