<svg xmlns="http://www.w3.org/2000/svg" width="44" height="44" fill="none"><path stroke="#2C355A" stroke-width=".792" d="M25.572 28.53h-11.59a1.189 1.189 0 0 1-1.189-1.188V13.085c0-.657.532-1.189 1.189-1.189h8.7l4.078 4.04v11.406c0 .657-.532 1.189-1.188 1.189Z"/><path stroke="#2C355A" stroke-width=".778" d="M22.515 11.965v3.097c0 .43.348.778.777.778h3.094"/><path fill="#2C355A" d="M20.904 18.91a.389.389 0 0 0 0-.778v.777Zm0-.778h-4.886v.777h4.886v-.777Z"/><path stroke="#2C355A" stroke-linecap="round" stroke-width=".778" d="M17.282 17.257 16.039 18.5l1.243 1.242"/><path fill="#2C355A" d="M18.65 22.337a.389.389 0 1 1 0-.778v.777Zm0-.778h4.885v.777H18.65v-.777Z"/><path stroke="#2C355A" stroke-linecap="round" stroke-width=".778" d="m22.272 20.684 1.242 1.242-1.242 1.243"/><path fill="#fff" d="M31.603 27.834a4.665 4.665 0 1 1-9.331 0 4.665 4.665 0 0 1 9.33 0Zm-8.505 0a3.84 3.84 0 1 0 7.68 0 3.84 3.84 0 0 0-7.68 0Z"/><path fill="#3F5BD9" fill-rule="evenodd" d="M30.825 27.835a3.888 3.888 0 1 1-7.775 0 3.888 3.888 0 0 1 7.775 0Zm-2.697-.508.131-.472h-.538a1.14 1.14 0 0 0-.193-.492h.6l.134-.472H25.76l-.145.534h.704c.179 0 .323.03.432.088a.538.538 0 0 1 .277.342h-1.284l-.132.472h1.427a.593.593 0 0 1-.299.382.851.851 0 0 1-.41.088h-.643l.003.398 1.351 1.584h.758v-.035l-1.236-1.455c.285-.025.513-.09.685-.193a.928.928 0 0 0 .373-.41c.05-.11.083-.229.1-.359h.405Z" clip-rule="evenodd"/><path fill="#fff" d="m28.26 26.855-.133.472h-.404c-.018.13-.051.25-.1.358a.928.928 0 0 1-.374.411c-.172.104-.4.168-.685.193l1.236 1.455v.035h-.758l-1.351-1.584-.003-.398h.642c.167 0 .304-.03.411-.088a.593.593 0 0 0 .299-.382h-1.427l.132-.472h1.284a.538.538 0 0 0-.277-.342.914.914 0 0 0-.432-.088h-.704l.145-.534h2.5l-.133.472h-.6a1.14 1.14 0 0 1 .193.491h.538Z"/></svg>