<svg width="45" height="44" fill="none" xmlns="http://www.w3.org/2000/svg"><path d="m27.39 24.191 1.599 1.84-.727 1.456-4.03-.199-.066-1.125 1.322.265 1.85.132.066-.463-2.445-1.191 2.431-.715ZM12.539 19.544l-2.246.794-.529-.595-.264.066.595 1.125L13 20.14l-.462-.596ZM19.132 27.585l.423 1.114 2.18.993.188.635h1.081l-.553-1.186-1.916-1.059.067-3.441-4.757-1.456-.198.794 3.485 3.606Z" fill="#EA4403"/><path d="M27.406 30.327h-1.057l-.66-1.053 1.387-5.097 1.189-.066-1.439 5.068.58 1.148ZM12.606 22.193v2.912l-.727.066.991 5.163h1.124l-.133-.795-.528-2.978 2.52-2.636.453-.475-3.7-1.257Z" fill="#FF5000"/><path d="M33.614 22.92v.596l-2.213 2.217h-1.024v-2.15l-2.986.741-4.744 1.178-10.042-3.243-.066-2.714 5.087-2.581L26.876 12l6.738 6.685v2.58h2.775l-2.775 1.656Z" fill="#FF5000"/></svg>