<svg width="44" height="44" fill="none" xmlns="http://www.w3.org/2000/svg"><path d="M22.31 25.311c-2.276-2.757-5.462-9.632 0-15.076 2.257 2.034 5.416 7.896 0 15.076Z" fill="#3F5BD9"/><path fill-rule="evenodd" clip-rule="evenodd" d="M21.998 25.31V10.679h.64V25.31h-.64Z" fill="#E8EBFA"/><path fill-rule="evenodd" clip-rule="evenodd" d="m25.173 15.084-2.502 2.42a.31.31 0 0 1-.452-.018.343.343 0 0 1 .017-.47l2.503-2.42.434.488ZM19.628 13.592l2.338 2.247a.31.31 0 0 0 .45-.019.343.343 0 0 0-.017-.47l-2.338-2.247-.433.49ZM19.106 16.663l2.915 2.911a.31.31 0 0 0 .452-.01.343.343 0 0 0-.01-.47l-2.915-2.911-.442.48Z" fill="#E8EBFA"/><path fill-rule="evenodd" clip-rule="evenodd" d="M22.32 25.758a.422.422 0 0 1-.335-.155c-1.177-1.427-2.588-3.91-3-6.756-.417-2.87.184-6.101 3.03-8.936.16-.16.41-.166.577-.015 1.196 1.077 2.608 3.143 3.02 5.877.416 2.753-.189 6.137-2.963 9.814a.424.424 0 0 1-.328.171Zm-.02-1.17c2.358-3.323 2.822-6.3 2.464-8.676-.343-2.275-1.447-4.039-2.442-5.058-2.37 2.533-2.854 5.34-2.488 7.859.345 2.377 1.448 4.503 2.466 5.874ZM30.326 21.198c-2.66.884-6.336 3.165-7.217 7.41a8.04 8.04 0 0 0 2.168-.594 8.29 8.29 0 0 0 2.694-1.876 8.688 8.688 0 0 0 1.8-2.808 8.941 8.941 0 0 0 .555-2.132Zm-7.36 8.327a8.863 8.863 0 0 0 2.64-.684 9.148 9.148 0 0 0 2.973-2.07 9.585 9.585 0 0 0 1.986-3.099c.349-.876.569-1.8.656-2.74.043-.472-.374-.828-.811-.697-2.83.85-7.28 3.37-8.19 8.437-.053.29-.093.589-.121.896.29 0 .58-.014.868-.043Z" fill="#2C355A"/><path fill-rule="evenodd" clip-rule="evenodd" d="M14.257 21.198c2.66.884 6.337 3.165 7.217 7.41a8.04 8.04 0 0 1-2.168-.594 8.29 8.29 0 0 1-2.694-1.876 8.688 8.688 0 0 1-1.8-2.808 8.941 8.941 0 0 1-.555-2.132Zm7.36 8.327a8.862 8.862 0 0 1-2.64-.684 9.146 9.146 0 0 1-2.972-2.07 9.586 9.586 0 0 1-1.987-3.099 9.88 9.88 0 0 1-.655-2.74c-.044-.472.373-.828.81-.697 2.83.85 7.28 3.37 8.191 8.437.052.29.093.589.12.896-.29 0-.58-.014-.867-.043Z" fill="#2C355A"/><path fill-rule="evenodd" clip-rule="evenodd" d="M22.291 28.803c.238 0 .43.2.43.448v5.098a.439.439 0 0 1-.43.448c-.237 0-.43-.2-.43-.448v-5.098c0-.247.193-.448.43-.448Z" fill="#2C355A"/></svg>