<svg width="56" height="56" viewBox="0 0 56 56" fill="none" xmlns="http://www.w3.org/2000/svg">
<path d="M28 0C43.4639 0 56 12.5359 56 28C56 43.4639 43.4639 56 28 56C12.5359 56 0 43.4639 0 28C0 12.5359 12.5359 0 28 0Z" fill="#125FE3"/>
<mask id="mask0_1280_7337" style="mask-type:alpha" maskUnits="userSpaceOnUse" x="0" y="0" width="56" height="56">
<path d="M28 0C43.4639 0 56 12.5359 56 28C56 43.4639 43.4639 56 28 56C12.5359 56 0 43.4639 0 28C0 12.5359 12.5359 0 28 0Z" fill="white"/>
</mask>
<g mask="url(#mask0_1280_7337)">
<path fill-rule="evenodd" clip-rule="evenodd" d="M27.8821 26.4911L38.1047 21.2775C38.1759 21.2413 38.2356 21.1859 38.277 21.1176C38.3183 21.0493 38.3398 20.9707 38.3389 20.8908C38.3379 20.8109 38.3147 20.7329 38.2718 20.6655C38.2288 20.5982 38.1679 20.5441 38.0959 20.5096L27.9612 15.6021C27.9003 15.5716 27.8332 15.5557 27.765 15.5557C27.6969 15.5557 27.6298 15.5716 27.5689 15.6021L17.3471 20.8156C17.2757 20.8516 17.2158 20.9067 17.1742 20.9749C17.1325 21.043 17.1108 21.1215 17.1113 21.2014C17.1119 21.2813 17.1348 21.3594 17.1775 21.4269C17.2201 21.4945 17.2808 21.5487 17.3527 21.5836L27.4913 26.4903C27.5517 26.5199 27.618 26.5353 27.6851 26.5353C27.7523 26.5353 27.8186 26.5199 27.8789 26.4903L27.8821 26.4911ZM39.4888 34.727V23.1276C39.4883 23.0527 39.4685 22.9793 39.4313 22.9144C39.3941 22.8495 39.3408 22.7953 39.2764 22.7571C39.2121 22.7189 39.139 22.698 39.0642 22.6964C38.9894 22.6948 38.9154 22.7125 38.8495 22.748L28.5406 28.0327C28.4702 28.0685 28.411 28.123 28.3696 28.1903C28.3282 28.2575 28.306 28.3349 28.3057 28.4139V40.0141C28.3062 40.0885 28.3259 40.1615 28.3628 40.226C28.3998 40.2906 28.4528 40.3445 28.5166 40.3825C28.5806 40.4208 28.6534 40.4421 28.7279 40.4444C28.8025 40.4466 28.8764 40.4297 28.9426 40.3953L39.2587 35.1074C39.3283 35.0713 39.3866 35.0167 39.4272 34.9496C39.4678 34.8825 39.4891 34.8055 39.4888 34.727ZM23.5404 35.7451L18.899 33.5076C18.8436 33.4811 18.7945 33.443 18.7551 33.396C18.7157 33.3489 18.6869 33.2939 18.6706 33.2347C18.6543 33.1755 18.6509 33.1135 18.6607 33.0529C18.6705 32.9923 18.6931 32.9345 18.7272 32.8834L21.0511 29.4519C21.0957 29.3868 21.1572 29.3349 21.2289 29.3017C21.3006 29.2686 21.3799 29.2554 21.4585 29.2636C21.537 29.2717 21.6119 29.301 21.6753 29.3482C21.7386 29.3954 21.788 29.4589 21.8183 29.5318L24.1422 35.1977C24.1789 35.2798 24.1887 35.3713 24.1704 35.4592C24.152 35.5472 24.1063 35.6271 24.0399 35.6876C23.9731 35.7482 23.889 35.7863 23.7994 35.7966C23.7098 35.8069 23.6192 35.7889 23.5404 35.7451ZM33.89 34.564C34.6448 34.1156 35.2761 33.4863 35.7269 32.7329C36.1776 31.9795 36.4337 31.1258 36.4721 30.2487C36.4721 28.5969 35.3181 27.8465 33.8956 28.5769C33.1406 29.025 32.5092 29.6542 32.0583 30.4077C31.6075 31.1611 31.3516 32.015 31.3136 32.8922C31.3128 34.5456 32.4668 35.2952 33.89 34.564ZM32.1703 20.639L27.855 18.5493C27.7938 18.519 27.7266 18.5032 27.6584 18.5032C27.5902 18.5032 27.5229 18.519 27.4618 18.5493L23.2663 20.687C23.1951 20.7231 23.1353 20.7785 23.0939 20.8468C23.0524 20.915 23.0309 20.9936 23.0317 21.0735C23.0326 21.1533 23.0557 21.2314 23.0986 21.2988C23.1414 21.3662 23.2023 21.4203 23.2743 21.455L27.5952 23.5471C27.6563 23.5776 27.7236 23.5934 27.7918 23.5934C27.8601 23.5934 27.9274 23.5776 27.9884 23.5471L32.1783 21.4102C32.2497 21.3742 32.3097 21.3188 32.3513 21.2504C32.3929 21.182 32.4145 21.1034 32.4137 21.0233C32.4128 20.9433 32.3896 20.8651 32.3466 20.7976C32.3036 20.7301 32.2425 20.676 32.1703 20.6414V20.639Z" fill="white"/>
</g>
</svg>
