<svg xmlns="http://www.w3.org/2000/svg" width="20" height="20" fill="none"><g clip-path="url(#a)"><path stroke="#2C355A" stroke-width=".694" d="M.556 13.145h2.221c.116 0 .21.093.21.207v5.556a.21.21 0 0 1-.21.208H.556a.21.21 0 0 1-.208-.208v-5.556c0-.114.092-.207.208-.207Z"/><path fill="#E8ECFC" stroke="#2C355A" stroke-width=".694" d="M6.11 8.697h2.222c.115 0 .209.093.209.208v10a.21.21 0 0 1-.209.208H6.11a.21.21 0 0 1-.208-.208v-10c0-.115.093-.208.208-.208Z"/><path fill="#3F5BD9" stroke="#2C355A" stroke-width=".694" d="M11.666 10.922h2.223c.114 0 .208.093.208.208v7.777a.21.21 0 0 1-.208.21h-2.223a.21.21 0 0 1-.208-.21V11.13c0-.1.071-.185.166-.204z"/><path stroke="#2C355A" stroke-width=".694" d="M17.222 7.586h2.221c.115 0 .21.093.21.208v11.111a.21.21 0 0 1-.21.208h-2.221a.21.21 0 0 1-.208-.208V7.794c0-.115.093-.208.208-.208Z"/><path stroke="#2C355A" stroke-linecap="round" d="M1.5 8 7 3l6 3 5.5-3.5"/><circle cx="7" cy="3" r="1.655" fill="#E8ECFC" stroke="#2C355A" stroke-width=".69"/><circle cx="13" cy="6" r="1.655" fill="#E8ECFC" stroke="#2C355A" stroke-width=".69"/><circle cx="18" cy="2" r="2" fill="#3F5BD9"/><circle cx="2" cy="8" r="1.655" fill="#E8ECFC" stroke="#2C355A" stroke-width=".69"/></g><defs><clipPath id="a"><path fill="#fff" d="M0 0h20v20H0z"/></clipPath></defs></svg>