<svg width="44" height="44" fill="none" xmlns="http://www.w3.org/2000/svg"><path d="M25.024 13.237v2.105H16.72c-.691 0-1.252.566-1.252 1.264v8.38h-2.191a1.258 1.258 0 0 1-1.251-1.264V13.237c0-.698.56-1.263 1.251-1.263h10.496c.691 0 1.252.565 1.252 1.263Z" fill="#3F5BD9"/><path d="M19.021 20.096c0-.657.533-1.19 1.19-1.19h10.746c.657 0 1.19.533 1.19 1.19v10.746a1.19 1.19 0 0 1-1.19 1.19H20.21a1.19 1.19 0 0 1-1.19-1.19V20.096Z" fill="#E8EBFA"/><path fill-rule="evenodd" clip-rule="evenodd" d="M11.5 13.212c0-.946.757-1.712 1.69-1.712h10.638c.934 0 1.69.766 1.69 1.712v2.566H16.68a.85.85 0 0 0-.846.856v8.94h-2.643c-.934 0-1.691-.766-1.691-1.71V13.211Zm1.69-.856a.85.85 0 0 0-.845.856v10.651a.85.85 0 0 0 .846.856h1.798v-8.085c0-.946.757-1.712 1.69-1.712h7.994v-1.71a.85.85 0 0 0-.845-.856H13.19Z" fill="#2C355A"/><path fill-rule="evenodd" clip-rule="evenodd" d="M14.97 16.618c0-.945.756-1.711 1.69-1.711h10.637c.934 0 1.69.766 1.69 1.711v2.567H20.15a.85.85 0 0 0-.846.855v8.941H16.66c-.934 0-1.69-.766-1.69-1.711V16.618Zm1.69-.855a.85.85 0 0 0-.846.855V27.27a.85.85 0 0 0 .846.856h1.798V20.04c0-.945.757-1.711 1.69-1.711h7.994v-1.71a.85.85 0 0 0-.845-.857H16.66Z" fill="#2C355A"/><path fill-rule="evenodd" clip-rule="evenodd" d="M31.232 19.192H19.777a.425.425 0 0 0-.422.428v11.596c0 .237.189.428.422.428h11.455a.425.425 0 0 0 .423-.428V19.62a.425.425 0 0 0-.423-.428Zm-11.455-.856c-.7 0-1.268.575-1.268 1.284v11.596c0 .71.568 1.284 1.268 1.284h11.455c.7 0 1.268-.575 1.268-1.284V19.62c0-.71-.568-1.284-1.268-1.284H19.777Z" fill="#2C355A"/><path fill-rule="evenodd" clip-rule="evenodd" d="M27.126 23.427c0-.22.176-.399.394-.399h1.525c.217 0 .394.178.394.399v1.569c0 .22-.177.398-.394.398a.396.396 0 0 1-.393-.398v-.608l-2.476 2.506a.39.39 0 0 1-.556 0l-1.296-1.311-2.082 2.108a.39.39 0 0 1-.556 0 .402.402 0 0 1 0-.563l2.36-2.39a.39.39 0 0 1 .557 0l1.295 1.311 2.198-2.224h-.576a.396.396 0 0 1-.394-.398Z" fill="#2C355A"/></svg>