<svg width="56" height="56" viewBox="0 0 56 56" fill="none" xmlns="http://www.w3.org/2000/svg">
<path d="M27.647 -1.47363C42.8274 -1.47363 55.1337 11.7188 55.1337 27.9928C55.1337 44.2667 42.8274 57.4593 27.647 57.4593C12.4663 57.4593 0.160156 44.2667 0.160156 27.9928C0.160156 11.7188 12.4663 -1.47363 27.647 -1.47363Z" fill="#002852"/>
<mask id="mask0_1280_7355" style="mask-type:alpha" maskUnits="userSpaceOnUse" x="0" y="-2" width="56" height="60">
<path d="M27.647 -1.47363C42.8274 -1.47363 55.1337 11.7188 55.1337 27.9928C55.1337 44.2667 42.8274 57.4593 27.647 57.4593C12.4663 57.4593 0.160156 44.2667 0.160156 27.9928C0.160156 11.7188 12.4663 -1.47363 27.647 -1.47363Z" fill="white"/>
</mask>
<g mask="url(#mask0_1280_7355)">
<path d="M29.5764 39.1543L19.3758 22.7103H22.1496C22.9549 22.7103 23.6057 21.69 23.6057 20.4402C23.6057 19.1903 22.9549 18.1699 22.1496 18.1699H15.276C14.8856 18.187 14.4951 18.2975 14.1453 18.5356C13.1204 19.2328 12.8275 20.6612 13.4946 21.7411L25.8589 41.6711C26.5259 42.7423 27.8924 43.0485 28.9256 42.3513C29.9505 41.6626 30.2434 40.2256 29.5764 39.1543Z" fill="white"/>
<path d="M41.142 18.5584C40.7911 18.3054 40.3994 18.1789 40.0158 18.1699H33.1201C32.3123 18.1699 31.6595 19.2542 31.6595 20.5825C31.6595 21.9108 32.3123 22.9952 33.1201 22.9952H35.8947L29.9375 33.1788L32.5162 37.8142L41.7949 21.965C42.464 20.8175 42.1702 19.2994 41.142 18.5584Z" fill="#E6E7E8"/>
</g>
</svg>
