<svg width="32" height="32" viewBox="0 0 32 32" fill="none" xmlns="http://www.w3.org/2000/svg">
<rect x="0.000488281" width="32" height="32" rx="16" fill="#FF0000"/>
<path d="M24.9007 11.5986C24.6917 10.8132 24.0737 10.1936 23.2873 9.98119C21.8655 9.6001 16.1608 9.6001 16.1608 9.6001C16.1608 9.6001 10.459 9.6001 9.03423 9.98119C8.25077 10.1906 7.63272 10.8103 7.42089 11.5986C7.04077 13.0241 7.04077 16.0001 7.04077 16.0001C7.04077 16.0001 7.04077 18.9761 7.42089 20.4016C7.62981 21.187 8.24787 21.8066 9.03423 22.019C10.459 22.4001 16.1608 22.4001 16.1608 22.4001C16.1608 22.4001 21.8655 22.4001 23.2873 22.019C24.0708 21.8096 24.6888 21.1899 24.9007 20.4016C25.2808 18.9761 25.2808 16.0001 25.2808 16.0001C25.2808 16.0001 25.2808 13.0241 24.9007 11.5986Z" fill="white"/>
<path d="M14.3385 18.7434L19.077 16.0001L14.3385 13.2568V18.7434Z" fill="#FF0000"/>
</svg>
